<svg id="home_layer_copy" data-name="home layer copy" xmlns="http://www.w3.org/2000/svg" viewBox="0 0 15.55 18.58"><defs><style>.cls-1{fill:#2e50c1;}.cls-2{fill:#26257c;}</style></defs><title>emblem_blue</title><path class="cls-1" d="M6138.2,2851.14a4.7,4.7,0,0,0,1.46,2.06,2.3,2.3,0,0,1-1.83-.67c-0.36.33,0,.79,0.06,1.21a3,3,0,0,1-.55,2.19c-1-.29-0.86-2.17-0.66-3.28a3.51,3.51,0,0,1-2.07.54,3.14,3.14,0,0,1,.85-0.85,3.25,3.25,0,0,1,.85-1.28,12.19,12.19,0,0,1,1.88.07" transform="translate(-6129.54 -2837.35)"/><path class="cls-1" d="M6138.56,2846.64c-0.16.57-.26,1.16-0.42,1.88s-0.22,1.43-.79,1.46-0.49-.51-0.61-1.09-0.36-1.34-.54-2c-0.06-.22-0.07-0.45-0.12-0.67-0.15-.57-0.46-1.1-0.61-1.64-0.08-.29-0.12-0.61-0.18-0.91a7,7,0,0,1-.3-2.55c0-.19.16-0.48,0.24-0.79a6.86,6.86,0,0,1,.67-1.82,4.68,4.68,0,0,1,1.21-1.15c1.06,0,2.28,2.49,2.43,3.52,0.34,2.3-.58,4.12-1,5.77" transform="translate(-6129.54 -2837.35)"/><path class="cls-1" d="M6139.24,2850c-0.47-.22-0.36-0.76-0.24-1.34a3.34,3.34,0,0,0,.1-0.81c0.6-1.55,1.47-3.79,3.25-4.09a3,3,0,0,1,.5,0c1.71,0,2.15,1.72,2.26,2.75a4,4,0,0,1-1.14,1.79,2.54,2.54,0,0,1-1.56.85,1.76,1.76,0,0,0-.09-1.62,1,1,0,0,0-.82-0.38,1.75,1.75,0,0,0-.42.05,2.36,2.36,0,0,0-1.12,1.3,3.63,3.63,0,0,0-.19.61,1.35,1.35,0,0,1-.5.94m-3.6-.28a0.9,0.9,0,0,1-.7-0.88,3,3,0,0,0-.23-0.59,1.69,1.69,0,0,0-.27-0.35,0.81,0.81,0,0,1-.27-0.43,4,4,0,0,1-.46-0.23,1.34,1.34,0,0,0-.66-0.23,1.23,1.23,0,0,0-1.14,1.06,0.81,0.81,0,0,0,.09.42,0.59,0.59,0,0,1,0,.54,1.47,1.47,0,0,1-.62-0.35l-0.11-.09a4.3,4.3,0,0,1-1.09-1l-0.08-.1a2.25,2.25,0,0,1-.58-1.22,3.18,3.18,0,0,1,.23-1.49,2.68,2.68,0,0,1,.9-0.9,2,2,0,0,1,.74-0.14,4,4,0,0,1,2.62,1.47,5.1,5.1,0,0,1,.84,1.21,11,11,0,0,1,.49,1.19c0.11,0.31.23,0.63,0.36,0.93a1.29,1.29,0,0,0,0,.65,0.79,0.79,0,0,1,0,.54h-0.17" transform="translate(-6129.54 -2837.35)"/><path class="cls-1" d="M6139.3,2850.4c-0.07.3-.46,0.21-0.74,0.21a24,24,0,0,1-2.86,0,0.48,0.48,0,0,1-.46-0.25,1.7,1.7,0,0,1,1.2-.12h2a1,1,0,0,1,.83.17" transform="translate(-6129.54 -2837.35)"/><path class="cls-2" d="M6138.2,2851.14a4.7,4.7,0,0,0,1.46,2.06,2.3,2.3,0,0,1-1.83-.67c-0.36.33,0,.79,0.06,1.21a3,3,0,0,1-.55,2.19c-1-.29-0.86-2.17-0.66-3.28a3.51,3.51,0,0,1-2.07.54,3.14,3.14,0,0,1,.85-0.85,3.25,3.25,0,0,1,.85-1.28,12.19,12.19,0,0,1,1.88.07" transform="translate(-6129.54 -2837.35)"/><path class="cls-2" d="M6138.56,2846.64c-0.16.57-.26,1.16-0.42,1.88s-0.22,1.43-.79,1.46-0.49-.51-0.61-1.09-0.36-1.34-.54-2c-0.06-.22-0.07-0.45-0.12-0.67-0.15-.57-0.46-1.1-0.61-1.64-0.08-.29-0.12-0.61-0.18-0.91a7,7,0,0,1-.3-2.55c0-.19.16-0.48,0.24-0.79a6.86,6.86,0,0,1,.67-1.82,4.68,4.68,0,0,1,1.21-1.15c1.06,0,2.28,2.49,2.43,3.52,0.34,2.3-.58,4.12-1,5.77" transform="translate(-6129.54 -2837.35)"/><path class="cls-2" d="M6139.24,2850c-0.47-.22-0.36-0.76-0.24-1.34a3.34,3.34,0,0,0,.1-0.81c0.6-1.55,1.47-3.79,3.25-4.09a3,3,0,0,1,.5,0c1.71,0,2.15,1.72,2.26,2.75a4,4,0,0,1-1.14,1.79,2.54,2.54,0,0,1-1.56.85,1.76,1.76,0,0,0-.09-1.62,1,1,0,0,0-.82-0.38,1.75,1.75,0,0,0-.42.05,2.36,2.36,0,0,0-1.12,1.3,3.63,3.63,0,0,0-.19.61,1.35,1.35,0,0,1-.5.94m-3.6-.28a0.9,0.9,0,0,1-.7-0.88,3,3,0,0,0-.23-0.59,1.69,1.69,0,0,0-.27-0.35,0.81,0.81,0,0,1-.27-0.43,4,4,0,0,1-.46-0.23,1.34,1.34,0,0,0-.66-0.23,1.23,1.23,0,0,0-1.14,1.06,0.81,0.81,0,0,0,.09.42,0.59,0.59,0,0,1,0,.54,1.47,1.47,0,0,1-.62-0.35l-0.11-.09a4.3,4.3,0,0,1-1.09-1l-0.08-.1a2.25,2.25,0,0,1-.58-1.22,3.18,3.18,0,0,1,.23-1.49,2.68,2.68,0,0,1,.9-0.9,2,2,0,0,1,.74-0.14,4,4,0,0,1,2.62,1.47,5.1,5.1,0,0,1,.84,1.21,11,11,0,0,1,.49,1.19c0.11,0.31.23,0.63,0.36,0.93a1.29,1.29,0,0,0,0,.65,0.79,0.79,0,0,1,0,.54h-0.17" transform="translate(-6129.54 -2837.35)"/><path class="cls-2" d="M6139.3,2850.4c-0.07.3-.46,0.21-0.74,0.21a24,24,0,0,1-2.86,0,0.48,0.48,0,0,1-.46-0.25,1.7,1.7,0,0,1,1.2-.12h2a1,1,0,0,1,.83.17" transform="translate(-6129.54 -2837.35)"/></svg>