<svg id="home_layer_copy" data-name="home layer copy" xmlns="http://www.w3.org/2000/svg" viewBox="0 0 174.78 55.17"><defs><style>.cls-1,.cls-2{fill:#fff;}.cls-2{fill-rule:evenodd;}</style></defs><title>logo-white</title><path class="cls-1" d="M7700.14,4175.66c0.26,0,1.72,1.46,2.35,1.66s3.69,0.63,3.69.14c1,0,2.58-1.43,3.34-2.25,0.58-.62,2.69-2.2,2.69-3a6.2,6.2,0,0,0,2-2.94c0.68,0,1.5-3.43,2-3.43,0.3-1.21,1.14-2.33,1.14-3.59,0.84,0,0-7.6-.17-8.49,0.08,0,2.94-1.62,2.94-1.14,0.47,0,6.69-.87,6.69-0.33,0.41,0,2.94.08,2.94,0.33,1,0,1.75.49,2.61,0.49,0,0.43,4.73,1.06,4.73,1.63a32.77,32.77,0,0,1,4.57,1c0.47,0,3.26.41,3.26,0,1.32-.06,2.83-0.33,3.92-0.33a14,14,0,0,1,3.27-1.63,15,15,0,0,0,1.92-1.36c1-.81.36-1.56,0.36-2.39a21.3,21.3,0,0,0-2.28-2.45c-0.94-.53-3.52-0.64-4.08.49-1.65.83-.26,1.66,1,1,0.86,0,1.33-.46,2.5,0s1.77,1.63,1,2.49c-1.68,1.76-5.08,2.7-7.59,2.7-1,0-7-.29-7-1-0.54,0-3.43-.66-3.43-1-1.65,0-2.9-1-4.73-1,0-.32-4.7-0.49-5.68-0.54a18.18,18.18,0,0,0-6.15.8c-2.58.65-3.37-2.38-5.48-2.38,0-.69-4.38.61-4.73,1.31-1.19,0-3.11,3.59-1.47,3.59,0.31-1.51,2.33-3,3.75-3.18,0.91-.11,1.5-0.69,2.55-0.3,0.47,0.18,1.79.92,1.7,1.52a12.83,12.83,0,0,1-2.12,1.47c-1.13,0-2,2-3.1,2-0.36.71-1.5,1.21-2.12,2-0.7,0-2,1.77-2.61,2.28,0,0.5-1.51,2.15-2,2.45,0,0.58-1.05,1.84-1.31,2.61-0.54,0-.92,2.61-1.31,2.61,0,1.42-.49,3-0.17,4.66C7699.72,4173.46,7700,4174.44,7700.14,4175.66Zm2.61-11.1c0.46-.22.44-1.14,0.82-1.14a5.84,5.84,0,0,1,2-2.29c0-.7.81-0.61,0.81-1.31a17,17,0,0,0,2.45-2.28c2.15-.54,3.59-3.26,6.21-3.26,1.33,2.25.65,4.61,0.65,7.35A27.91,27.91,0,0,0,7714,4166c-0.7,0-1.7,3.46-2.61,3.92,0,1.11-2,1.83-2,2.94-1.11,1-2.74,3.07-4.16,3.26a14.34,14.34,0,0,1-2.7-.16,1.2,1.2,0,0,0-.82-0.49c-0.89-.64-0.82-1.42-0.82-2.39s-0.64-2.2-.33-3.32C7700.28,4169.79,7702.59,4165,7702.75,4164.56Z" transform="translate(-7696.08 -4147.2)"/><path class="cls-1" d="M7740.77,4177.08c0.19,3.44,4.39-.74,0,0h0Z" transform="translate(-7696.08 -4147.2)"/><path class="cls-1" d="M7848,4173.13c-1.4-.42-2-0.16-1.72,1.47C7847.67,4175,7848.3,4174.75,7848,4173.13Z" transform="translate(-7696.08 -4147.2)"/><path class="cls-1" d="M7768.69,4179.41c-0.51-.36-2.09,1-2.94.65,0-.41-1.68-1-2.12-1,0,0.6-3,.6-2,2.28,0.33,0.53.91,0.37,1.34,0a1.46,1.46,0,0,1,1.47-.45,1.45,1.45,0,0,0,1.31.66C7765.75,4182.73,7771.11,4180,7768.69,4179.41Z" transform="translate(-7696.08 -4147.2)"/><path class="cls-1" d="M7737,4157.41c-1.32-.4-2.43,0-3.77,0-1.52,0-2.18.64-3.67,1.14a4.93,4.93,0,0,1-1.8,1c-0.46.93-2,1.69-2.77,2.53-0.61.69-1.55,2.17-2.29,2.53a2.69,2.69,0,0,1-1,1.47c0,0.75-1,1.36-1.31,2.12a3.41,3.41,0,0,1-1.13,1.64c0,1-2.07,4.4-3.27,4.74,0,0.43-2.85-.37-3.16.26-0.54,1.09.6,0.88,1.37,0.88,0-.36.94,0.46,1.14,0.66-0.08.67-.49,0.77-0.49,1.3-0.88.45-1.79,3.92-2.61,3.92-0.51,1.53-2.27,2.85-3.43,4.16-0.52.59-2,2.2-2.77,2.2,0,0.52-1.47.46-1.47,0.81-0.64,0-1.57.4-2.43,0.39s-1.7-.42-2.79-0.55c0,0.06-1.65-1.32-1.79-1.47,0-1.27.23-1.29,1-2.14,1.09-1.27-.14-0.61-0.14-1.45-0.71.24-.82,0.75-1.63,1-0.38,1.32-1,1.91-.37,3.35a3.68,3.68,0,0,0,3.63,2c0,1.11,6.66.22,7.18-.82,3.23-1.08,5-4.71,7.84-6.85,0-.51,2.33-3.21,2.77-3.43,0-.91,1.54-2.53,2.61-2.12-0.14.69-2.09,3.25,0.05,2.69,0.81-.21,2.13-1.88,2.56-2.53,0.64,0,1.86-1,1.21-1.79-0.48-.61-1.42-0.21-2.17-0.34a10.45,10.45,0,0,0-1-.48c0.36-1.07,1.28-1.54,1.63-2.61a4.89,4.89,0,0,1,1.47-2.12c0.31-1.24.88-1.49,1.15-2.78a5.41,5.41,0,0,0,1.63-2.28c0.77-.39.91-1.44,1.63-2a16.61,16.61,0,0,0,2.77-2.7,4.54,4.54,0,0,0,1.47-.82c0.51-.07,3.92-0.66,3.92-0.17C7738.36,4159,7738.5,4157.89,7737,4157.41Zm-14.38,11.87a84.76,84.76,0,0,1-10.12,13.79,58.61,58.61,0,0,0,4-6.21c8.84-15.32,13.66-17.5,13.66-17.5C7727.07,4162.35,7722.57,4169.28,7722.57,4169.28Z" transform="translate(-7696.08 -4147.2)"/><path class="cls-2" d="M7712.46,4183.07c-1,1.13-1.65,1.79-1.65,1.79A10.44,10.44,0,0,0,7712.46,4183.07Z" transform="translate(-7696.08 -4147.2)"/><path class="cls-1" d="M7766.92,4166.88c-1.18.4-2.5,1.61-1.82,2.91,1.4,0,2.1-1.75,3.74-1.89,2.66-.22,2.06,3.15.67,4.33-0.2,0-4.24,2.41-4.24,2.12-0.87,0-1.78.28-2.8,0.36a24.63,24.63,0,0,1-2.91-.19c0-.48-4.08-0.62-4.08-1.31-2-.56,2.07-2.75-0.16-3.26-0.75-.51-2.14,1-2.59,1.46-0.83.8-1.07,1.1-2.37,0.87-2.27-.4-4.52.44-6.31,0.44,0-.47-4,3.19-1.31,2.28,2.23-.74,4.68-2.23,7.11-1.33,1.29,0.48-2.26,4.47-2.86,4.92,0,0.69-2,2.53-2.61,3a27.87,27.87,0,0,0-2.78,2.58c-0.91,1-3.09,3.21-4.24,3.21,0,0.44-2.81,1.6-2.28-.24s2.36-2.59,3.26-4.49c1,0,1-1.26.66-2a2.08,2.08,0,0,0-2,1c-1.22,0-2.53,2.86-3.26,3.59s-2.62,2.29-3.43,2.29c0,0.38-1,.26-1,0.65-0.62.13-.83,0.46-1.27,0.11-0.28-.23-0.82-1.09,0-1.09,0-.61,1.31-1.94,1.8-2.37a9.37,9.37,0,0,0,1.7-2.05c1.73-2.68-5.29-2.72-5.29-2.6-2.11.35-3.36,2-5.06,3.43,0,0.81-1.41,1.62-1.82,2.41s-1.12,2.09-.79,3a16.44,16.44,0,0,0,1.86,1.33c1.11,0.3,1.76-.35,2.71-0.35,0.33-.11,2.61-1.49,2.61-0.82,0.69,0,1.66.75,2.64,0.74,1.84,0,2.71-1.37,4.22-1.88a4.43,4.43,0,0,0,2,1.49c0.45,0.13,2.23,0,2.23-.35a4.51,4.51,0,0,0,2.78-1.63,5.44,5.44,0,0,0,2.45-1.8c0.91,0.25.4,1.8,0.82,1.8,0,2.61,2.74,2,4.41,1.46,0.7-.23,1.42-1.3,2.12-1.3,0.53-.6,2.12-1.62,2.12-2.28,0.65-.44,1-1.47,1.63-1.79,0.27-.41,1.25-2.8-0.17-2.16-0.74.33-1.13,1.48-1.79,2,0,0.64-1.29,1.7-1.8,2.12a4.82,4.82,0,0,1-4.08,2.12c-0.28-.84.49-1,0.49-1.8,0.39-.81,1.8-1.76,1.8-2.61,1.21-.81,1.47-2.51,2.61-3.27,0-.92,1.58-2.14,2-3.18,0.72-2,2.12-2.47,4.36-1.74a16.51,16.51,0,0,0,4.57.92c1.36,0,7.07-.21,7.07-1.38a3.83,3.83,0,0,0,2.28-1.47c0.8,0,1.43-2.12,1.8-2.12C7773.53,4167.31,7769.76,4165.91,7766.92,4166.88Zm-40.83,19.06c0,1.36-3.2,2.44-4.24,2.61,0-.27-1.19.12-0.62-1.18,0.35-.82,1.44-1.45,1.44-2.24,2.2-1.66,3.07-3.59,5.71-3.59,0.72,1.14-.49,1.37-0.49,2.29C7727.06,4184.37,7726.9,4185.54,7726.09,4185.94Zm3.43-4.25c0.39,2.45-2.41,4.5-2.41,4.5A16.42,16.42,0,0,0,7729.52,4181.69Zm4.18,5.65c0.08-2.6,4.14-5.29,4.14-5.29A29.31,29.31,0,0,0,7733.7,4187.33Zm9.91-.12c1.69-6.16,10.58-15.63,10.58-15.63C7751.7,4176,7743.61,4187.22,7743.61,4187.22Z" transform="translate(-7696.08 -4147.2)"/><path class="cls-1" d="M7870.81,4178.78c-0.42-1.8-1.8,1.41-2,1.84a14.75,14.75,0,0,1-2.15,3c-0.59.69-2.25,2.53-3.11,2.53a3.2,3.2,0,0,1-1.79,1.3c-0.36.72-3.1,1.4-3.1,1.63-1.44-.07-1.62-1.11-0.76-2.17,0.54-.67.76-1.74,1.41-2.07,0-.21,1.69-2.94,1.47-2.94,0.11-1.6.27-2-.66-3.1-1.33.3-1.8,1-2.94,1.31-0.33.66-1.45,0.69-2,1.47-1.35-.07-0.88-1-0.93-2-0.18-4.36-8.06,2.15-9,3.35-1.07,0-2.5,2.24-3.43,2.94,0,0.22-1.3.93-1.3,1.15-0.55,0-1.05,1-1.63.16-0.42-.43.33-0.91,0.33-1.31,1.27-.64,1.78-3.09,3-4.08,0.45-.37,3.67-3.76,1.29-3.66-2,.09-4.46,3.84-5.61,5.12-0.88,0-2.16,1.77-2.77,2.45a3.37,3.37,0,0,0-1.64,1.15c-1.44,0-2.49,2.32-4.41,1.3a9.45,9.45,0,0,1,2.78-5.39c0-.92,2.11-1.45,1.32-2.65-0.6-.92-1.31.28-2.07-0.51-0.32-.34-0.08-1.41-0.56-1.41,0-.9-1.5-0.81-2.12-0.81,0,0.11-3.36,1.7-3.76,2.28-1.51,0-3.25,3.58-4.08,4.41s-1.21,4.08-.33,5.06c0.32,1.15,1.6.73,2.11,1.49s0.21,1.06,1.08.87a3.51,3.51,0,0,1,1.75-.2c4.5,1.37-3.14,8.45-5.27,8.45,0,0.6-3.45,1.46-4.09,1.53-0.82.09-4.4-.07-4.4-0.87-1.94,0-2-3.5-1.88-5.11a23.91,23.91,0,0,1,1.23-4.52c0.22-.67,1.8-3.59,2.29-3.59,0-1.08,1.63-1.9,1.63-2.94,1.4-.7,1.42-2.84,2.77-3.75,0-1.24,2.29-2.57,2.29-3.76,0.43-.29,1.79-1.74,1.79-2.28a4.31,4.31,0,0,0,1.47-2,12.37,12.37,0,0,0,1.63-3.26c0.86-.57.83-1.55,1.64-2,0-.78,1.14-1,1.14-1.8a4,4,0,0,0,1.47-2,7.35,7.35,0,0,0,1.63-2.29c1.17-1,2-1.77,3.22-2.69a2.32,2.32,0,0,0,.92-0.93c0.46-.75,0-0.48-0.39-1.12-1.13.41-1.83,0.91-2.77,1.14a2.52,2.52,0,0,1-1.47,1c-0.7,1.42-3.33,1.41-4.25,2.77-0.92,0-2.29,1.9-2.94,2.61-0.63,0-2.36,1.85-2.78,2.37-0.63.8-1.57,1.18-2.37,2-1.26,1.36-2.65,2.49-4,3.92-1.25,0-1.69,2.45-2.94,2.45-0.44.55-1.65,2-2.28,2a12.79,12.79,0,0,1-2.94,3.1c0,0.91-2.06,2.27-2.77,2.94,0,0.59-2,2.45-2.45,2.45-0.7.85-1.86,1.24-2.45,2.12-1.74-.07-0.09-2,0.54-2.65,1.62-1.7,2.86-3.85,4.84-5.35,0-1.55,2.83-2.43,3.27-4.08,1.06,0,2.1-2.7,2.94-3.27a8.07,8.07,0,0,1,2.77-3.75c0-1.1,2-1.83,2-2.94,0.67-.33,1.38-1.85,1.63-2.61,0.58-.29,2.29-2.31,2.29-2.94,0.74-.5,3.31-3.65.82-3.4a5.1,5.1,0,0,0-2.77,1.44c-1.68.42-2.9,1.79-4.13,3.1-2.73,2.91-6.85,5.62-9.51,8.65a39.61,39.61,0,0,1-3.26,3.75,37.39,37.39,0,0,0-3.84,3.43c-0.82.66-2.19,2.94-3.26,2.94-0.49.67-1.47,1-1.79,1.63-1,0-1,1.47-2,1.47a7.35,7.35,0,0,1-4.08,2.12c0,0.6-3.17,1-3.91,1l-2.45.1a7.61,7.61,0,0,1-1.47-1.14,5.43,5.43,0,0,1-.16-3.92,8.92,8.92,0,0,1,5.62-7c1.58-.54,1.78.22,3,0.64,0.56-.69.93-0.68,0.18-1.53a1.9,1.9,0,0,0-1.3-.7c-1.62-.45-2.74.18-4.26,0.75a6,6,0,0,1-1.79,1.31c-1,1.14-2.94,2.73-2.94,4.08-0.49,0-.74,2.45-0.83,3.07a5.5,5.5,0,0,0,1,4.1c1.76,2.45,4.16,1.81,6.47,1.81,0.6,0,3.18-.47,3.18-1,1.27,0,2.12-1.14,3.26-1.14,0-.13,1.2-1,1.47-1.31,0.54,0,1.92-1.26,2.29-1.71s2.12-2.21,2.78-2.21a9.68,9.68,0,0,1,2.29-2.45c0-1.35,2.48-1.85,2.94-2.77,1,0,1.87-1.95,2.62-2.45,0.52-2.11,3.37-3.29,4.79-4.84,0.61-.67.8-1.2,1.74-1.2,0,0.84-.2.81-0.82,1.31a7.94,7.94,0,0,1-1.71,2,9.71,9.71,0,0,0-2,3.26,1.71,1.71,0,0,0-1,1.14,4.42,4.42,0,0,0-1.63,2.12,2.69,2.69,0,0,0-1,1.46,4.82,4.82,0,0,0-1.8,2.45c-1.46,1-1.82,2.8-2.94,3.92-0.73.73-1.95,2.91-1.59,4.18,1.31,4.59,8.17-2.83,9.75-4.67,1,0,2.54-2.51,3.31-3.21a31,31,0,0,0,3.38-3.41c0.45-.54,2.27-2.53,2.94-2.53,0.47-.63,2.12-1.43,2.12-2.29a35.9,35.9,0,0,0,3.43-3.26,1.66,1.66,0,0,1,1.47-.49c0,0.88-.5.62-0.5,1.31-0.59,0-2.12,2.49-2.12,2.94-1.33.88-1.49,2.74-2.77,3.59a4.17,4.17,0,0,1-1.14,1.79,4.33,4.33,0,0,1-.82,1.64c-0.58.56-1.8,2.28-1.8,3.1-0.6.3-1.09,1.63-1.3,2.29a3.17,3.17,0,0,0-1.14,1.79c-0.79,0-.63,2.94-1.31,2.94a15,15,0,0,0-.81,5.33c0,0.52.13,3.16,0.5,3.16,0,1.11.81,1.46,1.3,2.45a16.73,16.73,0,0,1,3.1,1.47c0.5,0,3.26.46,3.26,0.17,0.83,0,1.39-.33,2.5-0.33,1.41,0,2.39-.93,3.54-1.3a11.91,11.91,0,0,0,4.65-3.43c0.35-.42,2.65-3.76,2.53-3.76a4.35,4.35,0,0,0-2.57-3.49c-1.48-.79.42-2.27,1.25-1.52s0.6,1.43,2.08,1.43,1.87-.5,3.15-0.82c0.26-.52,3.69-2.67,4.08-1.58,0.31,0.85.62,1.91,1.63,1.91,0,0.55,2.81-.57,3.1-1.14,2,0,3.36-4.41,5.22-4.41,1-1.45,3.09-2.1,4.09-3.35s2.23-.71,1.44.88a6.5,6.5,0,0,1-1.77,2.14c-0.87,1.16-3.89,3.32-2.89,4.81,1.18,1.76,5-2.7,5.83-3.66,1.9-.64,2.78-3.05,5.22-3.1-0.06,1.92-2.45,2.91-2.45,4.57-0.51,0-.81,2.77-0.16,3.1,0,0.85,2.29,1.7,2.29,1.31,0.51,0,3.26-.2,3.26-0.82,1.18,0,1.9-2.29,3.1-2.29a1.62,1.62,0,0,1,1.14-.65l2.29-2.45c0.84,0,1.37-1.8,1.79-1.8C7869.56,4181.39,7871.14,4180.12,7870.81,4178.78Zm-53-20.81c-2.84,5.56-21.2,26.88-21.2,26.88C7800.79,4177.69,7817.84,4158,7817.84,4158Zm-9.24,33.51c2.84-9.83,20.31-30.73,20.31-30.73C7824.71,4167.15,7808.6,4191.48,7808.6,4191.48Zm17.52-12c-3.2,1.84-5.33,9.06-5.33,9.06C7820.09,4182.54,7826.13,4179.52,7826.13,4179.52Zm-1.29,7.81c-1.38,1.61-3.14,1.5-2.63-.91,0.21-1,1.33-1.78,1.33-2.6,1.72-1.14,3.14-4.9,5.71-4.9-0.05.22,0.07,0.32,0.37,0.31a1.18,1.18,0,0,1,.19,1.4,5.56,5.56,0,0,1-.88,1.88C7828.21,4184.64,7826.24,4185.7,7824.84,4187.33Zm2.18-.47c1.89-1.78,3.85-6.45,3.85-6.45C7830,4185.26,7827,4186.86,7827,4186.86Zm10.24,0.42c0.24-4.26,5.8-7.93,5.8-7.93A39.41,39.41,0,0,0,7837.26,4187.28Zm11.07-.35a21.92,21.92,0,0,0,4.79-6C7852.83,4184.08,7848.33,4186.92,7848.33,4186.92Z" transform="translate(-7696.08 -4147.2)"/></svg>