<svg id="nav_overlay" data-name="nav overlay" xmlns="http://www.w3.org/2000/svg" viewBox="0 0 82 26"><defs><style>.cls-1{fill:#636466;}</style></defs><title>logo</title><path class="cls-1" d="M2.15,13.41c0.12,0,.8.68,1.09,0.77S5,14.47,5,14.25a3.21,3.21,0,0,0,1.56-1,4.67,4.67,0,0,0,1.26-1.39,2.88,2.88,0,0,0,.92-1.37c0.32,0,.7-1.6.91-1.6a7.35,7.35,0,0,0,.53-1.67c0.39,0,0-3.54-.08-4,0,0,1.37-.75,1.37-0.53,0.22,0,3.12-.4,3.12-0.15a4.59,4.59,0,0,1,1.37.15c0.45,0,.81.23,1.22,0.23,0,0.2,2.21.49,2.21,0.76a15.71,15.71,0,0,1,2.13.46,4,4,0,0,0,1.52,0C23.61,4.1,24.32,4,24.83,4a6.49,6.49,0,0,1,1.52-.76,6.94,6.94,0,0,0,.9-0.63,1,1,0,0,0,.17-1.11A9.83,9.83,0,0,0,26.35.32c-0.44-.25-1.64-0.3-1.9.23-0.77.39-.12,0.77,0.46,0.46a2,2,0,0,1,1.17,0,0.73,0.73,0,0,1,.44,1.16A5.39,5.39,0,0,1,23,3.44c-0.47,0-3.25-.13-3.25-0.46a4.39,4.39,0,0,1-1.6-.46c-0.77,0-1.35-.46-2.21-0.46a13.7,13.7,0,0,0-2.65-.25,8.48,8.48,0,0,0-2.87.37c-1.2.3-1.57-1.11-2.55-1.11,0-.32-2,0.28-2.21.61C5.1,1.69,4.21,3.37,5,3.37A2.31,2.31,0,0,1,6.72,1.88a2,2,0,0,1,1.19-.14,1.23,1.23,0,0,1,.79.71,6,6,0,0,1-1,.68c-0.53,0-1,.91-1.45.91a8.6,8.6,0,0,1-1,.91A4,4,0,0,0,4.06,6a3.28,3.28,0,0,1-.91,1.14,9.39,9.39,0,0,1-.61,1.22C2.28,8.39,2.1,9.6,1.93,9.6a10.32,10.32,0,0,0-.08,2.17C2,12.38,2.07,12.84,2.15,13.41ZM3.37,8.23A5.12,5.12,0,0,1,3.75,7.7a2.73,2.73,0,0,1,.91-1.07C4.66,6.31,5,6.36,5,6A7.89,7.89,0,0,0,6.19,5c1-.25,1.68-1.52,2.89-1.52,0.62,1.05.3,2.15,0.3,3.43a13,13,0,0,0-.76,2.05c-0.33,0-.79,1.61-1.22,1.83,0,0.52-.91.85-0.91,1.37C6,12.6,5.22,13.55,4.55,13.64a6.78,6.78,0,0,1-1.26-.08,0.56,0.56,0,0,0-.38-0.23,1.13,1.13,0,0,1-.38-1.12,5.53,5.53,0,0,1-.15-1.54A17.12,17.12,0,0,1,3.37,8.23Z"/><path class="cls-1" d="M21.1,14.07c0.09,1.6,2-.34,0,0h0Z"/><path class="cls-1" d="M71.07,12.23c-0.65-.2-1-0.07-0.8.69C70.92,13.11,71.22,13,71.07,12.23Z"/><path class="cls-1" d="M34.11,15.16c-0.24-.17-1,0.45-1.37.3a1.62,1.62,0,0,0-1-.46c0,0.28-1.42.28-.93,1.06,0.15,0.24.42,0.17,0.63,0a0.68,0.68,0,0,1,.69-0.21,0.67,0.67,0,0,0,.61.3C32.74,16.71,35.24,15.45,34.11,15.16Z"/><path class="cls-1" d="M19.32,4.9a5.51,5.51,0,0,0-1.76,0,4.77,4.77,0,0,0-1.71.53,2.28,2.28,0,0,1-.84.46,8.5,8.5,0,0,1-1.29,1.18,5.67,5.67,0,0,1-1.07,1.18,1.26,1.26,0,0,1-.46.69,4.55,4.55,0,0,1-.61,1,1.6,1.6,0,0,1-.53.76,3.9,3.9,0,0,1-1.53,2.21c0,0.2-1.33-.17-1.47.12-0.25.51,0.28,0.41,0.64,0.41,0-.17.44,0.21,0.53,0.31C9.19,14,9,14.07,9,14.32c-0.41.21-.84,1.83-1.22,1.83a7.07,7.07,0,0,1-1.6,1.94,3.32,3.32,0,0,1-1.29,1c0,0.24-.69.21-0.69,0.38-0.3,0-.73.19-1.13,0.18s-0.79-.2-1.3-0.26c0,0-.77-0.62-0.84-0.69a1.09,1.09,0,0,1,.45-1c0.51-.59-0.07-0.29-0.07-0.67C1,17.17.94,17.41,0.56,17.52a1.87,1.87,0,0,0-.17,1.56,1.72,1.72,0,0,0,1.69,1c0,0.52,3.1.1,3.35-.38,1.51-.5,2.31-2.2,3.65-3.19a5.77,5.77,0,0,1,1.29-1.6,1.18,1.18,0,0,1,1.22-1c-0.07.32-1,1.51,0,1.26a3.53,3.53,0,0,0,1.19-1.18c0.3,0,.87-0.45.57-0.84a1.48,1.48,0,0,0-1-.16,4.65,4.65,0,0,0-.47-0.22c0.17-.5.6-0.72,0.76-1.22a2.29,2.29,0,0,1,.68-1c0.15-.58.41-0.69,0.54-1.29a2.53,2.53,0,0,0,.76-1.06,6.35,6.35,0,0,0,.76-1A7.75,7.75,0,0,0,16.69,6a2.13,2.13,0,0,0,.69-0.38c0.24,0,1.83-.31,1.83-0.08C20,5.62,20,5.12,19.32,4.9Zm-6.7,5.53A39.5,39.5,0,0,1,7.9,16.86,27.53,27.53,0,0,0,9.74,14c4.12-7.14,6.37-8.16,6.37-8.16A38.62,38.62,0,0,0,12.61,10.43Z"/><path class="cls-1" d="M7.9,16.86c-0.47.53-.77,0.83-0.77,0.83A4.86,4.86,0,0,0,7.9,16.86Z"/><path class="cls-1" d="M33.28,9.32a1.07,1.07,0,0,0-.85,1.36c0.65,0,1-.82,1.74-0.88,1.24-.1,1,1.47.31,2a20.28,20.28,0,0,1-2,1c-0.4,0-.83.13-1.31,0.17a11.36,11.36,0,0,1-1.36-.09c0-.22-1.9-0.29-1.9-0.61C27,12,28.91,11,27.87,10.75c-0.35-.24-1,0.48-1.21.68a1,1,0,0,1-1.1.4,14.4,14.4,0,0,0-2.94.21c0-.22-1.87,1.49-0.61,1.06,1-.35,2.18-1,3.31-0.62,0.6,0.22-1.05,2.08-1.33,2.29a4.38,4.38,0,0,1-1.22,1.41,13,13,0,0,0-1.29,1.21c-0.42.47-1.44,1.5-2,1.5,0,0.2-1.31.75-1.06-.11s1.1-1.21,1.52-2.09c0.47,0,.48-0.59.31-0.91a1,1,0,0,0-.91.46c-0.57,0-1.18,1.33-1.52,1.67A4.35,4.35,0,0,1,16.23,19c0,0.18-.46.12-0.46,0.3-0.29.06-.39,0.21-0.59,0.05s-0.38-.51,0-0.51a2.8,2.8,0,0,1,.84-1.1,4.41,4.41,0,0,0,.79-1c0.81-1.25-2.47-1.27-2.47-1.21A5.14,5.14,0,0,0,12,17.14a4.26,4.26,0,0,1-.85,1.12,2.09,2.09,0,0,0-.37,1.39,7.77,7.77,0,0,0,.87.62,3.69,3.69,0,0,0,1.26-.17c0.16-.05,1.22-0.69,1.22-0.38,0.32,0,.78.35,1.23,0.35,0.86,0,1.26-.64,2-0.88a2.07,2.07,0,0,0,.94.69,1.47,1.47,0,0,0,1-.16A2.1,2.1,0,0,0,20.57,19a2.54,2.54,0,0,0,1.14-.84c0.42,0.12.19,0.84,0.38,0.84,0,1.22,1.28.94,2.05,0.68a4.89,4.89,0,0,1,1-.61,3.56,3.56,0,0,0,1-1.06,11.3,11.3,0,0,1,.76-0.84c0.13-.19.58-1.3-0.08-1a5.74,5.74,0,0,0-.83.93,2.31,2.31,0,0,1-.84,1,2.26,2.26,0,0,1-1.9,1,1.91,1.91,0,0,1,.23-0.84A4.54,4.54,0,0,0,24.3,17c0.57-.38.69-1.17,1.22-1.52,0-.43.74-1,0.91-1.48,0.34-.93,1-1.15,2-0.81a7.69,7.69,0,0,0,2.13.43c0.63,0,3.3-.1,3.3-0.64a1.79,1.79,0,0,0,1.06-.69c0.37,0,.67-1,0.84-1C36.37,9.52,34.61,8.86,33.28,9.32Zm-19,8.88c0,0.63-1.49,1.14-2,1.22,0-.13-0.56.05-0.29-0.55a3.9,3.9,0,0,0,.67-1c1-.77,1.43-1.67,2.66-1.67,0.34,0.53-.23.64-0.23,1.07C14.71,17.47,14.63,18,14.25,18.2Zm1.6-2a2.62,2.62,0,0,1-1.12,2.1A7.64,7.64,0,0,0,15.85,16.22Zm1.95,2.63c0-1.21,1.93-2.47,1.93-2.47A13.69,13.69,0,0,0,17.8,18.85Zm4.62-.05c0.79-2.87,4.93-7.29,4.93-7.29C26.19,13.55,22.42,18.8,22.42,18.8Z"/><path class="cls-1" d="M81.71,14.86c-0.2-.84-0.84.66-0.95,0.86a7,7,0,0,1-1,1.38,3.63,3.63,0,0,1-1.45,1.18,1.49,1.49,0,0,1-.84.61,6.94,6.94,0,0,1-1.44.76c-0.67,0-.75-0.52-0.35-1a3.39,3.39,0,0,1,.66-1c0-.1.79-1.37,0.69-1.37a1.49,1.49,0,0,0-.31-1.45c-0.62.14-.84,0.48-1.37,0.61-0.16.31-.68,0.32-0.91,0.69-0.63,0-.41-0.47-0.43-1-0.08-2-3.76,1-4.21,1.56-0.5,0-1.17,1-1.6,1.37,0,0.1-.61.43-0.61,0.54-0.25,0-.49.48-0.76,0.08-0.2-.2.15-0.43,0.15-0.61,0.59-.3.83-1.44,1.41-1.9,0.21-.17,1.71-1.76.6-1.71-1,0-2.08,1.79-2.62,2.39A3.15,3.15,0,0,0,65.08,18a1.57,1.57,0,0,0-.76.54c-0.67,0-1.16,1.08-2.05.61a4.42,4.42,0,0,1,1.29-2.51c0-.43,1-0.67.61-1.23s-0.61.13-1-.24c-0.15-.16,0-0.66-0.26-0.66,0-.42-0.7-0.38-1-0.38a15.08,15.08,0,0,0-1.75,1.06c-0.71,0-1.52,1.67-1.9,2.05a2.57,2.57,0,0,0-.15,2.36c0.15,0.54.74,0.34,1,.7s0.1,0.49.5,0.4a1.65,1.65,0,0,1,.82-0.09c2.1,0.64-1.46,3.94-2.46,3.94,0,0.28-1.61.68-1.91,0.71S54,25.27,54,24.9c-0.9,0-1-1.63-.87-2.38a11.19,11.19,0,0,1,.57-2.11,4.82,4.82,0,0,1,1.07-1.67c0-.51.76-0.89,0.76-1.37,0.65-.33.66-1.32,1.29-1.75,0-.58,1.07-1.2,1.07-1.75a2.68,2.68,0,0,0,.83-1.06,2,2,0,0,0,.68-0.91,5.77,5.77,0,0,0,.76-1.52c0.4-.27.39-0.72,0.76-0.91,0-.36.53-0.48,0.53-0.84a1.85,1.85,0,0,0,.69-0.91,3.41,3.41,0,0,0,.76-1.07c0.54-.47.94-0.83,1.5-1.25A1.09,1.09,0,0,0,64.88,5c0.21-.35,0-0.22-0.18-0.52-0.53.19-.85,0.42-1.29,0.53a1.17,1.17,0,0,1-.68.46c-0.33.66-1.55,0.66-2,1.29a3.45,3.45,0,0,0-1.37,1.22A3.88,3.88,0,0,0,58.08,9c-0.3.37-.73,0.55-1.1,1-0.59.63-1.24,1.16-1.86,1.82-0.58,0-.79,1.14-1.37,1.14a2.63,2.63,0,0,1-1.06.91,5.93,5.93,0,0,1-1.37,1.45c0,0.42-1,1.06-1.29,1.37a2.53,2.53,0,0,1-1.14,1.14c-0.33.4-.87,0.58-1.14,1-0.81,0,0-.93.25-1.24a20.14,20.14,0,0,1,2.26-2.49c0-.72,1.32-1.13,1.52-1.9,0.49,0,1-1.26,1.37-1.52a3.77,3.77,0,0,1,1.29-1.75c0-.51.91-0.85,0.91-1.37a2.57,2.57,0,0,0,.76-1.21A3.32,3.32,0,0,0,57.17,6c0.34-.23,1.54-1.7.38-1.58A2.37,2.37,0,0,0,56.25,5a4.29,4.29,0,0,0-1.92,1.45c-1.28,1.36-3.19,2.62-4.43,4a18.47,18.47,0,0,1-1.52,1.75,17.06,17.06,0,0,0-1.79,1.6c-0.38.31-1,1.37-1.52,1.37a8.69,8.69,0,0,0-.83.76c-0.46,0-.45.69-0.92,0.69a3.41,3.41,0,0,1-1.9,1c0,0.28-1.48.47-1.82,0.49l-1.14,0a3.52,3.52,0,0,1-.69-0.53,2.54,2.54,0,0,1-.07-1.83,4.16,4.16,0,0,1,2.62-3.26c0.74-.25.83,0.1,1.41,0.3,0.26-.32.43-0.32,0.08-0.71a0.89,0.89,0,0,0-.61-0.33,2.92,2.92,0,0,0-2,.35,2.78,2.78,0,0,1-.84.61c-0.46.53-1.37,1.27-1.37,1.9-0.23,0-.34,1.14-0.39,1.43A2.57,2.57,0,0,0,37.07,18c0.82,1.14,1.94.84,3,.84a2.65,2.65,0,0,0,1.48-.46c0.59,0,1-.53,1.52-0.53,0-.06.56-0.45,0.69-0.61a2.74,2.74,0,0,0,1.06-.8,3.49,3.49,0,0,1,1.29-1,4.55,4.55,0,0,1,1.07-1.14c0-.63,1.15-0.86,1.37-1.29,0.46,0,.87-0.91,1.22-1.14,0.24-1,1.57-1.54,2.23-2.26a1,1,0,0,1,.81-0.56,0.58,0.58,0,0,1-.38.61,3.73,3.73,0,0,1-.8.91,4.54,4.54,0,0,0-1,1.52,0.8,0.8,0,0,0-.46.53,2.05,2.05,0,0,0-.76,1,1.25,1.25,0,0,0-.46.68,2.25,2.25,0,0,0-.84,1.14c-0.68.45-.85,1.3-1.37,1.83a2.67,2.67,0,0,0-.74,1.95c0.61,2.14,3.81-1.32,4.54-2.18,0.46,0,1.19-1.17,1.54-1.5A14.46,14.46,0,0,0,53.74,14a4.25,4.25,0,0,1,1.37-1.18c0.22-.29,1-0.67,1-1.07a16.68,16.68,0,0,0,1.6-1.52A0.78,0.78,0,0,1,58.38,10a4.73,4.73,0,0,1-.23.61,2.82,2.82,0,0,0-1,1.37c-0.62.41-.7,1.28-1.29,1.68a2,2,0,0,1-.53.84,2,2,0,0,1-.38.76,3.22,3.22,0,0,0-.84,1.44,2.16,2.16,0,0,0-.61,1.07,1.48,1.48,0,0,0-.53.84c-0.37,0-.29,1.37-0.61,1.37A7,7,0,0,0,52,22.44a3.56,3.56,0,0,0,.23,1.47,2.44,2.44,0,0,0,.61,1.14,7.82,7.82,0,0,1,1.44.69,6,6,0,0,0,1.52.08c0.39,0,.65-0.15,1.17-0.15a5,5,0,0,0,1.65-.61,5.58,5.58,0,0,0,2.17-1.6C60.94,23.26,62,21.7,62,21.7a2,2,0,0,0-1.2-1.63c-0.69-.37.2-1.06,0.58-0.71s0.28,0.66,1,.66a4.53,4.53,0,0,0,1.47-.38c0.12-.24,1.72-1.24,1.9-0.74a1,1,0,0,0,.76.89c0,0.26,1.31-.27,1.45-0.53,0.92,0,1.57-2.05,2.43-2.05,0.45-.68,1.44-1,1.9-1.56s1-.33.67,0.41a3,3,0,0,1-.82,1c-0.41.54-1.81,1.55-1.35,2.24s2.32-1.26,2.72-1.71c0.89-.3,1.3-1.42,2.43-1.45,0,0.9-1.14,1.36-1.14,2.13a1.38,1.38,0,0,0-.08,1.44,1.08,1.08,0,0,0,1.07.61c0.24,0,1.52-.09,1.52-0.38,0.55,0,.89-1.07,1.45-1.07a0.75,0.75,0,0,1,.53-0.3l1.07-1.14c0.39,0,.64-0.84.83-0.84C81.13,16.08,81.87,15.49,81.71,14.86ZM57,5.16c-1.33,2.59-9.88,12.53-9.88,12.53C49.07,14.35,57,5.16,57,5.16ZM52.71,20.78C54,16.2,62.18,6.46,62.18,6.46,60.22,9.44,52.71,20.78,52.71,20.78Zm8.17-5.57c-1.49.86-2.48,4.22-2.48,4.22C58.07,16.62,60.88,15.21,60.88,15.21Zm-0.6,3.64c-0.64.75-1.46,0.7-1.23-.43a12.14,12.14,0,0,0,.62-1.21c0.8-.54,1.46-2.28,2.66-2.28,0,0.1,0,.15.17,0.14a0.55,0.55,0,0,1,.09.65,2.59,2.59,0,0,1-.41.88C61.86,17.59,60.94,18.09,60.28,18.85Zm1-.22a11.57,11.57,0,0,0,1.79-3A4.24,4.24,0,0,1,61.3,18.63Zm4.78,0.19c0.11-2,2.7-3.7,2.7-3.7A18.38,18.38,0,0,0,66.07,18.83Zm5.16-.17a10.23,10.23,0,0,0,2.24-2.81C73.33,17.34,71.24,18.66,71.24,18.66Z"/></svg>