<?xml version="1.0" encoding="utf-8"?>
<!-- Generator: Adobe Illustrator 19.2.1, SVG Export Plug-In . SVG Version: 6.00 Build 0)  -->
<svg version="1.1" id="home_layer_copy" xmlns="http://www.w3.org/2000/svg" xmlns:xlink="http://www.w3.org/1999/xlink" x="0px"
	 y="0px" viewBox="0 0 193.7 70.2" style="enable-background:new 0 0 193.7 70.2;" xml:space="preserve">
<style type="text/css">
	.st0{enable-background:new    ;}
	.st1{fill:#9D9FA2;}
	.st2{fill:none;}
	.st3{fill:#26257C;}
</style>
<title>sig+name</title>
<g>
	<g class="st0">
		<path class="st1" d="M8.9,66.4v-9.3h4.2c1.6,0,2.6,1,2.6,2.4c0,1.2-0.8,2-1.6,2.1c1,0.2,1.8,1.2,1.8,2.3c0,1.5-1,2.5-2.7,2.5H8.9z
			 M14.5,59.6c0-0.8-0.6-1.5-1.6-1.5h-2.8v3h2.8C13.9,61.1,14.5,60.5,14.5,59.6z M14.7,63.8c0-0.9-0.6-1.6-1.7-1.6h-2.9v3.2H13
			C14,65.4,14.7,64.8,14.7,63.8z"/>
	</g>
	<g class="st0">
		<path class="st1" d="M20.6,66.4v-9.3h6.1v1h-5v3h4.9v1h-4.9v3.2h5v1H20.6z"/>
	</g>
	<g class="st0">
		<path class="st1" d="M38,66.4L32.6,59v7.5h-1.2v-9.3h1.2l5.4,7.3v-7.3h1.2v9.3H38z"/>
		<path class="st1" d="M42.9,61.8c0-2.8,1.9-4.8,4.6-4.8c2.8,0,4.7,2.1,4.7,4.8c0,2.8-1.9,4.8-4.7,4.8
			C44.8,66.6,42.9,64.5,42.9,61.8z M51,61.8c0-2.2-1.4-3.8-3.4-3.8c-2.1,0-3.4,1.6-3.4,3.8c0,2.2,1.3,3.8,3.4,3.8
			C49.7,65.6,51,63.9,51,61.8z"/>
	</g>
	<g class="st0">
		<path class="st1" d="M57.7,66.4v-9.3h1.2v9.3H57.7z"/>
	</g>
	<g class="st0">
		<path class="st1" d="M66.1,66.4v-8.3h-3v-1h7.1v1h-3v8.3H66.1z"/>
	</g>
	<g class="st0">
		<path class="st1" d="M83.3,66.4v-8.3h-3v-1h7.1v1h-3v8.3H83.3z"/>
	</g>
	<g class="st0">
		<path class="st1" d="M90.9,61.8c0-2.8,1.9-4.8,4.6-4.8c2.8,0,4.7,2.1,4.7,4.8c0,2.8-1.9,4.8-4.7,4.8
			C92.8,66.6,90.9,64.5,90.9,61.8z M99,61.8c0-2.2-1.4-3.8-3.4-3.8c-2.1,0-3.4,1.6-3.4,3.8c0,2.2,1.3,3.8,3.4,3.8
			C97.6,65.6,99,63.9,99,61.8z"/>
	</g>
	<g class="st0">
		<path class="st1" d="M104.7,62.8v-5.7h1.2v5.7c0,1.7,0.9,2.8,2.6,2.8s2.6-1.1,2.6-2.8v-5.7h1.2v5.7c0,2.3-1.3,3.8-3.8,3.8
			C106,66.6,104.7,65.1,104.7,62.8z"/>
	</g>
	<g class="st0">
		<path class="st1" d="M117,61.8c0-2.8,1.9-4.8,4.6-4.8c2.8,0,4.7,2.1,4.7,4.8c0,1.4-0.5,2.6-1.3,3.5l0.9,0.9l-0.8,0.7l-0.9-1
			c-0.7,0.4-1.6,0.7-2.5,0.7C118.9,66.6,117,64.5,117,61.8z M123.4,65.1l-1.3-1.4l0.8-0.7l1.3,1.4c0.5-0.7,0.9-1.6,0.9-2.6
			c0-2.2-1.4-3.8-3.4-3.8c-2.1,0-3.4,1.6-3.4,3.8c0,2.2,1.3,3.8,3.4,3.8C122.3,65.6,122.9,65.4,123.4,65.1z"/>
	</g>
	<g class="st0">
		<path class="st1" d="M130.9,62.8v-5.7h1.2v5.7c0,1.7,0.9,2.8,2.6,2.8c1.7,0,2.6-1.1,2.6-2.8v-5.7h1.2v5.7c0,2.3-1.3,3.8-3.8,3.8
			C132.2,66.6,130.9,65.1,130.9,62.8z"/>
		<path class="st1" d="M142.7,66.4v-9.3h6.1v1h-5v3h4.9v1h-4.9v3.2h5v1H142.7z"/>
	</g>
	<g class="st0">
		<path class="st1" d="M156.8,66.4v-8.3h-3v-1h7.1v1h-3v8.3H156.8z"/>
	</g>
	<g class="st0">
		<path class="st1" d="M167.8,66.4v-8.3h-3v-1h7.1v1h-3v8.3H167.8z"/>
	</g>
	<g class="st0">
		<path class="st1" d="M176.2,66.4v-9.3h6.1v1h-5v3h4.9v1h-4.9v3.2h5v1H176.2z"/>
	</g>
	<g>
		<path class="st2" d="M118.2,8.5L118,8.4c0.1-0.2,0.1-0.5,0.2-0.7c0.4-0.7,0.7-1.5,1-2.2c0.2-0.4,0.3-0.8,0.3-1.2
			c0-0.3-0.1-0.5-0.4-0.5c-0.1,0-0.1,0-0.2,0c-0.3,0-0.7,0.2-0.9,0.4c-0.6,0.5-1.2,1.1-1.6,1.8c-0.8,1-1.4,2.2-2.1,3.2
			c-1.5,2.1-2.8,4.4-4,6.7c-0.6,1.1-1.2,2.3-1.8,3.4c-0.2,0.7-0.9,1.1-1.6,0.9c-0.1,0-0.1,0-0.2-0.1c-1.3-0.3-2.6-0.6-3.9-0.9
			c-3-0.6-6-1.4-9.1-1.8c-4.1-0.6-8.3-0.9-12.5-0.8c-0.8,0-1.5,0.1-2.3,0.1c-2.5,0.1-5,0.2-7.5,0.3c-2.3,0.2-4.6,0.6-6.8,1.2
			c-0.7,0.2-1.4,0.4-2.1,0.7c-0.3,0.1-0.5,0.4-0.4,0.7c0.1,0.2,0.2,0.4,0.4,0.4c0.4,0.1,0.7,0.2,1.1,0.3l3.6,0.6l-0.2,1.1
			c-0.5,0.2-1,0.4-1.4,0.6c-0.8,0.4-1.6,1-2.4,1.5c-2,1.6-3.8,3.2-4.5,5.8c-1.1,0.2-2.3,0-3.3-0.6c-4.2-2.6-8.2-5.5-12.6-7.7
			c-1-0.5-1.8-1.1-2.8-1.6c-1.9-0.8-3.7-1.9-5.3-3.2c-0.3-0.2-0.6-0.4-0.9-0.5c-0.3-0.1-0.8-0.2-0.9,0.3c0,0.3,0.1,0.6,0.2,0.8
			c0.3,0.3,0.6,0.6,1,0.8c0.5,0.4,1,0.8,1.4,1.3c1.7,2.1,2.9,4.5,3.7,7c0.2,0.7,0.3,1.4,0.5,2c0.1,0.2,0.3,0.3,0.5,0.4
			c0.2-1.4,0-2.9-0.6-4.2c-0.5-1.1-0.9-2.1-1.4-3.2c-0.1-0.3-0.1-0.5-0.1-0.8c1,0.5,1.9,0.9,2.8,1.3c1.9,1,3.8,2,5.6,3.2
			c1.6,1.1,3.3,2,5,3c0.9,0.5,1.7,1.1,2.6,1.8c-0.2,0.1-0.5,0.2-0.7,0.2c-3.6,0.3-7.3,0.5-10.9,0.8C37.3,32,31.8,32.4,26.3,33
			c-3.2,0.3-6.4,0.8-9.6,1.2c-3.7,0.4-7.4,1.2-10.9,2.4c-1,0.4-2,0.9-3,1.4c-0.7,0.4-1.2,1.1-1.9,1.5c-0.7,0.4-0.9,1.3-0.6,2.1
			c0.2,0.6,0.6,1.1,1,1.6c1.8,1.6,3.9,2.8,6.2,3.6c1.6,0.5,3.2,1,4.8,1.5c0.2,0,0.4,0.1,0.6,0.2c1.4,0.6,2.9,1.1,4.4,1.4
			c1.2,0.3,2.5,0.5,3.6,0.9c3.1,0.9,6.3,1.6,9.5,2.1c2.9,0.5,5.8,1,8.7,1.4c2.7,0.4,5.4,0.6,8.1,0.9c1.8,0.2,3.6,0.3,5.4,0.4
			c1.9,0.1,3.9,0.2,5.8,0.1s3.8-0.3,5.6-0.5c2.4-0.2,4.8-0.9,7-2c0.6-0.3,1.1-0.7,1.6-1.1c1.4-1.2,1.9-3.1,1.3-4.8
			c-0.3-0.9-0.6-1.8-1.1-2.6c-1.1-1.8-2.4-3.4-3.9-4.8c-1-1-2.1-1.9-3.2-2.8c-1.4-1.1-2.8-2.2-4.3-3.3c-0.8-0.6-1.6-1.2-2.5-1.9
			c0.2-0.1,0.3-0.1,0.5-0.2l6.5-0.5c4.6-0.4,9.3-0.7,13.9-1.1c0.5-0.1,1,0,1.4,0.2c-0.4,0.6-0.8,1.1-1.1,1.6
			c-2.3,2.9-4.6,5.7-6.9,8.5c-0.6,0.6-0.8,1.4-0.8,2.2c0.8,0.5,1.1,0.6,1.8-0.1s1.5-1.5,2.2-2.4c1.5-1.9,3.1-3.8,4.6-5.7
			c0.8-1,1.4-2.1,2.1-3.1c0.2-0.4,0.6-0.6,1-0.4c0,0,0,0,0.1,0c1.2,0.4,2.5,0.2,3.4-0.6l1.2-0.8c1.6,0.6,1.6,0.6,3,0
			c0.2-0.1,0.5-0.2,0.7-0.3c0.7-0.3,1.5-0.2,2.1,0.2c0.7,0.5,1.6,0.7,2.5,0.5c0.4-0.1,0.9,0,1.2,0.2c0.7,0.5,1.7,0.5,2.5,0
			c0.6-0.3,1.1-0.6,1.6-1.1c0.5-0.4,1.1-0.6,1.8-0.6c1.7-0.1,3.4-0.2,5.1-0.4c2.1-0.2,4.2-0.3,6.3-0.2c0.8,0,1.5-0.1,2.3-0.2
			l2.3-0.3c0.6-0.1,1.2,0.2,1.3,0.8c0.3,0.7,0.8,1.2,1.4,1.7c0.6,0.5,1.4,0.7,2.2,0.3c0.4-0.1,0.6-0.5,0.5-0.9c0,0,0-0.1,0-0.1
			c-0.1-0.3-0.2-0.6-0.4-1c-0.3-0.8-0.2-1,0.6-1.1s1.8-0.1,2.7-0.2c2.2-0.2,4.5-0.4,6.7-0.5s4.5-0.2,6.7-0.3c0.7,0,1.4-0.1,2.1-0.1
			c1.6-0.1,3.2-0.3,4.8-0.4c2.3-0.1,4.5-0.2,6.8-0.3c0.9,0,1.8,0,2.7-0.1c1.8-0.1,3.7-0.3,5.5-0.4c2-0.1,4-0.2,6-0.3l0.4-0.1
			c-0.4-0.1-0.8-0.2-1.2-0.1c-3.1,0.1-6.3,0.2-9.4,0.3c-2,0.1-4,0.2-6,0.2l-6.6,0.3l-7,0.3c-2.1,0.1-4.1,0.2-6.2,0.3
			c-0.7,0-1.5,0-2.2,0c-2.5,0.1-4.9,0.3-7.3,0.4c-0.6,0-1.1-0.1-1.6-0.4c-0.7-0.4-0.8-0.6-0.4-1.4c0.2-0.4,0.5-0.8,0.8-1.2
			c0.3-0.3,0.6-0.6,0.8-1c0.4-0.7,1.1-1.1,1.9-1c2.8,0,5.6-0.1,8.4-0.2c4.6-0.1,9.3-0.2,13.9-0.3c2.7-0.1,5.3-0.2,8-0.3
			s5.4-0.2,8.1-0.3c3.8-0.1,7.7-0.2,11.5-0.3c0.7,0,1.5,0,2.2,0c1.5-0.1,3.1-0.2,4.6-0.2c3.7,0,7.4,0,11.1,0
			c-0.3-0.2-0.7-0.4-1.1-0.4c-1.7-0.1-3.4-0.2-5.1-0.3c-0.8,0-1.5,0-2.3,0c-5.4-0.1-10.8-0.1-16.3,0.1c-3.7,0.2-7.4,0.2-11.1,0.3
			l-11.4,0.2c-4,0.1-8.1,0.2-12.1,0.3c-2.6,0-5.3,0-7.9,0c-0.3,0-0.6-0.1-0.9-0.2l0.4-1c0.3-0.9,0.7-1.8,1-2.6
			c0.3-0.7,0.3-1.6-0.1-2.3l-0.3-0.2c-1.3-0.7-1.9-0.5-2.5,0.8c-0.8,1.6-1.5,3.2-2.3,4.8c-0.2,0.5-0.7,0.9-1.3,0.9c-1,0-2,0.1-3,0.1
			c-0.4,0.1-0.9-0.1-1.2-0.4c0.3-0.4,0.5-0.8,0.8-1.1c1.5-2.1,2.8-4.3,4-6.6c1.5-2.9,2.6-5.9,4.2-8.7c0.3-0.6,0.6-1.3,0.8-2
			c0.2-0.4,0.1-0.9-0.3-1.1c-0.4-0.3-1-0.2-1.3,0.1c-0.3,0.3-0.6,0.6-0.9,0.9c-1.2,1.5-2.3,3-3.5,4.5C119.5,6.6,118.9,7.6,118.2,8.5
			z M173.7,24.3L173.7,24.3h-1.5l0,0H173.7z"/>
	</g>
	<g>
		<path class="st3" d="M118.2,8.5c0.6-0.9,1.3-1.9,2-2.8c1.1-1.5,2.3-3,3.5-4.5c0.3-0.3,0.6-0.6,0.9-0.9c0.4-0.3,0.9-0.4,1.3-0.1
			c0.4,0.3,0.5,0.8,0.3,1.1c-0.2,0.7-0.5,1.4-0.8,2c-1.6,2.8-2.8,5.8-4.2,8.7c-1.2,2.3-2.5,4.5-4,6.6c-0.2,0.4-0.5,0.7-0.8,1.1
			c0.3,0.3,0.8,0.4,1.2,0.4c1,0,2-0.1,3-0.1c0.6,0,1.1-0.3,1.3-0.9c0.7-1.6,1.5-3.2,2.3-4.8c0.6-1.3,1.2-1.5,2.5-0.8l0.3,0.2
			c0.4,0.7,0.4,1.6,0.1,2.3c-0.3,0.9-0.7,1.8-1,2.6l-0.4,1c0.3,0.1,0.6,0.1,0.9,0.2c2.6,0,5.3,0,7.9,0c4-0.1,8.1-0.2,12.1-0.3
			l11.4-0.2c3.7-0.1,7.4-0.1,11.1-0.3c5.4-0.3,10.8-0.2,16.3-0.1c0.8,0,1.5,0,2.3,0c1.7,0.1,3.4,0.2,5.1,0.3c0.4,0,0.8,0.2,1.1,0.4
			c-3.7,0-7.4,0-11.1,0c-1.5,0-3.1,0.1-4.6,0.2c-0.7,0-1.5,0-2.2,0c-3.8,0.1-7.7,0.2-11.5,0.3c-2.7,0.1-5.4,0.2-8.1,0.3
			s-5.3,0.2-8,0.3c-4.6,0.1-9.3,0.2-13.9,0.3c-2.8,0.1-5.6,0.1-8.4,0.2c-0.8-0.1-1.5,0.3-1.9,1c-0.3,0.4-0.5,0.7-0.8,1
			c-0.3,0.4-0.6,0.8-0.8,1.2c-0.4,0.7-0.3,0.9,0.4,1.4c0.5,0.3,1,0.5,1.6,0.4c2.4-0.2,4.9-0.3,7.3-0.4c0.7,0,1.5,0,2.2,0
			c2.1-0.1,4.1-0.2,6.2-0.3l7-0.3l6.6-0.3c2-0.1,4-0.2,6-0.2c3.1-0.1,6.3-0.2,9.4-0.3c0.4-0.1,0.8,0,1.2,0.1l-0.4,0.1
			c-2,0.1-4,0.2-6,0.3c-1.8,0.1-3.7,0.3-5.5,0.4c-0.9,0.1-1.8,0-2.7,0.1c-2.3,0.1-4.5,0.2-6.8,0.3c-1.6,0.1-3.2,0.3-4.8,0.4
			c-0.7,0.1-1.4,0.1-2.1,0.1c-2.2,0.1-4.5,0.2-6.7,0.3s-4.5,0.3-6.7,0.5c-0.9,0.1-1.8,0.1-2.7,0.2s-0.9,0.3-0.6,1.1
			c0.1,0.3,0.3,0.6,0.4,1c0.2,0.4,0,0.8-0.3,1c0,0-0.1,0-0.1,0c-0.7,0.3-1.6,0.2-2.2-0.3c-0.6-0.4-1.1-1-1.4-1.7
			c-0.1-0.6-0.7-0.9-1.3-0.8l-2.3,0.3c-0.8,0.2-1.5,0.2-2.3,0.2c-2.1-0.1-4.2,0-6.3,0.2c-1.7,0.1-3.4,0.3-5.1,0.4
			c-0.6,0-1.3,0.2-1.8,0.6c-0.5,0.4-1,0.8-1.6,1.1c-0.7,0.5-1.7,0.5-2.5,0c-0.4-0.2-0.8-0.3-1.2-0.2c-0.9,0.2-1.8,0-2.5-0.5
			c-0.6-0.4-1.4-0.5-2.1-0.2c-0.2,0.1-0.5,0.2-0.7,0.3c-1.5,0.6-1.5,0.6-3,0l-1.2,0.8c-0.9,0.8-2.2,1-3.4,0.6c-0.4-0.2-0.8,0-1,0.3
			c0,0,0,0,0,0.1c-0.7,1-1.3,2.1-2.1,3.1c-1.5,1.9-3,3.8-4.6,5.7c-0.7,0.8-1.4,1.6-2.2,2.4s-0.9,0.6-1.8,0.1c0-0.8,0.3-1.6,0.8-2.2
			c2.3-2.8,4.6-5.7,6.9-8.5c0.4-0.5,0.7-1,1.1-1.6c-0.4-0.2-0.9-0.3-1.4-0.2c-4.6,0.3-9.3,0.7-13.9,1.1l-6.5,0.5
			c-0.2,0-0.4,0.1-0.5,0.2c0.9,0.7,1.8,1.3,2.5,1.9c1.4,1.1,2.9,2.2,4.3,3.3c1.1,0.9,2.1,1.9,3.2,2.8c1.5,1.4,2.8,3,3.9,4.8
			c0.5,0.8,0.9,1.7,1.1,2.6c0.6,1.7,0,3.6-1.3,4.8c-0.5,0.5-1,0.8-1.6,1.1c-2.2,1.1-4.6,1.8-7,2c-1.9,0.1-3.8,0.4-5.6,0.5
			s-3.9,0-5.8-0.1s-3.6-0.2-5.4-0.4c-2.7-0.3-5.4-0.5-8.1-0.9c-2.9-0.4-5.8-0.9-8.7-1.4c-3.2-0.5-6.4-1.2-9.5-2.1
			c-1.2-0.4-2.4-0.6-3.6-0.9c-1.5-0.3-3-0.7-4.4-1.4c-0.2-0.1-0.4-0.1-0.6-0.2c-1.6-0.5-3.2-0.9-4.8-1.5c-2.3-0.7-4.4-2-6.2-3.6
			c-0.5-0.4-0.8-1-1-1.6C0,40.9,0.2,40,0.9,39.6c0.7-0.4,1.2-1.1,1.9-1.5c1-0.6,2-1,3-1.4c3.5-1.2,7.2-2,10.9-2.4
			c3.2-0.4,6.4-0.9,9.6-1.2c5.5-0.5,11-1,16.6-1.4c3.6-0.3,7.3-0.6,10.9-0.8c0.2,0,0.5-0.1,0.7-0.2c-1-0.7-1.8-1.3-2.6-1.8
			c-1.6-1-3.4-1.9-5-3c-1.8-1.2-3.6-2.3-5.6-3.2c-0.9-0.4-1.8-0.8-2.8-1.3c0,0.3,0.1,0.5,0.1,0.8c0.5,1.1,0.9,2.1,1.4,3.2
			c0.6,1.3,0.8,2.7,0.6,4.2c-0.2-0.1-0.4-0.3-0.5-0.4c-0.2-0.7-0.3-1.3-0.5-2c-0.8-2.5-2.1-4.9-3.7-7c-0.4-0.5-0.9-0.9-1.4-1.3
			c-0.4-0.3-0.7-0.5-1-0.8c-0.2-0.2-0.3-0.5-0.2-0.8c0.1-0.4,0.6-0.3,0.9-0.3c0.3,0.1,0.6,0.3,0.9,0.5c1.6,1.3,3.4,2.4,5.3,3.2
			c1,0.4,1.8,1.1,2.8,1.6c4.4,2.2,8.4,5.1,12.6,7.7c1,0.6,2.2,0.9,3.3,0.6c0.7-2.6,2.5-4.3,4.5-5.8c0.8-0.6,1.6-1.1,2.4-1.5
			c0.5-0.2,0.9-0.5,1.4-0.6l0.2-1.1l-3.6-0.6c-0.4-0.1-0.8-0.2-1.1-0.3c-0.3-0.1-0.5-0.4-0.4-0.7c0.1-0.2,0.2-0.4,0.4-0.4
			c0.7-0.3,1.4-0.5,2.1-0.7c2.2-0.6,4.5-1,6.8-1.2c2.5-0.1,5-0.2,7.5-0.3c0.8,0,1.5-0.1,2.3-0.1c4.2-0.1,8.4,0.2,12.5,0.8
			c3,0.5,6.1,1.2,9.1,1.8c1.3,0.3,2.6,0.6,3.9,0.9c0.7,0.3,1.4,0,1.7-0.7c0,0,0-0.1,0.1-0.2c0.6-1.1,1.2-2.3,1.8-3.4
			c1.2-2.3,2.5-4.6,4-6.7c0.8-1.1,1.4-2.2,2.1-3.2c0.5-0.6,1-1.2,1.6-1.8c0.3-0.2,0.6-0.4,0.9-0.4c0.2-0.1,0.5,0.1,0.6,0.3
			c0,0.1,0,0.1,0,0.2c-0.1,0.4-0.2,0.8-0.3,1.2c-0.3,0.8-0.7,1.5-1,2.2c-0.1,0.2-0.2,0.4-0.2,0.7L118.2,8.5z M56,54.4
			c2.9,0.1,5.8-0.1,8.6-0.6c2.5-0.3,4.8-1.2,6.9-2.7c0.3-0.2,0.6-0.5,0.8-0.8c0.7-1.2,0.7-2.6,0.1-3.8c-1.2-2.6-3-4.9-5.2-6.7
			c-3.1-2.7-6.3-5.2-9.8-7.4c-0.7-0.5-1.5-0.7-2.3-0.6c-1.5,0.1-3,0.3-4.5,0.4c-2.1,0.1-4.3,0.2-6.4,0.4c-2.4,0.2-4.8,0.5-7.2,0.7
			c-5.5,0.5-11,1-16.5,1.6c-4.1,0.4-8.1,1.1-12,2.1c-1.7,0.3-3.4,1-4.9,1.9c-0.5,0.3-0.9,0.7-1.3,1c-1,0.7-1,1-0.4,2
			c0.2,0.3,0.4,0.6,0.6,0.8c1.3,0.9,2.6,1.7,4,2.4c2.3,0.9,4.6,1.5,7,2.3l0.7,0.2c0.8,0.3,1.6,0.6,2.4,0.8c2.2,0.6,4.3,1.1,6.5,1.6
			c1.8,0.4,3.6,1.1,5.5,1.4c5.1,0.8,10.1,1.7,15.3,2.3C47.9,54.1,51.9,54.4,56,54.4z M65.7,19.4v0.2l1.9,0.1c0.6,0.1,1.2,0,1.7-0.4
			c0.3-0.1,0.7-0.1,1,0c0.5,0.1,1,0.5,1.5,0.6c0.8,0.1,1.5,0.2,2.3,0.2c2.8,0,5.7,0,8.5,0c3.1,0.1,6.2-0.1,9.3,0
			c2.2,0.1,4.4,0,6.6,0.1c0.4,0,0.9,0,1.3,0c0.5,0.1,1,0,1.4-0.1c-0.1-0.1-0.2-0.2-0.4-0.3c-1-0.2-2-0.5-3-0.7
			c-2.6-0.4-5.3-0.8-7.9-1.1c-2.3-0.2-4.5-0.3-6.8-0.3c-3.6,0-7.2,0.2-10.8,0.5c-2,0.1-4,0.4-6,0.9C66,19.2,65.8,19.3,65.7,19.4
			L65.7,19.4z M125.1,1.2c-0.1,0.1-0.3,0.2-0.4,0.2c-0.9,0.8-1.7,1.8-2.3,2.9c-1.1,1.9-2.4,3.8-3.5,5.7c-1.4,2.7-2.5,5.5-3.5,8.3
			c0,0.2,0,0.5,0,0.7c0.2-0.1,0.4-0.2,0.5-0.3c3.5-5.1,6.5-10.5,8.9-16.2c0.1-0.3,0.3-0.7,0.4-1.1C125.2,1.4,125.1,1.3,125.1,1.2
			L125.1,1.2z M85.4,22.6c-1.7,1.2-3.6,1.7-4.8,3.2c0.1,0,0.3,0,0.4,0c0.8-0.5,1.7-0.7,2.6-0.7c0.2,0,0.4-0.1,0.6-0.2
			c1.3-0.7,2.5-1.6,3.5-2.6c0.1-0.2,0.2-0.5,0.2-0.7c-0.6-0.1-1.1-0.2-1.6-0.2c-1.6,0-3.2,0-4.8,0c-0.5,0-1.1,0-1.7,0
			c-0.1,1-0.6,1.9-1.4,2.6c-0.3,0.3-0.6,0.7-0.8,1c-0.4,0.5-0.7,1-0.8,1.6c0.8,0.3,1.7,0.2,2.4-0.3c-0.1-0.9,0.3-1.7,1.1-2.1
			c1.3-0.9,2.8-1.5,4.4-1.9C84.9,22.5,85.2,22.5,85.4,22.6L85.4,22.6z M85.1,28.3h2.2c0.9,0,1.7-0.5,2.2-1.2c1-1.2,2-2.4,2.9-3.6
			c0.5-0.6,0.9-1.3,1.1-2.1h-2.5c-0.4,0-0.8,0.2-1.1,0.6c-1,1.2-2,2.5-2.9,3.8C86.4,26.6,85.8,27.4,85.1,28.3L85.1,28.3z
			 M100.4,27.4c0.9,0.2,1.9,0,2.7-0.5c1.1-1,2.3-2.1,3.3-3.2c0.5-0.5,0.8-1.2,0.8-1.9c-1.8-0.3-3.7-0.3-5.5,0.1
			c1.1,0.8,1.2,1.1,0.5,2.3c-0.4,0.7-0.8,1.3-1.2,2L100.4,27.4z M68.9,29.5c0.4,0,0.8,0,1.1,0l7.6-0.5c1.5-0.1,3-0.2,4.5-0.3
			c1-0.2,1.8-1.1,1.9-2.1c-0.8,0.4-1.7,0.7-2.5,0.8c-1.1,0-2.2,0.3-3.2,0.8c-0.7,0.3-1.5,0.2-2.1-0.2c-0.3-0.2-0.6-0.4-0.9-0.6
			c-0.4,0.2-0.7,0.5-1.1,0.7c-1.3,0.8-2.5,1.5-4.1,0.8C69.4,28.6,69.2,29,68.9,29.5L68.9,29.5z M71.1,27.5l0.2,0.3
			c0.4-0.1,0.9-0.3,1.3-0.4c2.7-1.2,4.3-3.4,6-5.9l-2.8,0.1c-0.8,1.2-1.4,2.3-2.2,3.2S72,26.6,71.1,27.5L71.1,27.5z M65.2,29.1
			c0.6,0.3,1.3,0.2,1.9-0.2c0.8-0.4,1.5-0.9,2.2-1.5c0.1-0.2,0.2-0.4,0.2-0.6c0.2-1,0.7-1.9,1.4-2.6c0.5-0.7,1.1-1.3,1.7-1.9
			c0.1-0.3,0.2-0.5,0.3-0.8h-1.8C69.7,24.4,67.5,26.7,65.2,29.1L65.2,29.1z M121.1,21.5c-0.2-0.1-0.3-0.1-0.5-0.2
			c-1.7,0.1-3.4,0.1-5.1,0.2c-0.5,0-0.9,0.3-1,0.8l3.9,1.5c0.4,0.2,0.9,0.3,1.3,0.4c0.4,0.2,0.8,0.1,1-0.3c0.1-0.1,0.1-0.2,0.1-0.3
			 M112.4,22.8c-0.9-0.3-1.6-0.6-2.4-0.8c-0.3,0-0.6,0-0.8,0.2c-0.9,0.8-1.5,1.8-1.8,2.9c-0.2,0.5,0,1,0.4,1.3
			c0.4,0.2,0.9,0.1,1.2-0.2c1-0.9,2-1.7,3-2.6C112.1,23.4,112.3,23.1,112.4,22.8L112.4,22.8z M101.1,21.7c-0.7-0.1-1.2-0.1-1.7-0.1
			c-0.4-0.1-0.7,0.1-0.8,0.4c-0.7,1.4-1.5,2.7-2.5,3.8c-0.4,0.5-0.7,1.2-0.7,1.9c0.5,0,0.9,0,1.3,0c0.5,0.1,1-0.2,1.2-0.8
			c0.5-1.1,1.1-2.1,1.6-3.2C99.7,22.9,100.3,22.2,101.1,21.7L101.1,21.7z M97.2,21.8c-1-0.4-1.6-0.4-2,0.1c-1.3,1.6-2.5,3.3-3.8,4.9
			c-0.3,0.3-0.5,0.7-0.5,1.1c1.3,0,2.5-0.6,3.1-1.7C95,24.7,96,23.2,97.2,21.8L97.2,21.8z M117.1,7.6c-1.5,1.8-2.9,3.7-4.1,5.8
			c-1.3,2.1-2.4,4.2-3.3,6.4c1.4-1.2,1.7-1.6,6.2-9.3C116.4,9.6,116.9,8.7,117.1,7.6L117.1,7.6z M116,12.1c-0.9,1.4-1.6,2.7-2.4,4
			s-1.6,2.5-2.5,3.8c2,0.5,2.3,0.4,2.8-1.3c0-0.1,0.1-0.2,0.1-0.4c0.5-1.5,1.1-3,1.6-4.4C116,13.4,116.1,12.8,116,12.1L116,12.1z
			 M119.2,25.3c-1.5-0.7-3-1.3-4.6-1.8c-0.2,0-0.5,0.1-0.7,0.2c0.1,0.6,0.2,1.1,0.4,1.6c0.2,0.4,0.6,0.8,1,1
			C116.7,26.7,118.2,26.3,119.2,25.3L119.2,25.3z M123.1,19.8c0.6,0.3,1.4-0.1,1.6-0.7c0,0,0,0,0-0.1c0.4-0.8,0.8-1.5,1.1-2.3
			c0.3-0.6,0.5-1.3,0.7-1.9c0-0.2-0.1-0.5-0.2-0.6c-0.2-0.1-0.5,0-0.7,0.1c-1.3,1.6-2.1,3.4-2.6,5.3C123,19.7,123,19.8,123.1,19.8
			L123.1,19.8z M64.1,28.3c0.9-0.5,1.6-1.3,2.2-2.1c0.7-0.7,1.4-1.5,2-2.3c0.6-0.8,1-1.6,1.4-2.5c-0.8-0.3-1.6,0-2,0.8c0,0,0,0,0,0
			l0.9,0.2C66.2,23.6,65.1,25.7,64.1,28.3L64.1,28.3z M60.1,29.9c0.7,0.2,1.4,0.2,2-0.1c0.5-0.1,0.8-0.5,0.7-1
			c0-0.9,0.3-1.8,0.7-2.6c0.1-0.2,0.1-0.4,0.1-0.6C62.3,27,60.8,28.1,60.1,29.9L60.1,29.9z M113.3,26.5c-0.2-0.7-0.5-1.4-1-1.9
			c-0.4,0.9-1.3,1.3-1.7,2.2C111.5,26.9,112.5,26.8,113.3,26.5L113.3,26.5z M101.3,23.3c-1.5,1.5-1.7,1.8-1.6,2.9
			C100.5,25.4,101.1,24.4,101.3,23.3L101.3,23.3z M105.9,25.7l-1.2,1.5c0.6,0.2,1.3,0.1,1.8-0.3L105.9,25.7z M73.6,22.7
			c-0.4,0.5-1.2,0.8-1.2,1.8C73.1,24.1,73.6,23.4,73.6,22.7L73.6,22.7z M122.8,27.5c0,0.9,0.1,1,0.9,0.9
			C123.5,28.1,123.5,27.5,122.8,27.5L122.8,27.5z M99.8,29v-0.3L99,28.9v0.2L99.8,29z"/>
	</g>
	<g>
		<path d="M173.7,24.2h-1.5l0,0H173.7L173.7,24.2z"/>
	</g>
	<g>
		<path class="st2" d="M65.7,19.4c0.2-0.1,0.3-0.2,0.5-0.3c2-0.5,4-0.8,6-0.9c3.6-0.4,7.2-0.6,10.8-0.5c2.3,0,4.6,0.1,6.8,0.3
			c2.6,0.3,5.3,0.7,7.9,1.1c1,0.2,2,0.4,3,0.7c0.1,0.1,0.3,0.2,0.4,0.3c-0.5,0.1-1,0.2-1.4,0.1c-0.4,0-0.9,0-1.3,0
			c-2.2,0-4.4,0-6.6-0.1c-3.1-0.1-6.2,0.1-9.3,0c-2.8-0.1-5.7,0-8.5,0c-0.8,0-1.5,0-2.3-0.2c-0.5-0.1-1-0.4-1.5-0.6
			c-0.3-0.1-0.7-0.1-1,0c-0.5,0.4-1.1,0.5-1.7,0.4l-1.9-0.1L65.7,19.4z"/>
	</g>
	<g>
		<path class="st2" d="M85.4,22.6c-0.2,0-0.5-0.1-0.8-0.1c-1.5,0.4-3,1-4.4,1.9c-0.8,0.4-1.3,1.2-1.1,2.1c-0.7,0.5-1.6,0.6-2.4,0.3
			c0.1-0.6,0.4-1.2,0.8-1.6c0.3-0.3,0.5-0.7,0.8-1c0.8-0.7,1.2-1.6,1.4-2.6c0.6,0,1.1,0,1.7,0c1.6,0,3.2,0,4.8,0
			c0.5,0,1,0.1,1.6,0.2c0,0.3-0.1,0.5-0.2,0.7c-1,1-2.2,1.9-3.5,2.6c-0.2,0.1-0.4,0.2-0.6,0.2c-0.9,0-1.8,0.2-2.6,0.7
			c-0.1,0-0.3,0-0.4,0C81.8,24.2,83.7,23.8,85.4,22.6z"/>
	</g>
	<g>
		<path class="st2" d="M85.1,28.4c0.7-1,1.2-1.8,1.8-2.5c1-1.3,2-2.5,2.9-3.8c0.2-0.4,0.6-0.6,1.1-0.6h2.5c-0.2,0.8-0.6,1.5-1.1,2.1
			c-0.9,1.2-1.9,2.4-2.9,3.6c-0.5,0.7-1.3,1.1-2.2,1.2L85.1,28.4L85.1,28.4z"/>
	</g>
	<g>
		<path class="st2" d="M100.4,27.4l0.7-1.2c0.4-0.7,0.8-1.3,1.2-2c0.6-1.3,0.6-1.5-0.5-2.3c1.8-0.4,3.7-0.4,5.5-0.1
			c0,0.7-0.3,1.4-0.8,1.9c-1.1,1.1-2.2,2.2-3.3,3.2C102.3,27.5,101.3,27.7,100.4,27.4z"/>
	</g>
	<g>
		<path class="st2" d="M68.9,29.5c0.3-0.5,0.5-0.9,1.1-0.7c1.6,0.6,2.9,0,4.1-0.8c0.4-0.2,0.7-0.5,1.1-0.7c0.4,0.2,0.6,0.4,0.9,0.6
			c0.6,0.4,1.4,0.5,2.1,0.2c1-0.5,2.1-0.7,3.2-0.8c0.9-0.1,1.7-0.4,2.5-0.8c0,1.1-0.8,2-1.9,2.1c-1.5,0.1-3,0.2-4.5,0.3L70,29.5
			C69.7,29.5,69.3,29.5,68.9,29.5z"/>
	</g>
	<g>
		<path class="st2" d="M71.1,27.5c0.9-0.9,1.8-1.7,2.5-2.6s1.4-2,2.2-3.2l2.8-0.1c-1.7,2.4-3.3,4.7-6,5.9c-0.4,0.2-0.9,0.3-1.3,0.4
			L71.1,27.5z"/>
	</g>
	<g>
		<path class="st2" d="M65.2,29.1c2.2-2.4,4.5-4.7,5.9-7.6h1.8c-0.1,0.3-0.2,0.6-0.3,0.8c-0.5,0.7-1.1,1.3-1.7,1.9
			c-0.7,0.7-1.2,1.6-1.4,2.6c0,0.2-0.1,0.4-0.2,0.6c-0.7,0.5-1.5,1-2.2,1.5C66.5,29.3,65.8,29.4,65.2,29.1z"/>
	</g>
	<g>
		<path class="st2" d="M101.1,21.8c-0.8,0.5-1.4,1.2-1.7,2.1c-0.5,1.1-1.1,2.1-1.6,3.2c-0.2,0.5-0.7,0.8-1.2,0.8c-0.4,0-0.8,0-1.3,0
			c0-0.7,0.3-1.3,0.7-1.9c1-1.2,1.9-2.4,2.5-3.8c0.1-0.3,0.5-0.5,0.8-0.4C99.9,21.6,100.4,21.7,101.1,21.8z"/>
	</g>
	<g>
		<path class="st2" d="M97.2,21.9c-1.2,1.4-2.2,2.9-3.1,4.5c-0.7,1.1-1.9,1.7-3.1,1.7c0-0.4,0.2-0.8,0.5-1.1
			c1.2-1.7,2.5-3.3,3.8-4.9C95.7,21.5,96.2,21.4,97.2,21.9z"/>
	</g>
	<g>
		<path class="st2" d="M113.4,26.5c-0.9,0.3-1.8,0.4-2.7,0.2c0.4-0.9,1.3-1.3,1.7-2.2C112.8,25.2,113.2,25.8,113.4,26.5z"/>
	</g>
</g>
</svg>
