<svg id="home_layer_copy" data-name="home layer copy" xmlns="http://www.w3.org/2000/svg" viewBox="0 0 195 57"><defs><style>.cls-1{fill:#2e50c1;}</style></defs><title>signature</title><path class="cls-1" d="M118.89,9.2c0.65-.94,1.27-1.9,1.95-2.81,1.13-1.52,2.29-3,3.45-4.5a7.5,7.5,0,0,1,.9-0.92,1.12,1.12,0,0,1,1.33-.09A0.85,0.85,0,0,1,126.77,2a10,10,0,0,1-.79,2c-1.63,2.79-2.78,5.8-4.25,8.67a49.72,49.72,0,0,1-4,6.64c-0.25.34-.48,0.71-0.76,1.12a1.48,1.48,0,0,0,1.2.35c1,0,2-.12,3-0.13a1.26,1.26,0,0,0,1.27-.87c0.71-1.61,1.5-3.18,2.26-4.77,0.64-1.33,1.21-1.51,2.51-.79l0.27,0.17a2.77,2.77,0,0,1,.08,2.31c-0.3.89-.67,1.76-1,2.64l-0.41,1a5.27,5.27,0,0,0,.92.18c2.63,0,5.26,0,7.88,0,4-.06,8.09-0.19,12.14-0.27l11.35-.21c3.7-.08,7.4-0.09,11.1-0.27,5.42-.27,10.84-0.2,16.26-0.14,0.77,0,1.55,0,2.32,0q2.58,0.11,5.15.27a2.09,2.09,0,0,1,1.07.39c-3.7,0-7.41,0-11.11,0-1.54,0-3.09.15-4.63,0.22-0.73,0-1.46,0-2.19,0-3.83.09-7.66,0.18-11.48,0.29-2.71.08-5.42,0.18-8.12,0.27s-5.33.2-8,.26c-4.65.1-9.29,0.18-13.94,0.27-2.79.05-5.57,0.15-8.36,0.16a2,2,0,0,0-1.93,1,10.1,10.1,0,0,1-.82,1,7.38,7.38,0,0,0-.79,1.17c-0.36.73-.26,0.92,0.42,1.36a2.43,2.43,0,0,0,1.57.44c2.44-.17,4.89-0.3,7.33-0.42,0.73,0,1.47,0,2.2,0,2.06-.09,4.12-0.21,6.18-0.29,2.32-.1,4.64-0.17,7-0.26l6.57-.26c2-.08,4-0.18,6.05-0.25,3.14-.1,6.27-0.17,9.41-0.26a2.58,2.58,0,0,1,1.19.11l-0.44,0c-2,.11-4,0.2-6,0.34-1.83.12-3.66,0.31-5.49,0.44-0.9.06-1.81,0-2.71,0.06-2.28.09-4.55,0.17-6.83,0.3-1.59.09-3.17,0.27-4.75,0.4-0.69.05-1.37,0.08-2.06,0.11-2.24.1-4.47,0.16-6.7,0.29s-4.46.32-6.69,0.48c-0.9.07-1.8,0.1-2.7,0.2s-0.92.27-.6,1.09c0.12,0.32.27,0.63,0.37,1a0.72,0.72,0,0,1-.46,1,2,2,0,0,1-2.17-.33,4.43,4.43,0,0,1-1.36-1.68,1.09,1.09,0,0,0-1.3-.79l-2.3.28a11.47,11.47,0,0,1-2.29.23,41.64,41.64,0,0,0-6.31.17c-1.72.1-3.43,0.26-5.15,0.35a2.83,2.83,0,0,0-1.77.65,10.35,10.35,0,0,1-1.62,1.05,2.25,2.25,0,0,1-2.45,0,1.6,1.6,0,0,0-1.23-.18,3.07,3.07,0,0,1-2.47-.48A2.31,2.31,0,0,0,93.21,30a6,6,0,0,0-.72.28c-1.46.59-1.46,0.59-3,0L88.22,31a3.33,3.33,0,0,1-3.39.59,0.77,0.77,0,0,0-1.07.4c-0.68,1-1.33,2.12-2.09,3.1-1.49,1.94-3,3.83-4.59,5.72-0.68.82-1.4,1.61-2.16,2.36s-0.94.63-1.78,0.1A3.1,3.1,0,0,1,74,41.1q3.46-4.25,6.89-8.53c0.4-.5.73-1,1.15-1.63a2,2,0,0,0-1.42-.2c-4.63.34-9.26,0.7-13.9,1.06l-6.55.49a3.32,3.32,0,0,0-.52.16c0.93,0.68,1.75,1.27,2.55,1.88,1.43,1.1,2.87,2.19,4.27,3.34,1.09,0.9,2.14,1.85,3.18,2.81a23.91,23.91,0,0,1,3.87,4.8,10.74,10.74,0,0,1,1.13,2.59,4.6,4.6,0,0,1-1.33,4.84,5.55,5.55,0,0,1-1.56,1.12,19.79,19.79,0,0,1-7,2c-1.88.13-3.76,0.39-5.64,0.45s-3.87,0-5.81-.1-3.61-.2-5.41-0.38c-2.69-.27-5.39-0.54-8.07-0.92-2.89-.4-5.78-0.88-8.66-1.4a68.22,68.22,0,0,1-9.54-2.11c-1.18-.39-2.42-0.59-3.64-0.87a20.43,20.43,0,0,1-4.41-1.36A4.12,4.12,0,0,0,12.9,49C11.3,48.47,9.68,48,8.1,47.49a17,17,0,0,1-6.22-3.57A4.46,4.46,0,0,1,.83,42.35a1.61,1.61,0,0,1,.56-2.07c0.7-.44,1.16-1.14,1.86-1.53a21.42,21.42,0,0,1,3-1.45,50,50,0,0,1,10.93-2.43c3.2-.42,6.4-0.86,9.61-1.17,5.52-.53,11.05-1,16.58-1.44,3.64-.3,7.29-0.56,10.93-0.84a4.71,4.71,0,0,0,.69-0.2c-1-.66-1.79-1.26-2.64-1.78-1.65-1-3.36-1.93-5-3a47.28,47.28,0,0,0-5.56-3.24C40.94,22.76,40,22.35,39,21.86a3.93,3.93,0,0,0,.13.79c0.45,1.07.92,2.12,1.4,3.18A7.73,7.73,0,0,1,41.1,30a1.55,1.55,0,0,1-.54-0.44c-0.19-.66-0.28-1.34-0.47-2a21.78,21.78,0,0,0-3.73-7,8.85,8.85,0,0,0-1.43-1.27,8,8,0,0,1-1-.84,1,1,0,0,1-.24-0.79c0.12-.44.58-0.33,0.88-0.26a2.4,2.4,0,0,1,.89.49A23.18,23.18,0,0,0,40.78,21c1,0.43,1.83,1.11,2.79,1.59C48,24.86,52,27.75,56.21,30.32a4.5,4.5,0,0,0,3.29.63c0.67-2.6,2.5-4.27,4.46-5.83a20.43,20.43,0,0,1,2.38-1.52,15.15,15.15,0,0,1,1.43-.65l0.16-1.15-3.64-.65a4.54,4.54,0,0,1-1.12-.3,0.8,0.8,0,0,1-.42-0.58,0.8,0.8,0,0,1,.44-0.57A16.2,16.2,0,0,1,65.26,19a35.31,35.31,0,0,1,6.85-1.16c2.49-.15,5-0.22,7.48-0.33,0.77,0,1.54-.12,2.32-0.14a71.3,71.3,0,0,1,12.48.78c3.05,0.48,6.07,1.2,9.1,1.83,1.3,0.27,2.6.6,3.9,0.87a1.31,1.31,0,0,0,1.78-.83c0.63-1.12,1.23-2.26,1.81-3.42a51.61,51.61,0,0,1,4-6.74c0.75-1.05,1.39-2.18,2.15-3.22a13.49,13.49,0,0,1,1.65-1.79,1.9,1.9,0,0,1,.93-0.4,0.46,0.46,0,0,1,.57.52A4.45,4.45,0,0,1,120,6.21c-0.32.75-.71,1.47-1.05,2.21a6.69,6.69,0,0,0-.24.68ZM56.66,55.1a39.14,39.14,0,0,0,8.61-.56,15.53,15.53,0,0,0,6.89-2.68A3.3,3.3,0,0,0,72.92,51,3.81,3.81,0,0,0,73,47.22a20.16,20.16,0,0,0-5.24-6.73A77.65,77.65,0,0,0,58,33.13a3.34,3.34,0,0,0-2.3-.55c-1.5.15-3,.27-4.5,0.37-2.14.15-4.29,0.23-6.43,0.41-2.4.2-4.79,0.49-7.18,0.72-5.52.53-11,1-16.55,1.58A73.67,73.67,0,0,0,9,37.81a14.25,14.25,0,0,0-4.87,1.92c-0.45.33-.88,0.68-1.33,1-1,.7-1,1-0.36,2a2.56,2.56,0,0,0,.65.78,25.69,25.69,0,0,0,4,2.35c2.26,0.9,4.64,1.53,7,2.27l0.73,0.24c0.81,0.28,1.6.61,2.43,0.82,2.16,0.55,4.34,1.06,6.51,1.57,1.83,0.42,3.58,1.06,5.46,1.35,5.09,0.76,10.15,1.7,15.27,2.3A115.66,115.66,0,0,0,56.66,55.1Zm9.67-35,0,0.19,1.87,0.15a2,2,0,0,0,1.7-.37,1.22,1.22,0,0,1,1,0c0.52,0.15,1,.5,1.51.59a13.44,13.44,0,0,0,2.31.17c2.84,0,5.68,0,8.52,0,3.09,0.07,6.17-.12,9.26,0,2.19,0.09,4.38,0,6.58.06,0.43,0,.86,0,1.29,0a3.35,3.35,0,0,0,1.43-.08,1.7,1.7,0,0,0-.39-0.28c-1-.23-2-0.5-3-0.66-2.63-.4-5.26-0.84-7.91-1.11-2.26-.23-4.55-0.3-6.83-0.34A96.88,96.88,0,0,0,72.81,19a30.67,30.67,0,0,0-6,.9A2.88,2.88,0,0,0,66.33,20.13ZM125.74,1.91a4.28,4.28,0,0,0-.41.25A10.22,10.22,0,0,0,123,5.07c-1.14,1.92-2.42,3.76-3.51,5.7A59.31,59.31,0,0,0,116,19.09a2.44,2.44,0,0,0,0,.71,1.93,1.93,0,0,0,.52-0.32,96.77,96.77,0,0,0,8.93-16.22,10.78,10.78,0,0,0,.39-1.07A0.71,0.71,0,0,0,125.74,1.91ZM86.09,23.3c-1.71,1.2-3.64,1.68-4.82,3.25a0.92,0.92,0,0,0,.38,0,5,5,0,0,1,2.56-.68,1.51,1.51,0,0,0,.58-0.25,15.34,15.34,0,0,0,3.51-2.57,1.8,1.8,0,0,0,.21-0.72c-0.6-.07-1.1-0.17-1.59-0.17-1.59,0-3.18,0-4.76,0-0.55,0-1.1,0-1.7,0a4.41,4.41,0,0,1-1.39,2.64,10.67,10.67,0,0,0-.82,1,3.32,3.32,0,0,0-.76,1.64,2.5,2.5,0,0,0,2.39-.26A2,2,0,0,1,81,25.12a14.85,14.85,0,0,1,4.35-1.88A2.94,2.94,0,0,1,86.09,23.3ZM85.78,29H88a2.75,2.75,0,0,0,2.19-1.17c1-1.2,2-2.38,2.87-3.63a4.56,4.56,0,0,0,1.1-2.06H91.6a1.31,1.31,0,0,0-1.08.59c-1,1.25-2,2.49-2.92,3.75C87,27.28,86.5,28,85.78,29ZM101,28.15a3.25,3.25,0,0,0,2.67-.54c1.14-1,2.26-2.11,3.33-3.23a2.88,2.88,0,0,0,.84-1.91,15.56,15.56,0,0,0-5.49.09c1.11,0.84,1.17,1.07.53,2.33-0.35.69-.77,1.34-1.16,2ZM69.55,30.22c0.44,0,.78,0,1.11,0l7.58-.53c1.5-.1,3-0.17,4.5-0.31a2.29,2.29,0,0,0,1.87-2.15,8,8,0,0,1-2.54.79,8.16,8.16,0,0,0-3.19.76,2.46,2.46,0,0,1-2.11-.2c-0.29-.17-0.57-0.35-0.93-0.58-0.36.25-.7,0.5-1.06,0.72-1.26.8-2.55,1.45-4.11,0.81C70.1,29.3,69.83,29.68,69.55,30.22Zm2.22-2L72,28.51a13,13,0,0,0,1.29-.41c2.71-1.16,4.32-3.45,6-5.9l-2.84.13c-0.79,1.18-1.4,2.26-2.17,3.22S72.62,27.32,71.77,28.2Zm-5.89,1.64a1.86,1.86,0,0,0,1.86-.23A23.8,23.8,0,0,0,70,28.14a0.9,0.9,0,0,0,.24-0.59A5,5,0,0,1,71.62,25c0.54-.66,1.13-1.27,1.66-1.94a3.12,3.12,0,0,0,.31-0.83H71.76C70.35,25.12,68.13,27.4,65.88,29.84Zm55.92-7.62a1.83,1.83,0,0,0-.49-0.18c-1.71.05-3.42,0.1-5.14,0.18a1,1,0,0,0-1,.82l3.92,1.48c0.44,0.16.89,0.32,1.34,0.45a0.76,0.76,0,0,0,1.13-.64m-8.53-.8c-0.87-.28-1.63-0.57-2.41-0.76a1.05,1.05,0,0,0-.81.22A5.76,5.76,0,0,0,108,25.91a1.07,1.07,0,0,0,.37,1.27,0.9,0.9,0,0,0,1.16-.22q1.53-1.27,3-2.61A3.2,3.2,0,0,0,113,23.53Zm-11.29-1.08c-0.71-.06-1.22-0.12-1.73-0.14a0.77,0.77,0,0,0-.84.45,16.5,16.5,0,0,1-2.53,3.84A3,3,0,0,0,96,28.47c0.47,0,.89,0,1.31,0a1.11,1.11,0,0,0,1.19-.75c0.5-1.08,1.08-2.13,1.62-3.2A4.07,4.07,0,0,1,101.74,22.45Zm-3.87.1c-1-.4-1.56-0.37-2,0.14Q94,25.13,92.17,27.6a1.49,1.49,0,0,0-.52,1.1A3.55,3.55,0,0,0,94.8,27,25.12,25.12,0,0,1,97.88,22.55Zm19.89-14.2a37.7,37.7,0,0,0-4.1,5.75,48.07,48.07,0,0,0-3.33,6.42c1.44-1.21,1.68-1.55,6.17-9.3A8.06,8.06,0,0,0,117.77,8.35Zm-1.07,4.51c-0.94,1.38-1.63,2.74-2.41,4s-1.64,2.54-2.49,3.84c2,0.52,2.31.35,2.79-1.31,0-.12.1-0.24,0.14-0.36,0.55-1.48,1.13-3,1.65-4.45A2.34,2.34,0,0,0,116.7,12.86ZM119.91,26a26.48,26.48,0,0,0-4.61-1.75,1.92,1.92,0,0,0-.69.17,6.9,6.9,0,0,0,.36,1.64,1.9,1.9,0,0,0,1,1A4.5,4.5,0,0,0,119.91,26Zm3.84-5.46a1.24,1.24,0,0,0,1.64-.75c0.37-.77.75-1.54,1.07-2.33a15.29,15.29,0,0,0,.66-1.94,0.68,0.68,0,0,0-.24-0.61,0.73,0.73,0,0,0-.66.15,13,13,0,0,0-2.57,5.34A0.41,0.41,0,0,0,123.75,20.54ZM64.82,29a7.75,7.75,0,0,0,2.24-2.1c0.73-.72,1.38-1.52,2-2.3a14.32,14.32,0,0,0,1.43-2.49,1.5,1.5,0,0,0-2,.79l0.94,0.25C66.85,24.29,65.71,26.4,64.82,29Zm-4,1.64a2.93,2.93,0,0,0,2-.09,0.94,0.94,0,0,0,.71-1,6.17,6.17,0,0,1,.7-2.58,1.9,1.9,0,0,0,.07-0.58C63,27.69,61.49,28.8,60.87,30.65ZM114,27.25a4.73,4.73,0,0,0-1-1.93c-0.43.87-1.27,1.28-1.7,2.18A6.26,6.26,0,0,0,114,27.25ZM102,24c-1.55,1.5-1.74,1.84-1.62,2.94A5.76,5.76,0,0,0,102,24Zm4.59,2.41-1.23,1.48a2,2,0,0,0,1.76-.29Zm-32.26-3c-0.43.5-1.2,0.76-1.22,1.76A2.35,2.35,0,0,0,74.37,23.38Zm49.23,4.8c0,0.86.14,1,.85,0.93C124.2,28.76,124.2,28.23,123.6,28.18Zm-23,1.54,0-.29-0.81.12,0,0.24Z"/></svg>