<?xml version="1.0" standalone="no"?>
<!DOCTYPE svg PUBLIC "-//W3C//DTD SVG 1.1//EN" "http://www.w3.org/Graphics/SVG/1.1/DTD/svg11.dtd" >
<svg xmlns="http://www.w3.org/2000/svg">
<metadata></metadata>
<defs>
<font id="novaresebook" horiz-adv-x="1024" >
<font-face units-per-em="2048" ascent="1638" descent="-410" />
<missing-glyph horiz-adv-x="512" />
<glyph horiz-adv-x="2048" />
<glyph horiz-adv-x="2048" />
<glyph unicode="&#xd;" horiz-adv-x="512" />
<glyph unicode=" "  horiz-adv-x="512" />
<glyph unicode="&#x09;" horiz-adv-x="512" />
<glyph unicode="&#xa0;" horiz-adv-x="512" />
<glyph unicode="!" horiz-adv-x="684" d="M250 59q0 39 26.5 66t65.5 27t65.5 -27t26.5 -66t-26.5 -65.5t-65.5 -26.5t-65.5 26.5t-26.5 65.5zM260 1298h164l-49 -958h-62z" />
<glyph unicode="&#x22;" horiz-adv-x="684" d="M141 1237q0 61 62 61q61 0 61 -61q0 -6 -10 -88l-21 -164q-4 -35 -30 -35q-27 0 -31 35l-20 164q-10 82 -11 88zM420 1237q0 61 61 61t62 -61q0 -6 -11 -88l-20 -164q-4 -35 -31 -35q-26 0 -30 35l-21 164q-10 82 -10 88z" />
<glyph unicode="#" d="M10 410v92h234l45 295h-213v92h227l64 409h102l-63 -409h284l64 409h102l-63 -409h219v-92h-234l-45 -295h213v-92h-227l-64 -410h-102l63 410h-284l-64 -410h-102l63 410h-219zM346 502h285l45 295h-285z" />
<glyph unicode="$" d="M94 958q0 162 103 261q92 90 256 112v164h92v-164q166 0 319 -57l8 -291h-36q-20 143 -90 210t-207 67q-133 0 -228 -68q-104 -78 -104 -209q0 -100 88 -162q82 -55 262 -94q199 -41 274 -102q98 -78 99 -244q0 -170 -108.5 -281.5t-276.5 -132.5v-184h-92v184 q-195 0 -336 92q-4 115 -15 340h33q27 -186 101 -268q82 -92 258 -92q135 0 229 90t94 225q0 113 -67 166q-76 57 -301 105q-354 74 -355 333z" />
<glyph unicode="%" horiz-adv-x="1478" d="M57 1024q0 129 91.5 218t222.5 89q150 0 243 -86t93 -221q0 -129 -91.5 -217t-222.5 -88q-150 0 -243 85t-93 220zM160 1042q0 -100 67.5 -181t165.5 -81q88 0 146 58q66 61 65 168q0 102 -66.5 183t-166.5 81q-88 0 -146 -58q-65 -61 -65 -170zM352 0l715 1331l59 -33 l-714 -1331zM772 272q0 129 91 218.5t222 89.5q150 0 243 -86t93 -222q0 -129 -91 -217t-222 -88q-150 0 -243 85t-93 220zM874 291q0 -100 68 -181t166 -81q88 0 145 57q66 61 66 168q0 102 -66.5 183t-167.5 81q-88 0 -145 -57q-66 -61 -66 -170z" />
<glyph unicode="&#x26;" horiz-adv-x="1366" d="M125 367q0 145 90 237t234 109v4q-113 49 -162 108q-61 72 -62 187q0 147 125 237q111 82 266 82q180 0 285 -61q4 -88 29 -256h-33q-59 236 -274 235q-123 0 -199 -64.5t-76 -172.5q0 -82 60 -158q66 -84 163 -102q121 -23 121 -45q0 -27 -98 -27q-135 0 -238 -84 q-109 -90 -108 -227q0 -137 112 -232q104 -88 246 -88q168 0 268 113q98 106 95 276h-99q-63 0 -110 -22q-57 -29 -64 -80h-32q0 195 231 194h168q113 0 158 17q57 18 77 78h33q0 -66 -43 -115q-61 -72 -196 -72q-4 -213 -135.5 -342t-350.5 -129q-199 0 -332 99 q-150 111 -149 301z" />
<glyph unicode="'" horiz-adv-x="454" d="M166 1237q0 61 61 61t62 -61q0 -6 -10 -88l-21 -164q-4 -35 -31 -35q-26 0 -30 35l-21 164q-10 82 -10 88z" />
<glyph unicode="(" horiz-adv-x="684" d="M178 477q0 303 39 451q68 248 277 403l12 -20q-131 -125 -170 -361q-25 -141 -25 -473q0 -326 25 -465q39 -223 170 -366l-12 -21q-205 129 -277 424q-39 162 -39 428z" />
<glyph unicode=")" horiz-adv-x="684" d="M178 -354q131 123 170 358q25 143 25 473q0 326 -25 465q-39 224 -170 369l12 20q205 -131 277 -426q39 -162 39 -428q0 -303 -39 -450q-68 -246 -277 -402z" />
<glyph unicode="*" d="M219 1090l53 92l207 -127l-26 243h116l-20 -247l203 137l51 -80l-223 -115l225 -102l-47 -88l-211 125l22 -246h-116l26 246l-203 -131l-47 84l217 108z" />
<glyph unicode="+" horiz-adv-x="1228" d="M96 467v102h467v467h103v-467h467v-102h-467v-467h-103v467h-467z" />
<glyph unicode="," horiz-adv-x="512" d="M176 -223q49 78 49 188q0 68 -18 156h131q0 -137 -27 -217q-30 -91 -108 -152z" />
<glyph unicode="-" horiz-adv-x="684" d="M86 365q33 125 47 198h301q106 0 135 86h29q-20 -65 -55 -198h-287q-63 0 -92 -13q-39 -18 -55 -73h-23z" />
<glyph unicode="." horiz-adv-x="512" d="M180 45q0 76 76 76q33 0 55.5 -21.5t22.5 -54.5t-22.5 -55.5t-55.5 -22.5t-54.5 22.5t-21.5 55.5z" />
<glyph unicode="/" horiz-adv-x="569" d="M-37 -33l559 1397l84 -33l-559 -1397z" />
<glyph unicode="0" d="M86 649q0 264 90 449q115 233 336 233q195 0 315 -209q111 -195 111 -487q0 -242 -84 -422q-113 -246 -342 -246q-188 0 -307 185.5t-119 496.5zM229 580q0 -260 82 -406q78 -135 201 -135q283 0 283 608q0 272 -80 442.5t-203 170.5q-285 0 -283 -680z" />
<glyph unicode="1" d="M328 1225v32q102 25 266 95q-6 -190 -6 -191v-1022q0 -119 119 -119v-32q-111 12 -168 12q-68 0 -207 -12v32q123 0 123 117v981q0 106 -127 107z" />
<glyph unicode="2" d="M152 0v123q297 242 421 407q152 201 152 408q0 135 -55 221q-68 100 -197 101q-106 0 -182 -89q-61 -70 -80 -161l-41 -11l43 283q115 49 244 49q176 0 293.5 -100.5t117.5 -274.5q0 -217 -206 -467q-106 -129 -377 -366h606l-21 -123h-718z" />
<glyph unicode="3" d="M166 997l39 277q131 57 258 57q154 0 262 -69q129 -82 129 -228q0 -250 -362 -352v-4q156 -4 260 -62q131 -74 131 -217q0 -217 -250 -336q-199 -96 -443 -96l-14 62q182 0 359 98q205 115 204 276q0 127 -143 183q-100 41 -248 41q-35 0 -35 32q0 27 33 33 q147 29 246 111q119 100 119 244q0 92 -70 152.5t-164 60.5q-115 0 -182 -78q-43 -51 -94 -185h-35z" />
<glyph unicode="4" d="M88 309v115q133 227 229 371q168 252 269 385l90 118h86v-897h174v-92h-174v-309h-133v309h-541zM180 401h449v678h-4q-268 -354 -445 -678z" />
<glyph unicode="5" d="M176 762q3 241 21 536h647l-17 -122h-532q-14 -164 -12 -295q86 37 200 37q168 0 278.5 -98.5t110.5 -264.5q0 -248 -219 -408q-170 -123 -446 -180l-12 62q205 37 358 168q176 145 176 333q0 127 -85 211t-212 84q-129 0 -235 -71z" />
<glyph unicode="6" d="M63 473q0 276 218 533q188 221 460 346l43 -52q-387 -240 -508 -526l5 -4q115 102 270 102q180 0 295 -123.5t115 -302.5q0 -205 -117 -337q-125 -141 -330 -142q-209 0 -334 152q-117 141 -117 354zM207 428q0 -156 78 -264q88 -125 237 -125q145 0 226 129 q70 111 69 264q0 147 -78 252q-84 117 -225 117t-227 -119q-80 -109 -80 -254z" />
<glyph unicode="7" d="M152 1001q23 133 32 297h777q-199 -379 -287 -630q-109 -305 -146 -668h-143q37 524 424 1176h-442q-74 0 -110.5 -35.5t-63.5 -139.5h-41z" />
<glyph unicode="8" d="M90 342q0 260 309 391v4q-123 82 -166 129q-70 76 -69 178q0 129 104 209q98 78 248 78q145 0 241.5 -85t96.5 -197q0 -199 -229 -295v-4q156 -111 209 -168q100 -111 100 -240q0 -170 -129 -276q-123 -98 -297 -99q-172 0 -291 101q-127 106 -127 274zM223 348 q0 -135 81 -227t216 -92q117 0 199 84t82 202q0 125 -109 226q-35 31 -213 147q-256 -109 -256 -340zM297 1071q0 -90 86 -168q16 -16 160 -115q178 92 178 265q0 94 -60.5 155.5t-154.5 61.5q-88 0 -148.5 -55.5t-60.5 -143.5z" />
<glyph unicode="9" d="M84 897q0 193 131 317q125 117 303 117q201 0 316 -151q106 -137 106 -355q0 -287 -182 -534q-170 -233 -434 -344l-23 53q342 186 457 555l-4 4q-115 -113 -262 -113q-170 0 -289 125t-119 326zM227 866q0 -141 74 -235q80 -102 209 -103q129 0 211 107q76 102 76 256 q0 156 -68 256q-80 113 -229 113q-137 0 -211 -125q-61 -109 -62 -269z" />
<glyph unicode=":" horiz-adv-x="512" d="M180 45q0 76 76 76q33 0 55.5 -21.5t22.5 -54.5t-22.5 -55.5t-55.5 -22.5t-54.5 22.5t-21.5 55.5zM180 643q0 33 22.5 54.5t55.5 21.5q31 0 53.5 -21.5t22.5 -54.5t-22.5 -55.5t-53.5 -22.5q-33 0 -55.5 22.5t-22.5 55.5z" />
<glyph unicode=";" horiz-adv-x="512" d="M176 -223q49 78 49 188q0 68 -18 156h131q0 -137 -27 -217q-30 -91 -108 -152zM180 643q0 76 76 76q33 0 55.5 -21.5t22.5 -54.5t-22.5 -55.5t-55.5 -22.5t-54.5 22.5t-21.5 55.5z" />
<glyph unicode="&#x3c;" horiz-adv-x="1228" d="M96 463v110l1037 480v-113l-912 -422l912 -422v-112z" />
<glyph unicode="=" horiz-adv-x="1228" d="M96 268v103h1037v-103h-1037zM96 666v102h1037v-102h-1037z" />
<glyph unicode="&#x3e;" horiz-adv-x="1228" d="M96 -16v112l912 422l-912 422v113l1037 -480v-110z" />
<glyph unicode="?" horiz-adv-x="909" d="M115 1006q12 84 24 254q127 72 273 71q164 0 286.5 -104.5t122.5 -263.5q0 -176 -84 -275q-51 -59 -164 -110q-102 -47 -118 -78q-21 -39 -21 -148h-51q6 51 0 144q-4 68 -12 137q162 2 250 92q78 82 77 217q0 131 -76.5 219t-205.5 88q-197 0 -256 -243h-45zM326 59 q0 39 26.5 66t65.5 27t65.5 -27t26.5 -66t-26.5 -65.5t-65.5 -26.5t-65.5 26.5t-26.5 65.5z" />
<glyph unicode="@" horiz-adv-x="1638" d="M137 618q0 319 201 516t520 197q270 0 455 -160q188 -166 188 -423q0 -225 -117 -355q-100 -113 -243 -112q-170 0 -183 137h-6q-94 -137 -225 -137q-72 0 -127 53q-68 66 -68 190q0 162 99 305q115 170 297 170q61 0 96 -34q16 -18 47 -74l21 82h131l-107 -434 q-25 -100 -24 -142q0 -55 84 -55q104 0 180 104q84 113 84 299q0 193 -150 349q-170 176 -432 176q-258 0 -418 -172q-170 -182 -170 -500q0 -225 162 -391q176 -178 445 -178q178 0 387 94l30 -47q-197 -109 -415 -109q-360 0 -564 211q-178 182 -178 440zM666 518 q0 -164 137 -164q70 0 143 111q84 129 103 326q0 127 -95 127q-90 0 -182 -105q-106 -121 -106 -295z" />
<glyph unicode="A" horiz-adv-x="1251" d="M-18 -12v32q92 12 168 209l284 736q80 207 80 262q0 51 -88 51v33q82 -12 143 -13q51 0 121 13q29 -94 86 -238l371 -936q39 -96 123 -117v-32q-106 12 -160 12q-59 0 -182 -12v32q90 18 90 82q0 39 -64 199q-78 195 -80 199h-524q-37 -86 -80 -209q-49 -147 -49 -191 q0 -70 90 -80v-32q-86 12 -131 12q-67 0 -198 -12zM381 582h459l-234 606z" />
<glyph unicode="B" horiz-adv-x="1251" d="M125 1266v32h582q172 0 274 -75q113 -82 113 -236q0 -238 -256 -280v-5q348 -51 348 -321q0 -188 -152 -289q-139 -92 -368 -92h-525v33q95 0 95 76v1071q0 86 -111 86zM369 82h178q215 0 330 41q176 63 176 233q0 295 -416 295h-268v-569zM369 733h282q309 0 310 248 q0 236 -330 236h-262v-484z" />
<glyph unicode="C" horiz-adv-x="1251" d="M88 672q0 264 188.5 461.5t446.5 197.5q211 0 383 -78q-3 -38 -3 -76q0 -108 21 -225h-51q-41 154 -82 199q-76 88 -260 88q-227 0 -373 -174q-137 -162 -137 -383q0 -227 150 -414q168 -209 428 -209q169 1 364 134v-101q-147 -125 -397 -125q-305 0 -496 207 q-182 199 -182 498z" />
<glyph unicode="D" horiz-adv-x="1366" d="M135 0v33q101 0 101 80v1071q0 53 -27 69q-18 12 -74 13v32h436q332 0 527 -190q180 -178 180 -459q0 -291 -178 -467q-184 -182 -500 -182h-465zM369 82h180q270 0 433 140t163 394q0 270 -156 431q-166 170 -477 170h-143v-1135z" />
<glyph unicode="E" horiz-adv-x="1251" d="M125 0v33q57 0 80 14q31 19 31 76v1057q0 86 -111 86v32h952q0 -90 21 -274h-33q-49 131 -55 139q-35 53 -136 54h-505v-494h342q61 0 84 31q16 25 30 104h41q-12 -131 -12 -194q0 -51 12 -158h-51q0 70 -18 98q-25 37 -92 37h-336v-559h528q111 0 160 63q39 47 57 168 h45q-11 -51 -21 -157q-6 -69 -7 -114q0 -24 2 -42h-1008z" />
<glyph unicode="F" d="M125 -12v32q57 0 80 15q31 19 31 76v1069q0 86 -111 86v32h879q0 -41 16 -292h-51q-27 129 -39 155q-31 55 -115 56h-446v-527h284q74 0 97 31q16 23 24 102h33q-10 -98 -10 -184q0 -88 10 -176h-33q-8 90 -28.5 117.5t-98.5 27.5h-278v-506q0 -82 153 -82v-32 q-123 12 -184 12q-45 0 -213 -12z" />
<glyph unicode="G" horiz-adv-x="1366" d="M88 639v6q0 270 176 471q193 215 486 215q211 0 383 -78q-3 -38 -3 -76q0 -109 21 -225h-51q-41 154 -82 199q-76 88 -260 88q-240 0 -388.5 -156.5t-148.5 -392.5q0 -274 160 -457q154 -174 362 -174q86 0 179.5 56.5t115.5 130.5q10 35 11 112v119q0 90 -138 90v33 q115 -12 189 -12q76 0 186 12v-33q-104 0 -104 -80v-499h-54l-8 37q-14 68 -49 116q-150 -174 -371 -174q-287 0 -456 207q-154 188 -156 465z" />
<glyph unicode="H" horiz-adv-x="1478" d="M135 -12v32q101 0 101 80v1096q0 53 -27 70q-18 12 -74 12v33q111 -12 170 -13q70 0 168 13v-33q-104 0 -104 -82v-475h741v475q0 82 -104 82v33q94 -12 172 -13q47 0 165 13v-33q-55 0 -73 -12q-27 -16 -27 -70v-1096q0 -80 100 -80v-32q-119 12 -176 12q-68 0 -161 -12 v32q53 0 73 11q31 18 31 71v537h-741v-537q0 -53 30 -71q20 -10 74 -11v-32q-86 12 -151 12q-72 0 -187 -12z" />
<glyph unicode="I" horiz-adv-x="571" d="M119 -12v32q100 0 100 80v1096q0 53 -26 70q-18 12 -74 12v33q119 -12 168 -13q47 0 166 13v-33q-55 0 -74 -12q-27 -17 -27 -70v-1096q0 -80 101 -80v-32q-115 12 -166 12q-53 0 -168 -12z" />
<glyph unicode="J" horiz-adv-x="571" d="M88 -209q76 47 100 86q31 51 31 160v1159q0 53 -26 70q-18 12 -74 12v33q119 -12 168 -13q47 0 166 13v-33q-55 0 -74 -12q-27 -16 -27 -70v-1108q0 -127 -67.5 -217t-190.5 -119z" />
<glyph unicode="K" horiz-adv-x="1251" d="M135 -12v32q100 0 101 80v1096q0 53 -27 70q-18 12 -74 12v33q119 -12 168 -13q39 0 174 13v-33q-61 0 -82 -12q-26 -17 -26 -70v-1096q0 -80 118 -80v-32q-152 12 -184 12q-53 0 -168 -12zM375 682l366 385q117 123 117 168q0 43 -90 43v33q123 -12 180 -13q68 0 199 13 v-33q-49 0 -107 -43q-43 -25 -518 -537q215 -203 565 -612q56 -66 150 -66v-32q-78 12 -117 12t-116 -12q-201 266 -629 694z" />
<glyph unicode="L" horiz-adv-x="1138" d="M135 -2v33q101 0 101 80v1085q0 53 -27 70q-18 12 -74 12v33q18 -4 168 -13h19q71 0 157 13v-33q-111 0 -110 -64v-1134h448q119 0 168 92q20 39 49 188h41q-28 -204 -28 -352v-10h-912z" />
<glyph unicode="M" horiz-adv-x="1705" d="M92 -12v32q55 8 76 25q35 29 35 107q0 12 20.5 389t20.5 618q0 119 -113 119v33q98 -12 145 -13q37 0 111 13q20 -57 180 -430l307 -717l414 1147q82 -12 125 -13q43 0 121 13v-33q-39 0 -68.5 -23.5t-29.5 -66.5q0 -190 32 -640q31 -428 33 -428v1q0 -100 113 -101v-32 q-111 12 -164 12q-59 0 -182 -12v32q100 0 100 89q0 162 -20 471q-16 262 -35 526h-4l-404 -1118h-92l-473 1118h-4q-31 -702 -31 -985q0 -55 21.5 -78t79.5 -23v-32q-111 12 -164 12q-52 0 -150 -12z" />
<glyph unicode="N" horiz-adv-x="1478" d="M135 -12v32q101 1 101 105v1046q0 59 -23 83t-78 24v33q82 -12 131 -13q59 0 125 13q487 -696 746 -1098h4v958q0 106 -117 107v33q106 -12 162 -13q59 0 157 13v-33q-55 0 -77.5 -23.5t-22.5 -83.5v-1183h-98q-207 315 -803 1179h-4v-1040q0 -106 129 -107v-32 q-86 12 -174 12q-80 0 -158 -12z" />
<glyph unicode="O" horiz-adv-x="1478" d="M88 672q0 272 186 469q182 190 431 190q319 0 514 -233q172 -207 172 -482q0 -272 -186.5 -460.5t-438.5 -188.5q-297 0 -492 215q-186 205 -186 490zM221 668q0 -238 150 -418q158 -190 387 -191q203 0 351 157t148 407q0 242 -143 424q-153 192 -381 192h-2 q-236 0 -373 -155.5t-137 -415.5z" />
<glyph unicode="P" horiz-adv-x="1138" d="M125 -12v32q111 0 111 115v1020q0 111 -111 111v32h504q215 0 340 -116q117 -106 116 -273q0 -188 -116.5 -301.5t-288.5 -113.5q-100 0 -187 33.5t-87 60.5q0 16 12 16l60 -14q59 -15 118 -15q147 0 251.5 86.5t104.5 223.5q0 332 -426 332h-157v-1082q0 -115 110 -115 v-32q-102 12 -151 12q-63 0 -203 -12z" />
<glyph unicode="Q" horiz-adv-x="1478" d="M88 672q0 272 186 469q182 190 431 190q319 0 514 -233q172 -207 172 -482q0 -315 -240 -507q53 -59 123 -60q57 1 106 17l-26 -80q-51 -18 -137 -19q-113 0 -175 72q-127 -72 -276 -72q-297 0 -492 215q-186 205 -186 490zM221 668q0 -238 150 -418q158 -190 387 -191 q203 0 351 157t148 407q0 242 -143 424q-153 192 -381 192h-2q-236 0 -373 -155.5t-137 -415.5z" />
<glyph unicode="R" horiz-adv-x="1251" d="M125 -12v32q111 0 111 115v1020q0 111 -111 111v32h537q415 0 415 -310q0 -169 -145 -269q-131 -90 -309 -90q197 -223 221 -252q123 -145 211 -262q70 -94 178 -95v-32q-78 12 -121 12q-47 0 -125 -12q-180 260 -450 551q-117 125 -117 137q0 18 18 18q8 0 42 -2t59 -2 q162 0 270 60q135 72 135 219q0 248 -373 248h-202v-1082q0 -115 110 -115v-32q-102 12 -151 12q-63 0 -203 -12z" />
<glyph unicode="S" horiz-adv-x="1138" d="M96 969q0 174 158 274q139 88 336 88q154 0 364 -49v-29q0 -123 15 -266h-51q-18 143 -92 202.5t-236 59.5q-145 0 -248 -59q-123 -72 -123 -203q0 -111 100 -166q76 -41 261 -73q223 -39 321 -99q141 -86 141 -258q0 -201 -153 -315q-143 -109 -381 -109q-236 0 -389 92 q-3 131 -15 336h52q23 -182 107.5 -264t264.5 -82q160 0 265 74q116 83 116 234q0 146 -114 200q-43 20 -264.5 63.5t-319.5 114.5q-115 84 -115 234z" />
<glyph unicode="T" horiz-adv-x="1026" d="M33 938q12 141 12 315v45h936v-45q0 -174 12 -315h-45l-18 70q-35 133 -78 168q-49 41 -193 41h-79v-1082q0 -115 110 -115v-32q-102 12 -151 12q-64 0 -203 -12v32q111 0 110 115v1082h-77q-143 0 -195 -41q-43 -35 -78 -168l-18 -70h-45z" />
<glyph unicode="U" horiz-adv-x="1368" d="M129 1278v33q111 -12 172 -13q53 0 164 13v-33q-113 0 -113 -115v-712q0 -401 322 -402q342 0 342 402v712q0 115 -113 115v33q111 -12 164 -13q61 0 172 13v-33q-90 0 -90 -117v-729q0 -221 -123 -343t-342 -122t-342 122t-123 343v729q0 117 -90 117z" />
<glyph unicode="V" horiz-adv-x="1138" d="M-16 1278v33q127 -12 180 -13q63 0 182 13v-33q-96 0 -96 -61q0 -47 31.5 -138.5t62.5 -179.5l246 -727h4l289 868q35 104 35 179q0 59 -97 59v33q94 -12 144 -13q59 0 174 13v-33q-80 0 -129 -148l-45 -135l-349 -1007h-71l-379 1046q-51 143 -72 176q-41 68 -110 68z " />
<glyph unicode="W" horiz-adv-x="1705" d="M-16 1278v33q127 -12 188 -13q55 0 170 13v-37q-100 0 -100 -51q0 -43 34 -148l306 -913h4l219 704l-107 303q-39 109 -137 109v33q143 -12 215 -13q61 0 185 13v-33q-125 0 -125 -80q0 -45 49 -192l280 -844h4l244 860q35 123 35 192q0 63 -111 64v33q106 -12 162 -13 q57 0 176 13v-33q-59 0 -94 -57q-20 -35 -57 -156l-330 -1077h-88l-254 753h-4l-238 -753h-90l-414 1196q-29 82 -122 94z" />
<glyph unicode="X" horiz-adv-x="1251" d="M6 -12v32q80 0 209 187l334 483l-281 414q-61 90 -90 121q-53 53 -110 53v33q139 -12 208 -13q61 0 185 13v-33q-98 0 -99 -57q0 -47 68 -144l195 -278l178 254q90 129 90 174q0 51 -100 51v33q123 -12 184 -13q63 0 186 13v-33q-61 0 -116 -55q-29 -29 -103 -133 l-268 -377l332 -480q84 -123 110 -149q59 -63 127 -64v-32q-111 12 -174 12q-82 0 -250 -12v32q104 0 105 62q0 53 -76 164l-246 360l-242 -364q-86 -129 -86 -156q0 -33 39 -51q31 -14 70 -15v-32q-119 12 -178 12q-70 0 -201 -12z" />
<glyph unicode="Y" horiz-adv-x="1138" d="M12 1278v33q119 -12 181 -13q61 0 184 13v-33q-96 0 -96 -55q0 -31 77 -179l228 -428l213 394q78 143 78 209q0 59 -97 59v33q131 -12 195 -13q53 0 151 13v-33q-55 0 -104 -59q-35 -45 -111 -183l-284 -522v-399q0 -94 96 -95v-32q-102 12 -152 12q-59 0 -174 -12v32 q96 0 97 86v414l-295 559q-105 199 -187 199z" />
<glyph unicode="Z" horiz-adv-x="1138" d="M10 0l809 1217h-368q-117 0 -175 -39q-76 -53 -106 -203h-33q23 121 39 323h838l-809 -1216h526q113 0 180 92q55 76 70 197h33q-27 -158 -31 -371h-973z" />
<glyph unicode="[" horiz-adv-x="684" d="M236 -313v1583l213 61v-33q-90 -20 -91 -108v-1423q0 -88 91 -109v-33z" />
<glyph unicode="\" horiz-adv-x="569" d="M-37 1331l84 33l559 -1397l-84 -33z" />
<glyph unicode="]" horiz-adv-x="684" d="M236 -342q90 20 90 109v1423q0 88 -90 108v33l213 -61v-1583l-213 -62v33z" />
<glyph unicode="^" horiz-adv-x="1228" d="M190 551l377 747h95l376 -747h-112l-312 616l-311 -616h-113z" />
<glyph unicode="_" d="M0 -154h1024v-102h-1024v102z" />
<glyph unicode="`" horiz-adv-x="569" d="M-16 1364q0 59 61 59q43 0 74 -30l315 -318h-72l-329 211q-49 31 -49 78z" />
<glyph unicode="a" d="M78 248q0 252 330 284l180 19q68 6 86 14q49 16 49 60v77q0 201 -246 201q-109 0 -185.5 -59.5t-80.5 -138.5h-37l16 194q123 76 283 76q373 0 373 -340v-533q0 -82 100 -82v-32q-92 12 -96 12h3q0 -1 -122 -12v168h-4q-82 -188 -328 -189q-135 0 -225 72q-96 78 -96 209 zM201 248q0 -94 58 -148q56 -52 146 -51h7q141 2 226 94t85 242v107q-78 -25 -324 -52q-104 -12 -151 -54t-47 -138z" />
<glyph unicode="b" horiz-adv-x="1138" d="M76 1380v33q57 8 137 38t92 44q-6 -37 -6 -211v-489h4q117 180 318 180t323 -160q111 -145 111 -348t-113 -344q-120 -156 -321 -156q-213 0 -357 162l-69 -141h-29q10 174 10 413v916q0 63 -100 63zM289 473q0 -213 108 -328q90 -96 224 -96q125 0 218 109.5t93 285.5 q0 172 -80 301q-92 147 -246 148q-147 0 -237 -135q-80 -121 -80 -285z" />
<glyph unicode="c" horiz-adv-x="909" d="M84 500q0 176 139 319q150 156 363 156q131 0 252 -51l12 -230h-39q-25 199 -240 199q-129 0 -239 -102q-125 -117 -125 -295q0 -172 102 -299q111 -137 285 -138q146 0 283 74l-19 -98q-106 -68 -283 -68q-229 0 -364 160q-127 147 -127 373z" />
<glyph unicode="d" horiz-adv-x="1138" d="M84 489q0 197 125 341.5t313 144.5q98 0 185 -51q94 -53 129 -144h4v537q0 63 -101 63v33q57 8 137 38t93 44q-6 -37 -6 -211v-1167q0 -92 100 -97v-32q-86 12 -105 12q-16 0 -49 -4q-41 -6 -59 -8v182h-4q-100 -203 -336 -203q-203 0 -322 166q-104 147 -104 356z M207 489q0 -166 82 -292q96 -148 252 -148q125 0 207 88q98 104 98 316q0 195 -86 317.5t-236 122.5q-143 0 -230 -115.5t-87 -288.5z" />
<glyph unicode="e" d="M84 496q0 193 127 336t319 143q410 0 410 -475h-733q0 -174 102 -303q109 -137 271 -138q194 1 315 142v-121q-129 -113 -336 -113q-215 0 -348 160q-127 150 -127 369zM213 582h604v7q0 130 -72 214q-80 90 -215 90q-127 0 -222 -96t-95 -215z" />
<glyph unicode="f" horiz-adv-x="569" d="M72 893v33q109 0 108 127q0 182 53 274q66 117 224 117q72 0 118 -23v-137h-6q-35 43 -51 55q-33 23 -84 23q-127 0 -127 -205v-182h230v-82h-230v-782q0 -90 129 -91v-32q-119 12 -182 12q-66 0 -164 -12v32q94 1 94 89v784h-112z" />
<glyph unicode="g" d="M53 270q0 29 180 129q-83 122 -83 249q0 124 101 225.5t255 101.5q39 0 130 -15.5t146 -15.5q97 0 189 10l-15 -77q-45 -14 -104 -15q-25 0 -78 4v-14q86 -88 86 -213q0 -145 -109.5 -246.5t-248.5 -101.5q-125 0 -223 71q-102 -53 -103 -126q0 -59 74 -91 q59 -26 141 -26h6h211q342 0 342 -197q0 -152 -147 -231q-119 -66 -273 -66q-182 0 -280 76q-78 63 -78 149q0 23 16 97l125 61q-29 -59 -28 -117q0 -84 80 -141q74 -53 165 -53q109 0 197 47q111 57 111 156q0 63 -43 83.5t-166 24.5l-219 6q-356 10 -357 256zM262 659 q0 -94 64 -182q76 -104 196 -104q100 0 166 71q59 66 60 160q0 111 -68 201q-76 98 -186 98q-104 0 -168 -67.5t-64 -176.5z" />
<glyph unicode="h" horiz-adv-x="1138" d="M111 -12v32q100 1 100 89v1208q0 63 -100 63v33q57 8 137 38t92 44q-6 -37 -6 -211v-463h4q98 154 268 154q332 0 332 -357v-528q0 -70 90 -70v-32q-86 12 -113 12q-37 0 -110 -12q10 143 10 164v493q0 125 -72 186q-57 51 -141 52q-121 0 -192 -66q-76 -72 -76 -207 v-504q0 -86 100 -86v-32q-106 12 -168 12q-53 0 -155 -12z" />
<glyph unicode="i" horiz-adv-x="569" d="M123 -12v32q100 0 100 89v718q0 63 -100 64v33q57 8 137 37.5t92 44.5q-6 -37 -6 -211v-689q0 -86 100 -86v-32q-106 12 -167 12q-53 0 -156 -12zM188 1264q0 37 26 64.5t62 27.5q37 0 61.5 -28t24.5 -64q0 -37 -24.5 -65t-61.5 -28t-62.5 28t-25.5 65z" />
<glyph unicode="j" horiz-adv-x="569" d="M123 -342q100 17 100 119v1050q0 63 -100 64v33q57 8 137 37.5t92 44.5q-6 -37 -6 -211v-908q0 -147 -42 -198t-181 -64v33zM188 1264q0 37 26 64.5t62 27.5q37 0 61.5 -28t24.5 -64q0 -37 -24.5 -65t-61.5 -28t-62.5 28t-25.5 65z" />
<glyph unicode="k" horiz-adv-x="909" d="M84 -12v32q100 1 100 89v1208q0 63 -100 63v33q57 8 137 38t92 44q-6 -37 -6 -211v-741q66 59 238 235q80 82 80 109q0 35 -90 35v32q92 -10 170 -10q59 0 145 10l-414 -407q182 -199 320 -391q96 -135 176 -136v-32h-195q-137 199 -205 284q-119 158 -225 256v-422 q0 -86 101 -86v-32q-106 12 -168 12q-53 0 -156 -12z" />
<glyph unicode="l" horiz-adv-x="569" d="M123 -12v32q100 1 100 89v1208q0 63 -100 63v33q57 8 137 38t92 44q-6 -37 -6 -211v-1178q0 -86 100 -86v-32q-106 12 -167 12q-53 0 -156 -12z" />
<glyph unicode="m" horiz-adv-x="1705" d="M111 -12v32q100 1 100 89v718q0 63 -100 64v33q113 27 223 82l-8 -185h4q106 154 278 154q225 0 283 -191h4q80 190 303 191q307 0 307 -357v-528q0 -70 90 -70v-32q-86 12 -112 12q-37 0 -111 -12q10 143 10 164v493q0 125 -71 186q-57 51 -142 52q-119 0 -188 -86 q-61 -78 -61 -187v-504q0 -86 100 -86v-32q-106 12 -168 12q-53 0 -156 -12v32q100 0 101 89v536q0 109 -62.5 173.5t-161.5 64.5q-100 0 -167 -68q-72 -76 -72 -205v-504q0 -86 100 -86v-32q-106 12 -168 12q-53 0 -155 -12z" />
<glyph unicode="n" horiz-adv-x="1138" d="M111 -12v32q100 1 100 89v718q0 63 -100 64v33q57 8 137 37.5t92 44.5q-6 -61 -6 -185h4q98 154 268 154q332 0 332 -357v-528q0 -70 90 -70v-32q-86 12 -113 12q-37 0 -110 -12q10 143 10 164v493q0 125 -72 186q-57 51 -141 52q-121 0 -192 -66q-76 -72 -76 -207v-504 q0 -86 100 -86v-32q-106 12 -168 12q-53 0 -155 -12z" />
<glyph unicode="o" horiz-adv-x="1138" d="M84 500q0 178 127 319q139 156 352 156t352.5 -151.5t139.5 -362.5q0 -195 -123 -336q-135 -158 -357 -158q-229 0 -364 160q-127 148 -127 373zM207 496q0 -184 104 -318q111 -139 283 -139q145 0 237 94q100 104 101 295q0 184 -98 324q-105 151 -269 151h-2 q-156 0 -254 -106q-102 -113 -102 -301z" />
<glyph unicode="p" horiz-adv-x="1138" d="M76 -342q63 14 81.5 35t18.5 80v1054q0 63 -100 64v33q57 8 137 37.5t92 44.5q-6 -86 -6 -211h4q102 180 318 180q201 0 323 -160q111 -145 111 -348t-113 -344q-121 -156 -321 -156q-217 0 -318 191h-4v-396q0 -55 21.5 -75.5t78.5 -28.5v-33q-106 12 -168 13 q-53 0 -155 -13v33zM285 500q0 -219 94 -340q86 -111 227 -111q135 0 230.5 108.5t95.5 286.5q0 174 -82 301q-96 147 -258 148q-147 0 -234 -127q-74 -113 -73 -266z" />
<glyph unicode="q" horiz-adv-x="1138" d="M84 489q0 197 125 341.5t313 144.5q238 0 322 -162q55 92 135 162q-16 -139 -16 -211v-991q0 -59 18 -80t82 -35v-33q-102 12 -156 13q-61 0 -168 -13v33q57 8 79 28.5t22 75.5v396h-4q-90 -190 -326 -191q-203 0 -322 166q-104 147 -104 356zM207 489q0 -166 82 -292 q96 -148 252 -148q125 0 207 88q98 104 98 316q0 195 -86 317.5t-236 122.5q-143 0 -230 -115.5t-87 -288.5z" />
<glyph unicode="r" horiz-adv-x="684" d="M111 -12v32q100 1 100 89v718q0 63 -100 64v33q57 8 137 37.5t92 44.5q-8 -106 -12 -222h4q92 190 235 191q55 0 88 -8l17 -136q-47 20 -111 21q-98 0 -162.5 -92t-64.5 -213v-441q0 -86 100 -86v-32q-106 12 -168 12q-53 0 -155 -12z" />
<glyph unicode="s" horiz-adv-x="911" d="M102 266h33q20 -102 96 -164.5t183 -62.5q104 0 186 49q96 57 96 154q0 82 -63 118q-39 25 -182 60q-176 43 -242 86q-102 66 -103 190q0 141 140 219q106 59 233 60q168 0 279 -51l12 -195h-39q-31 174 -233 174q-106 0 -183 -39q-96 -51 -96 -147q0 -80 64 -117 q41 -27 188 -65q205 -55 271.5 -105.5t66.5 -159.5q0 -156 -135 -237q-111 -66 -277 -66q-147 0 -274 80z" />
<glyph unicode="t" horiz-adv-x="684" d="M45 893v82h139v203q53 6 107 75h16v-278h289v-82h-289v-696q0 -147 127 -148q76 0 172 57l-10 -92q-79 -47 -172 -47h-8q-231 4 -232 217v709h-139z" />
<glyph unicode="u" horiz-adv-x="1138" d="M111 891v33q57 8 137 37.5t92 44.5q-6 -37 -6 -211v-488q0 -248 196 -248q135 0 211 99q74 92 74 243v426q0 63 -104 64v33q59 8 143 39q78 29 90 43q-6 -37 -6 -211v-689q0 -86 90 -86v-32l-104 12q-2 0 -107 -12v151h-4q-82 -172 -297 -172q-137 0 -217 72 q-88 80 -88 235v553q0 63 -100 64z" />
<glyph unicode="v" horiz-adv-x="909" d="M8 922v32q119 -12 172 -12q47 0 146 12v-32q-94 0 -95 -56q0 -37 25 -106l213 -598h4l207 581q27 76 27 125q0 25 -26 39.5t-52 14.5v32q90 -12 137 -12q41 0 135 12v-32q-70 0 -121 -146l-280 -788h-86l-291 811q-25 68 -43 90q-25 33 -72 33z" />
<glyph unicode="w" horiz-adv-x="1366" d="M8 922v32q111 -12 160 -12q51 0 158 12v-32q-33 0 -64 -14.5t-31 -35.5q0 -29 52 -188l174 -543h4l176 590l-29 96q-29 94 -119 95v32q106 -12 160 -12q57 0 168 12v-32q-98 0 -98 -58q0 -37 49 -190l168 -522h4l172 548q31 98 31 162q0 59 -90 60v32q86 -12 137 -12 q49 0 147 12v-32q-68 0 -96 -80q-16 -51 -57 -187l-209 -667h-101l-194 598h-4l-178 -598h-99l-286 852q-12 35 -43 58.5t-62 23.5z" />
<glyph unicode="x" horiz-adv-x="909" d="M8 -12v32q76 11 129 93l254 383l-188 286q-49 74 -80 107t-92 33v32q111 -12 159 -12q61 0 189 12v-32q-84 0 -84 -43q0 -31 47 -105l121 -188l125 192q35 53 35 96q0 47 -82 48v32q98 -12 147 -12q51 0 170 12v-32q-82 0 -147 -103l-201 -313l252 -381q63 -96 139 -105 v-32q-106 12 -153 12q-66 0 -197 -12v32q55 8 70 15q25 10 24 35q0 39 -57 127l-142 219l-149 -232q-51 -80 -51 -112q0 -51 90 -52v-32q-102 12 -152 12q-57 0 -176 -12z" />
<glyph unicode="y" horiz-adv-x="909" d="M4 926v28q102 -12 156 -12q57 0 192 12v-32q-66 -6 -90 -20.5t-24 -55.5q0 -27 102 -295l158 -412h4l182 611q18 63 18 108q0 63 -104 64v32q98 -12 160 -12q57 0 147 12v-32q-76 0 -112 -115l-320 -975q-68 -207 -209 -207q-63 0 -108 39l-13 164h39q4 -90 84 -90 q86 0 133 141l37 109l-299 794q-53 143 -133 144z" />
<glyph unicode="z" horiz-adv-x="796" d="M14 0q183 289 539 860h-297q-72 0 -106 -41q-27 -29 -50 -108h-39l48 231h628q-272 -449 -534 -850h278q113 0 162 33q59 39 68 145h32l-24 -270h-705z" />
<glyph unicode="{" horiz-adv-x="684" d="M125 477q92 29 123 88q29 53 28 166v293q0 184 80 254q61 53 203 53v-33q-92 -8 -129 -79q-31 -64 -31 -195v-260q0 -127 -32 -186q-39 -70 -140 -99v-4q100 -29 140 -98q33 -59 32 -187v-258q0 -131 31 -194q37 -72 129 -80v-33q-141 0 -203 53q-80 70 -80 254v291 q0 113 -29.5 169.5t-121.5 84.5z" />
<glyph unicode="|" horiz-adv-x="454" d="M176 -33v1528h103v-1528h-103z" />
<glyph unicode="}" horiz-adv-x="684" d="M125 -342q92 8 129 80q31 63 31 194v258q0 127 32 187q39 70 140 98v4q-100 29 -140 99q-33 59 -32 186v260q0 131 -31 195q-37 72 -129 79v33q141 0 203 -53q80 -70 80 -254v-293q0 -113 28 -166q31 -59 123 -88q-92 -29 -121.5 -85t-29.5 -169v-291q0 -184 -80 -254 q-61 -53 -203 -53v33z" />
<glyph unicode="~" horiz-adv-x="1228" d="M141 463q109 176 256 176q86 0 228 -66q158 -74 209 -73q84 0 180 147l73 -74q-61 -86 -102 -120q-70 -55 -154 -56q-88 0 -217 68q-137 72 -227 72q-104 0 -172 -148z" />
<glyph unicode="&#xa1;" horiz-adv-x="684" d="M250 897q0 39 26.5 65.5t65.5 26.5t65.5 -26.5t26.5 -65.5t-26.5 -65.5t-65.5 -26.5t-65.5 26.5t-26.5 65.5zM260 -342l49 958h62l53 -958h-164z" />
<glyph unicode="&#xa2;" d="M92 459q0 166 115 296t270 152v185h72v-185q111 2 229 -47q0 25 8 -209h-32q-31 184 -215 185q-135 0 -226 -95q-98 -104 -98 -292q0 -150 92 -261q98 -119 252 -118q137 0 260 82q2 0 4 2h2l-16 -101q-135 -72 -260 -65v-164h-72v164q-180 39 -282.5 163.5t-102.5 307.5 z" />
<glyph unicode="&#xa3;" d="M-2 616v103h203q-33 92 -33 155q0 188 108 318q113 139 297 139q178 0 287 -94l6 -254h-39q-53 256 -270 256q-104 0 -180 -77t-76 -189q0 -141 47 -254h395v-103h-364q29 -76 29 -161q0 -94 -60 -189q-55 -72 -110 -143h366q240 0 293 262l33 -6q-35 -195 -56 -379h-780 q98 164 119 205q61 123 61 219q0 88 -43 192h-233z" />
<glyph unicode="&#xa4;" d="M35 246l104 106q-104 131 -104 297q0 180 108 295l-108 109l74 73l106 -106q127 106 297 106t297 -106l106 106l74 -73l-104 -103q104 -121 104 -301q0 -168 -102 -297l102 -106l-74 -74l-100 111q-129 -111 -303 -111q-172 0 -303 111l-100 -111zM137 649 q0 -156 109.5 -265.5t265.5 -109.5t265.5 110t109.5 265q0 156 -109.5 265.5t-265.5 109.5t-265.5 -109.5t-109.5 -265.5z" />
<glyph unicode="&#xa5;" d="M0 1278v33q102 -12 172 -13q59 0 186 13v-33q-82 0 -94 -55q0 -29 74 -187l197 -420l172 394q68 154 67 209q0 59 -88 59v33q127 -12 193 -13q59 0 145 13v-33q-59 0 -106.5 -50t-104.5 -179l-168 -377h238v-72h-271l-37 -84v-98h308v-72h-308v-231q0 -94 97 -95v-32 q-102 12 -152 12q-59 0 -174 -12v32q96 0 96 86v240h-307v72h307v119l-30 63h-277v72h242l-199 407q-96 199 -178 199z" />
<glyph unicode="&#xa6;" horiz-adv-x="454" d="M176 -33v572h103v-572h-103zM176 924v571h103v-571h-103z" />
<glyph unicode="&#xa7;" d="M139 506q0 127 84 219q94 104 246 104q25 0 51 -2l4 4q-135 127 -143 136q-72 82 -72 166q0 86 82 145q78 53 174 53q68 0 148 -20l16 -148h-41q-18 96 -135 97q-63 0 -102 -29t-39 -76q0 -68 38.5 -115t204.5 -188q113 -96 160 -162q70 -98 70 -215q0 -156 -113 -252 q-104 -92 -248 -82l-4 -4q113 -94 139 -127q72 -82 72 -170q0 -96 -76.5 -155.5t-175.5 -59.5q-100 0 -192 53l-13 144h39q6 -45 56.5 -80t99.5 -35q63 0 106 37t43 98q0 78 -124 181q-209 174 -230 196q-125 133 -125 287zM231 516q0 -115 96.5 -214t221.5 -99 q100 0 172 75.5t72 180.5q0 127 -91.5 217t-220.5 90q-117 0 -183.5 -75t-66.5 -175z" />
<glyph unicode="&#xa8;" horiz-adv-x="569" d="M-10 1204q0 41 28.5 68.5t67.5 27.5q41 0 69.5 -28.5t28.5 -67.5t-28.5 -68.5t-69.5 -29.5q-39 0 -67.5 28.5t-28.5 69.5zM385 1204q0 41 28.5 68.5t67.5 27.5q41 0 70 -28.5t29 -67.5t-29 -68.5t-70 -29.5q-39 0 -67.5 28.5t-28.5 69.5z" />
<glyph unicode="&#xa9;" horiz-adv-x="1638" d="M137 649q0 283 200 482.5t482 199.5q283 0 482.5 -199.5t199.5 -482.5t-199.5 -482.5t-482.5 -199.5t-482.5 199.5t-199.5 482.5zM250 649q0 -238 171 -414t398 -176t398.5 175.5t171.5 414.5q0 240 -171 415t-399 175q-227 0 -398 -175t-171 -415zM444 666 q0 139 107 252q123 129 321 129q104 0 191 -31q55 -20 55 -47v-148h-33q0 164 -213 164q-143 0 -217.5 -85t-76.5 -226q-2 -158 73 -246q78 -94 228 -94q180 0 243 151h29l-33 -143q-8 -31 -67 -47q-88 -23 -199 -23q-174 0 -283 88q-125 102 -125 306z" />
<glyph unicode="&#xaa;" horiz-adv-x="665" d="M37 891q0 98 76 141q55 35 172 43q156 12 169 25.5t11 66.5q-4 102 -162 103q-76 0 -123 -31t-49 -76h-20l12 123q72 45 176 45q262 0 262 -203v-335q0 -37 57 -37v-21q-33 6 -65 6q-27 0 -80 -6v76l-4 10q-63 -100 -219 -100q-92 0 -150 43q-63 47 -63 127zM139 891 q0 -102 150 -98q76 2 126 47t50 104v88q-39 -14 -182.5 -28.5t-143.5 -112.5z" />
<glyph unicode="&#xab;" d="M154 514q0 86 102 188q78 80 197 154q102 61 129 62q16 0 16 -17q0 -10 -86 -80q-111 -90 -160 -141q-86 -90 -86 -148q0 -94 146 -241q47 -47 137 -123q61 -53 61 -64q0 -16 -20 -16q-23 0 -101 45q-84 51 -159 113q-104 86 -140 138t-36 130zM485 512q0 86 160 268 q152 172 195 172q20 0 20 -20q0 -12 -43 -62q-61 -72 -94 -118q-104 -152 -105 -220q0 -80 44.5 -154.5t89.5 -146.5q27 -43 79 -98q39 -43 39 -53q0 -20 -24 -21q-53 0 -277 260q-84 99 -84 193z" />
<glyph unicode="&#xac;" horiz-adv-x="1228" d="M96 666v102h1037v-547h-103v445h-934z" />
<glyph unicode="&#xad;" horiz-adv-x="684" d="M86 365q33 125 47 198h301q106 0 135 86h29q-20 -65 -55 -198h-287q-63 0 -92 -13q-39 -18 -55 -73h-23z" />
<glyph unicode="&#xae;" horiz-adv-x="1638" d="M137 649q0 283 200 482.5t482 199.5q283 0 482.5 -199.5t199.5 -482.5t-199.5 -482.5t-482.5 -199.5t-482.5 199.5t-199.5 482.5zM250 649q0 -238 171 -414t398 -176t398.5 175.5t171.5 414.5q0 240 -171 415t-399 175q-227 0 -398 -175t-171 -415zM514 293v33 q88 0 88 77v508q0 78 -88 78v33h334q98 0 162 -45q74 -51 73 -146q0 -162 -163 -198l147 -207q72 -100 119 -100v-33h-96q-39 0 -89.5 60.5t-187.5 264.5h-98v-215q0 -78 98 -77v-33h-299zM715 651h94q152 0 152 185q0 154 -158 153h-88v-338z" />
<glyph unicode="&#xaf;" horiz-adv-x="569" d="M-23 1161v103h615v-103h-615z" />
<glyph unicode="&#xb0;" horiz-adv-x="819" d="M117 1038q0 121 86 207t207 86t206.5 -86t85.5 -207t-86 -207t-206 -86q-121 0 -207 86t-86 207zM199 1038q0 -88 61.5 -149.5t149.5 -61.5t149.5 61.5t61.5 149.5t-61.5 149.5t-149.5 61.5t-149.5 -61.5t-61.5 -149.5z" />
<glyph unicode="&#xb1;" horiz-adv-x="1228" d="M96 0v102h1037v-102h-1037zM96 559v103h469v374h103v-374h465v-103h-465v-375h-103v375h-469z" />
<glyph unicode="&#xb2;" horiz-adv-x="665" d="M84 530v82q193 137 276 238q98 117 99 233q0 186 -164 187q-59 0 -109 -49q-43 -41 -57 -95l-33 -6q29 158 29 180q78 31 194 31q111 0 187 -60.5t76 -164.5q0 -217 -383 -479v-4h379l-15 -93h-479z" />
<glyph unicode="&#xb3;" horiz-adv-x="665" d="M84 1133q12 55 25 165q102 33 215 33q94 0 161 -43q78 -49 78 -135q0 -143 -241 -207v-4q102 0 172 -37q88 -47 88 -141q0 -121 -187 -195q-143 -55 -280 -55l-9 61q123 0 232 43q131 53 131 142q0 143 -250 143q-25 0 -24 29q0 20 22 24q94 16 158 66q76 57 76 137 q0 49 -42 80t-112 31q-80 0 -123 -37q-31 -29 -57 -100h-33z" />
<glyph unicode="&#xb4;" horiz-adv-x="569" d="M135 1075l318 318q31 31 71 30q61 0 62 -59q0 -47 -49 -78l-330 -211h-72z" />
<glyph unicode="&#xb5;" horiz-adv-x="1138" />
<glyph unicode="&#xb6;" horiz-adv-x="1228" d="M182 893q0 211 93.5 308t289.5 97h537v-32q-84 0 -121 -17q-53 -25 -53 -94v-1362q0 -102 174 -102v-33h-277v1579h-120v-1579h-277v33q174 0 174 102v664q-213 0 -319 121q-100 113 -101 315zM326 889q0 -371 276 -371v719q-145 0 -207 -70q-70 -80 -69 -278z" />
<glyph unicode="&#xb7;" horiz-adv-x="512" d="M170 594q0 35 25.5 60.5t60.5 25.5t61.5 -25.5t26.5 -60.5t-26.5 -61.5t-61.5 -26.5t-60.5 26.5t-25.5 61.5z" />
<glyph unicode="&#xb8;" horiz-adv-x="569" d="M188 -362l27 61q82 -25 129 -25q119 0 119 66q0 88 -84 88q-45 0 -74 -21l-33 13l90 180h72l-61 -123q45 12 86 12q61 0 104 -33.5t43 -97.5q0 -74 -78 -112q-66 -33 -159 -33q-118 0 -181 25z" />
<glyph unicode="&#xb9;" horiz-adv-x="665" d="M201 1260v20q76 14 198 51q-8 -139 -8 -114v-621q0 -51 76 -51v-21q-68 6 -129 6q-68 0 -135 -6v21q76 0 76 51v612q0 51 -78 52z" />
<glyph unicode="&#xba;" horiz-adv-x="739" d="M55 1042q0 111 78 193q88 94 232 96q139 2 229 -87t90 -224q0 -123 -78 -207q-86 -92 -235 -92q-147 0 -234 96q-82 88 -82 225zM158 1040q0 -106 59 -178q63 -80 168 -80q86 0 141.5 56.5t55.5 160.5q0 102 -58 183q-63 88 -159 88q-92 0 -149.5 -60.5t-57.5 -169.5z " />
<glyph unicode="&#xbb;" d="M154 932q0 20 24 20q53 0 277 -260q84 -98 84 -192q0 -86 -160 -269q-152 -172 -195 -172q-20 0 -20 21q0 12 43 61q61 72 94 119q104 152 105 219q0 80 -41 158q-47 72 -93 143q-27 43 -79 99q-39 43 -39 53zM414 907q0 16 20 17q23 0 101 -45q84 -51 159 -113 q104 -86 140 -135q36 -55 36 -133q0 -86 -102 -189q-78 -80 -197 -153q-102 -61 -129 -62q-16 0 -16 17q0 10 86 79q111 90 160 142q86 90 86 147q0 94 -146 242q-47 47 -137 123q-61 53 -61 63z" />
<glyph unicode="&#xbc;" horiz-adv-x="1536" d="M201 1260v20q76 14 198 51q-8 -139 -8 -114v-621q0 -51 76 -51v-21q-68 6 -129 6q-68 0 -135 -6v21q76 0 76 51v612q0 51 -78 52zM244 12l958 1319l64 -45l-959 -1319zM856 180v92q162 246 385 529h88v-549h123v-72h-123v-180h-112v180h-361zM938 252h279v389h-5 q-188 -231 -274 -389z" />
<glyph unicode="&#xbd;" horiz-adv-x="1536" d="M201 1260v20q76 14 198 51q-8 -139 -8 -114v-621q0 -51 76 -51v-21q-68 6 -129 6q-68 0 -135 -6v21q76 0 76 51v612q0 51 -78 52zM213 12l958 1319l64 -45l-959 -1319zM928 0v82q193 137 276 237q98 117 99 234q0 186 -164 186q-59 0 -109 -49q-43 -41 -57 -94l-33 -6 q29 158 29 180q78 31 194 31q111 0 186.5 -60.5t75.5 -165.5q0 -217 -383 -479v-4h379l-14 -92h-479z" />
<glyph unicode="&#xbe;" horiz-adv-x="1536" d="M84 1133q12 55 25 165q102 33 215 33q94 0 161 -43q78 -49 78 -135q0 -143 -241 -207v-4q102 0 172 -37q88 -47 88 -141q0 -121 -187 -195q-143 -55 -280 -55l-9 61q123 0 232 43q131 53 131 142q0 143 -250 143q-25 0 -24 29q0 20 22 24q94 16 158 66q76 57 76 137 q0 49 -42 80t-112 31q-80 0 -123 -37q-31 -29 -57 -100h-33zM244 12l958 1319l64 -45l-959 -1319zM856 180v92q162 246 385 529h88v-549h123v-72h-123v-180h-112v180h-361zM938 252h279v389h-5q-188 -231 -274 -389z" />
<glyph unicode="&#xbf;" horiz-adv-x="909" d="M88 -6q0 176 84 274q51 59 164 111q102 47 119 78q20 39 20 147h51q-6 -51 0 -143q4 -68 13 -137q-162 -2 -250 -93q-78 -82 -78 -217q0 -131 77 -219t206 -88q197 0 256 244h45q-10 -84 -25 -254q-127 -72 -272 -72q-164 0 -287 104.5t-123 264.5zM399 897q0 39 27 65.5 t66 26.5t65.5 -26.5t26.5 -65.5t-27 -65.5t-65 -26.5q-39 0 -66 26.5t-27 65.5z" />
<glyph unicode="&#xc0;" horiz-adv-x="1251" d="M-18 -12v32q92 12 168 209l284 736q80 207 80 262q0 51 -88 51v33q82 -12 143 -13q51 0 121 13q29 -94 86 -238l371 -936q39 -96 123 -117v-32q-106 12 -160 12q-59 0 -182 -12v32q90 18 90 82q0 39 -64 199q-78 195 -80 199h-524q-37 -86 -80 -209q-49 -147 -49 -191 q0 -70 90 -80v-32q-86 12 -131 12q-67 0 -198 -12zM326 1679q0 59 61 59q43 0 74 -30l315 -318h-72l-329 211q-49 31 -49 78zM381 582h459l-234 606z" />
<glyph unicode="&#xc1;" horiz-adv-x="1251" d="M-18 -12v32q92 12 168 209l284 736q80 207 80 262q0 51 -88 51v33q82 -12 143 -13q51 0 121 13q29 -94 86 -238l371 -936q39 -96 123 -117v-32q-106 12 -160 12q-59 0 -182 -12v32q90 18 90 82q0 39 -64 199q-78 195 -80 199h-524q-37 -86 -80 -209q-49 -147 -49 -191 q0 -70 90 -80v-32q-86 12 -131 12q-67 0 -198 -12zM381 582h459l-234 606zM477 1390l318 318q31 31 71 30q61 0 62 -59q0 -47 -49 -78l-330 -211h-72z" />
<glyph unicode="&#xc2;" horiz-adv-x="1251" d="M-18 -12v32q92 12 168 209l284 736q80 207 80 262q0 51 -88 51v33q82 -12 143 -13q51 0 121 13q29 -94 86 -238l371 -936q39 -96 123 -117v-32q-106 12 -160 12q-59 0 -182 -12v32q90 18 90 82q0 39 -64 199q-78 195 -80 199h-524q-37 -86 -80 -209q-49 -147 -49 -191 q0 -70 90 -80v-32q-86 12 -131 12q-67 0 -198 -12zM307 1390l250 348h115l250 -348h-72l-235 232l-236 -232h-72zM381 582h459l-234 606z" />
<glyph unicode="&#xc3;" horiz-adv-x="1251" d="M-18 -12v32q92 12 168 209l284 736q80 207 80 262q0 51 -88 51v33q82 -12 143 -13q51 0 121 13q29 -94 86 -238l371 -936q39 -96 123 -117v-32q-106 12 -160 12q-59 0 -182 -12v32q90 18 90 82q0 39 -64 199q-78 195 -80 199h-524q-37 -86 -80 -209q-49 -147 -49 -191 q0 -70 90 -80v-32q-86 12 -131 12q-67 0 -198 -12zM295 1443q18 90 74.5 147.5t142.5 57.5q49 0 139 -47t140 -45q76 2 110 92h57q-49 -205 -217 -205q-57 0 -147 46.5t-133 46.5q-84 -1 -113 -93h-53zM381 582h459l-234 606z" />
<glyph unicode="&#xc4;" horiz-adv-x="1251" d="M-18 -12v32q92 12 168 209l284 736q80 207 80 262q0 51 -88 51v33q82 -12 143 -13q51 0 121 13q29 -94 86 -238l371 -936q39 -96 123 -117v-32q-106 12 -160 12q-59 0 -182 -12v32q90 18 90 82q0 39 -64 199q-78 195 -80 199h-524q-37 -86 -80 -209q-49 -147 -49 -191 q0 -70 90 -80v-32q-86 12 -131 12q-67 0 -198 -12zM312 1519q0 41 28.5 68.5t67.5 27.5q41 0 69.5 -28.5t28.5 -67.5t-28.5 -68.5t-69.5 -29.5q-39 0 -67.5 28.5t-28.5 69.5zM381 582h459l-234 606zM707 1519q0 41 28.5 68.5t67.5 27.5q41 0 70 -28.5t29 -67.5t-29 -68.5 t-70 -29.5q-39 0 -67.5 28.5t-28.5 69.5z" />
<glyph unicode="&#xc5;" horiz-adv-x="1251" d="M-18 -12v32q92 12 168 209l284 736q80 207 80 262q0 51 -88 51v33q82 -12 143 -13q51 0 121 13q29 -94 86 -238l371 -936q39 -96 123 -117v-32q-106 12 -160 12q-59 0 -182 -12v32q90 18 90 82q0 39 -64 199q-78 195 -80 199h-524q-37 -86 -80 -209q-49 -147 -49 -191 q0 -70 90 -80v-32q-86 12 -131 12q-67 0 -198 -12zM381 582h459l-234 606zM387 1573q0 84 58.5 141.5t140.5 57.5q84 0 142 -58.5t58 -140.5t-58 -141.5t-142 -59.5q-82 0 -140.5 58.5t-58.5 142.5zM448 1573q0 -57 40 -98t98 -41q57 0 98 41t41 98t-41 97t-98 40t-97.5 -40 t-40.5 -97z" />
<glyph unicode="&#xc6;" horiz-adv-x="1820" d="M-63 -12v32q47 0 118 97q39 53 146 231q135 209 387 625q39 70 78 137q31 59 30 94q0 61 -114 62v32h1065q0 -90 20 -274h-33q-49 131 -55 139q-35 53 -135 54h-479v-496h319q61 0 84 35q16 23 27 100h41q-12 -131 -13 -194q0 -51 13 -158h-52q-18 90 -37.5 112.5 t-70.5 22.5h-311v-557h501q111 0 160 63q39 47 57 168h46q-12 -51 -21.5 -156.5t-5.5 -156.5h-981v33q57 0 80 14q31 18 30 76v377h-425l-115 -187q-98 -160 -98 -215q0 -78 112 -78v-32q-127 12 -190 12t-178 -12zM459 582h372v645h-4z" />
<glyph unicode="&#xc7;" horiz-adv-x="1251" d="M88 672q0 264 188.5 461.5t446.5 197.5q211 0 383 -78q-10 -143 18 -301h-51q-41 154 -82 199q-76 88 -260 88q-227 0 -373 -174q-137 -162 -137 -383q0 -227 150 -414q168 -209 428 -209q169 1 364 134v-101q-147 -125 -397 -125q-305 0 -496 207q-182 199 -182 498z M489 -362l27 61q82 -25 129 -25q119 0 119 66q0 88 -84 88q-45 0 -74 -21l-33 13l90 180h72l-61 -123q45 12 86 12q61 0 104 -33.5t43 -97.5q0 -74 -78 -112q-66 -33 -159 -33q-118 0 -181 25z" />
<glyph unicode="&#xc8;" horiz-adv-x="1251" d="M125 0v33q57 0 80 14q31 19 31 76v1057q0 86 -111 86v32h952q0 -90 21 -274h-33q-49 131 -55 139q-35 53 -136 54h-505v-494h342q61 0 84 31q16 25 30 104h41q-12 -131 -12 -194q0 -51 12 -158h-51q0 70 -18 98q-25 37 -92 37h-336v-559h528q111 0 160 63q39 47 57 168 h45q-12 -51 -21.5 -156.5t-4.5 -156.5h-1008zM326 1669q0 59 61 59q43 0 74 -30l315 -318h-72l-329 211q-49 31 -49 78z" />
<glyph unicode="&#xc9;" horiz-adv-x="1251" d="M125 0v33q57 0 80 14q31 19 31 76v1057q0 86 -111 86v32h952q0 -90 21 -274h-33q-49 131 -55 139q-35 53 -136 54h-505v-494h342q61 0 84 31q16 25 30 104h41q-12 -131 -12 -194q0 -51 12 -158h-51q0 70 -18 98q-25 37 -92 37h-336v-559h528q111 0 160 63q39 47 57 168 h45q-12 -51 -21.5 -156.5t-4.5 -156.5h-1008zM477 1380l318 318q31 31 71 30q61 0 62 -59q0 -47 -49 -78l-330 -211h-72z" />
<glyph unicode="&#xca;" horiz-adv-x="1251" d="M125 0v33q57 0 80 14q31 19 31 76v1057q0 86 -111 86v32h952q0 -90 21 -274h-33q-49 131 -55 139q-35 53 -136 54h-505v-494h342q61 0 84 31q16 25 30 104h41q-12 -131 -12 -194q0 -51 12 -158h-51q0 70 -18 98q-25 37 -92 37h-336v-559h528q111 0 160 63q39 47 57 168 h45q-12 -51 -21.5 -156.5t-4.5 -156.5h-1008zM319 1380l250 348h115l250 -348h-72l-235 232l-236 -232h-72z" />
<glyph unicode="&#xcb;" horiz-adv-x="1251" d="M125 0v33q57 0 80 14q31 19 31 76v1057q0 86 -111 86v32h952q0 -90 21 -274h-33q-49 131 -55 139q-35 53 -136 54h-505v-494h342q61 0 84 31q16 25 30 104h41q-12 -131 -12 -194q0 -51 12 -158h-51q0 70 -18 98q-25 37 -92 37h-336v-559h528q111 0 160 63q39 47 57 168 h45q-12 -51 -21.5 -156.5t-4.5 -156.5h-1008zM332 1509q0 41 28.5 68.5t67.5 27.5q41 0 69.5 -28.5t28.5 -67.5t-28.5 -68.5t-69.5 -29.5q-39 0 -67.5 28.5t-28.5 69.5zM727 1509q0 41 28.5 68.5t67.5 27.5q41 0 70 -28.5t29 -67.5t-29 -68.5t-70 -29.5q-39 0 -67.5 28.5 t-28.5 69.5z" />
<glyph unicode="&#xcc;" horiz-adv-x="571" d="M-14 1669q0 59 61 59q43 0 74 -30l315 -318h-72l-329 211q-49 31 -49 78zM119 -12v32q100 0 100 80v1096q0 53 -26 70q-18 12 -74 12v33q119 -12 168 -13q47 0 166 13v-33q-55 0 -74 -12q-27 -17 -27 -70v-1096q0 -80 101 -80v-32q-115 12 -166 12q-53 0 -168 -12z" />
<glyph unicode="&#xcd;" horiz-adv-x="571" d="M119 -12v32q100 0 100 80v1096q0 53 -26 70q-18 12 -74 12v33q119 -12 168 -13q47 0 166 13v-33q-55 0 -74 -12q-27 -17 -27 -70v-1096q0 -80 101 -80v-32q-115 12 -166 12q-53 0 -168 -12zM137 1380l318 318q31 31 71 30q61 0 62 -59q0 -47 -49 -78l-330 -211h-72z" />
<glyph unicode="&#xce;" horiz-adv-x="571" d="M-21 1380l250 348h115l250 -348h-72l-235 232l-236 -232h-72zM119 -12v32q100 0 100 80v1096q0 53 -26 70q-18 12 -74 12v33q119 -12 168 -13q47 0 166 13v-33q-55 0 -74 -12q-27 -17 -27 -70v-1096q0 -80 101 -80v-32q-115 12 -166 12q-53 0 -168 -12z" />
<glyph unicode="&#xcf;" horiz-adv-x="571" d="M-8 1509q0 41 28.5 68.5t67.5 27.5q41 0 69.5 -28.5t28.5 -67.5t-28.5 -68.5t-69.5 -29.5q-39 0 -67.5 28.5t-28.5 69.5zM119 -12v32q100 0 100 80v1096q0 53 -26 70q-18 12 -74 12v33q119 -12 168 -13q47 0 166 13v-33q-55 0 -74 -12q-27 -17 -27 -70v-1096 q0 -80 101 -80v-32q-115 12 -166 12q-53 0 -168 -12zM387 1509q0 41 28.5 68.5t67.5 27.5q41 0 70 -28.5t29 -67.5t-29 -68.5t-70 -29.5q-39 0 -67.5 28.5t-28.5 69.5z" />
<glyph unicode="&#xd0;" horiz-adv-x="1366" d="M115 639v82h121v463q0 53 -27 69q-18 12 -74 13v32h436q332 0 527 -190q180 -178 180 -459q0 -291 -178 -467q-184 -182 -500 -182h-465v33q100 0 101 80v526h-121zM369 82h180q270 0 433 140t163 394q0 270 -156 431q-166 170 -477 170h-143v-496h452v-82h-452v-557z " />
<glyph unicode="&#xd1;" horiz-adv-x="1478" d="M135 -12v32q101 1 101 105v1046q0 59 -23 83t-78 24v33q82 -12 131 -13q59 0 125 13q487 -696 746 -1098h4v958q0 106 -117 107v33q106 -12 162 -13q59 0 157 13v-33q-55 0 -77.5 -23.5t-22.5 -83.5v-1183h-98q-207 315 -803 1179h-4v-1040q0 -106 129 -107v-32 q-86 12 -174 12q-80 0 -158 -12zM408 1433q18 90 74.5 147.5t142.5 57.5q49 0 139 -47t140 -45q76 2 110 92h57q-49 -205 -217 -205q-57 0 -147 46.5t-133 46.5q-84 -1 -113 -93h-53z" />
<glyph unicode="&#xd2;" horiz-adv-x="1478" d="M88 672q0 272 186 469q182 190 431 190q319 0 514 -233q172 -207 172 -482q0 -272 -186.5 -460.5t-438.5 -188.5q-297 0 -492 215q-186 205 -186 490zM221 668q0 -238 150 -418q158 -190 387 -191q203 0 351 157t148 407q0 242 -143 424q-154 193 -383 192 q-236 0 -373 -155.5t-137 -415.5zM439 1683q0 59 61 59q43 0 74 -30l315 -318h-72l-329 211q-49 31 -49 78z" />
<glyph unicode="&#xd3;" horiz-adv-x="1478" d="M88 672q0 272 186 469q182 190 431 190q319 0 514 -233q172 -207 172 -482q0 -272 -186.5 -460.5t-438.5 -188.5q-297 0 -492 215q-186 205 -186 490zM221 668q0 -238 150 -418q158 -190 387 -191q203 0 351 157t148 407q0 242 -143 424q-154 193 -383 192 q-236 0 -373 -155.5t-137 -415.5zM590 1394l318 318q31 31 71 30q61 0 62 -59q0 -47 -49 -78l-330 -211h-72z" />
<glyph unicode="&#xd4;" horiz-adv-x="1478" d="M88 672q0 272 186 469q182 190 431 190q319 0 514 -233q172 -207 172 -482q0 -272 -186.5 -460.5t-438.5 -188.5q-297 0 -492 215q-186 205 -186 490zM221 668q0 -238 150 -418q158 -190 387 -191q203 0 351 157t148 407q0 242 -143 424q-154 193 -383 192 q-236 0 -373 -155.5t-137 -415.5zM432 1394l250 348h115l250 -348h-72l-235 232l-236 -232h-72z" />
<glyph unicode="&#xd5;" horiz-adv-x="1478" d="M88 672q0 272 186 469q182 190 431 190q319 0 514 -233q172 -207 172 -482q0 -272 -186.5 -460.5t-438.5 -188.5q-297 0 -492 215q-186 205 -186 490zM221 668q0 -238 150 -418q158 -190 387 -191q203 0 351 157t148 407q0 242 -143 424q-154 193 -383 192 q-236 0 -373 -155.5t-137 -415.5zM408 1447q18 90 74.5 147.5t142.5 57.5q49 0 139 -47t140 -45q76 2 110 92h57q-49 -205 -217 -205q-57 0 -147 46.5t-133 46.5q-84 -1 -113 -93h-53z" />
<glyph unicode="&#xd6;" horiz-adv-x="1478" d="M88 672q0 272 186 469q182 190 431 190q319 0 514 -233q172 -207 172 -482q0 -272 -186.5 -460.5t-438.5 -188.5q-297 0 -492 215q-186 205 -186 490zM221 668q0 -238 150 -418q158 -190 387 -191q203 0 351 157t148 407q0 242 -143 424q-154 193 -383 192 q-236 0 -373 -155.5t-137 -415.5zM445 1523q0 41 28.5 68.5t67.5 27.5q41 0 69.5 -28.5t28.5 -67.5t-28.5 -68.5t-69.5 -29.5q-39 0 -67.5 28.5t-28.5 69.5zM840 1523q0 41 28.5 68.5t67.5 27.5q41 0 70 -28.5t29 -67.5t-29 -68.5t-70 -29.5q-39 0 -67.5 28.5t-28.5 69.5z " />
<glyph unicode="&#xd7;" horiz-adv-x="1228" d="M152 129l389 389l-389 389l73 74l387 -391l392 391l73 -74l-391 -389l391 -389l-73 -74l-392 391l-387 -391z" />
<glyph unicode="&#xd8;" horiz-adv-x="1478" d="M88 672q0 272 186 469q182 190 431 190q186 0 333 -86l90 160h68l-106 -191q145 -98 225 -268q76 -158 76 -330q0 -272 -186.5 -460.5t-438.5 -188.5q-182 0 -330 86l-84 -149h-67l102 182q-141 96 -220 252t-79 334zM221 668q0 -298 219 -488l551 979q-115 80 -260 80 q-236 0 -373 -155.5t-137 -415.5zM487 145q123 -86 271 -86q203 0 351 157t148 407q0 145 -58.5 280t-160.5 221z" />
<glyph unicode="&#xd9;" horiz-adv-x="1368" d="M129 1278v33q111 -12 172 -13q53 0 164 13v-33q-113 0 -113 -115v-712q0 -401 322 -402q342 0 342 402v712q0 115 -113 115v33q111 -12 164 -13q61 0 172 13v-33q-90 0 -90 -117v-729q0 -221 -123 -343t-342 -122t-342 122t-123 343v729q0 117 -90 117zM383 1679 q0 59 61 59q43 0 74 -30l315 -318h-72l-329 211q-49 31 -49 78z" />
<glyph unicode="&#xda;" horiz-adv-x="1368" d="M129 1278v33q111 -12 172 -13q53 0 164 13v-33q-113 0 -113 -115v-712q0 -401 322 -402q342 0 342 402v712q0 115 -113 115v33q111 -12 164 -13q61 0 172 13v-33q-90 0 -90 -117v-729q0 -221 -123 -343t-342 -122t-342 122t-123 343v729q0 117 -90 117zM534 1390l318 318 q31 31 71 30q61 0 62 -59q0 -47 -49 -78l-330 -211h-72z" />
<glyph unicode="&#xdb;" horiz-adv-x="1368" d="M129 1278v33q111 -12 172 -13q53 0 164 13v-33q-113 0 -113 -115v-712q0 -401 322 -402q342 0 342 402v712q0 115 -113 115v33q111 -12 164 -13q61 0 172 13v-33q-90 0 -90 -117v-729q0 -221 -123 -343t-342 -122t-342 122t-123 343v729q0 117 -90 117zM376 1390l250 348 h115l250 -348h-72l-235 232l-236 -232h-72z" />
<glyph unicode="&#xdc;" horiz-adv-x="1368" d="M129 1278v33q111 -12 172 -13q53 0 164 13v-33q-113 0 -113 -115v-712q0 -401 322 -402q342 0 342 402v712q0 115 -113 115v33q111 -12 164 -13q61 0 172 13v-33q-90 0 -90 -117v-729q0 -221 -123 -343t-342 -122t-342 122t-123 343v729q0 117 -90 117zM389 1519 q0 41 28.5 68.5t67.5 27.5q41 0 69.5 -28.5t28.5 -67.5t-28.5 -68.5t-69.5 -29.5q-39 0 -67.5 28.5t-28.5 69.5zM784 1519q0 41 28.5 68.5t67.5 27.5q41 0 70 -28.5t29 -67.5t-29 -68.5t-70 -29.5q-39 0 -67.5 28.5t-28.5 69.5z" />
<glyph unicode="&#xdd;" horiz-adv-x="1138" d="M12 1278v33q119 -12 181 -13q61 0 184 13v-33q-96 0 -96 -55q0 -31 77 -179l228 -428l213 394q78 143 78 209q0 59 -97 59v33q131 -12 195 -13q53 0 151 13v-33q-55 0 -104 -59q-35 -45 -111 -183l-284 -522v-399q0 -94 96 -95v-32q-102 12 -152 12q-59 0 -174 -12v32 q96 0 97 86v414l-295 559q-105 199 -187 199zM420 1394l318 318q31 31 71 30q61 0 62 -59q0 -47 -49 -78l-330 -211h-72z" />
<glyph unicode="&#xde;" horiz-adv-x="1138" d="M125 -12v32q111 0 111 91v1081q0 86 -111 86v33q115 -12 168 -13q59 0 186 13v-33q-111 0 -110 -90v-101h204q236 0 353 -69q160 -96 159 -340q0 -166 -133 -270q-121 -94 -293 -95q-127 0 -200 41q-53 29 -53 52q0 20 22 20q8 0 62.5 -15.5t115.5 -15.5q158 0 252 80 t94 234q0 164 -129 239q-98 57 -258 58h-196v-895q0 -90 110 -91v-32q-102 12 -151 12q-63 0 -203 -12z" />
<glyph unicode="&#xdf;" horiz-adv-x="1138" d="M90 -342q94 0 94 88v1194q0 465 396 465q141 0 242.5 -82t101.5 -219q0 -231 -269 -303v-4q184 -20 292 -129t108 -265q0 -174 -133.5 -305t-313.5 -131q-123 0 -209 49l-20 111q98 -78 219 -78q133 0 223 88q100 98 101 266q0 178 -142 273q-117 76 -293 76 q-63 0 -65 28q2 33 49 33q100 0 195 57q125 76 125 211q0 242 -252 242q-231 0 -232 -313v-1385q-111 6 -108 6q2 0 -109 -6v33z" />
<glyph unicode="&#xe0;" d="M78 248q0 252 330 284l180 19q68 6 86 14q49 16 49 60v77q0 201 -246 201q-109 0 -185.5 -59.5t-80.5 -138.5h-37l16 194q123 76 283 76q373 0 373 -340v-533q0 -82 100 -82v-32q-92 12 -96 12q23 0 -119 -12v168h-4q-82 -188 -328 -189q-135 0 -225 72q-96 78 -96 209z M201 248q0 -94 58 -147.5t153 -51.5q141 2 226 94t85 242v107q-78 -25 -324 -52q-104 -12 -151 -54t-47 -138zM211 1364q0 59 61 59q43 0 74 -30l315 -318h-72l-329 211q-49 31 -49 78z" />
<glyph unicode="&#xe1;" d="M78 248q0 252 330 284l180 19q68 6 86 14q49 16 49 60v77q0 201 -246 201q-109 0 -185.5 -59.5t-80.5 -138.5h-37l16 194q123 76 283 76q373 0 373 -340v-533q0 -82 100 -82v-32q-92 12 -96 12q23 0 -119 -12v168h-4q-82 -188 -328 -189q-135 0 -225 72q-96 78 -96 209z M201 248q0 -94 58 -147.5t153 -51.5q141 2 226 94t85 242v107q-78 -25 -324 -52q-104 -12 -151 -54t-47 -138zM362 1075l318 318q31 31 71 30q61 0 62 -59q0 -47 -49 -78l-330 -211h-72z" />
<glyph unicode="&#xe2;" d="M78 248q0 252 330 284l180 19q68 6 86 14q49 16 49 60v77q0 201 -246 201q-109 0 -185.5 -59.5t-80.5 -138.5h-37l16 194q123 76 283 76q373 0 373 -340v-533q0 -82 100 -82v-32q-92 12 -96 12q23 0 -119 -12v168h-4q-82 -188 -328 -189q-135 0 -225 72q-96 78 -96 209z M201 248q0 -94 58 -147.5t153 -51.5q141 2 226 94t85 242v107q-78 -25 -324 -52q-104 -12 -151 -54t-47 -138zM204 1075l250 348h115l250 -348h-72l-235 232l-236 -232h-72z" />
<glyph unicode="&#xe3;" d="M78 248q0 252 330 284l180 19q68 6 86 14q49 16 49 60v77q0 201 -246 201q-109 0 -185.5 -59.5t-80.5 -138.5h-37l16 194q123 76 283 76q373 0 373 -340v-533q0 -82 100 -82v-32q-92 12 -96 12q23 0 -119 -12v168h-4q-82 -188 -328 -189q-135 0 -225 72q-96 78 -96 209z M180 1128q18 90 74.5 147.5t142.5 57.5q49 0 139 -47t140 -45q76 2 110 92h57q-49 -205 -217 -205q-57 0 -147 46.5t-133 46.5q-84 -1 -113 -93h-53zM201 248q0 -94 58 -147.5t153 -51.5q141 2 226 94t85 242v107q-78 -25 -324 -52q-104 -12 -151 -54t-47 -138z" />
<glyph unicode="&#xe4;" d="M78 248q0 252 330 284l180 19q68 6 86 14q49 16 49 60v77q0 201 -246 201q-109 0 -185.5 -59.5t-80.5 -138.5h-37l16 194q123 76 283 76q373 0 373 -340v-533q0 -82 100 -82v-32q-92 12 -96 12q23 0 -119 -12v168h-4q-82 -188 -328 -189q-135 0 -225 72q-96 78 -96 209z M201 248q0 -94 58 -147.5t153 -51.5q141 2 226 94t85 242v107q-78 -25 -324 -52q-104 -12 -151 -54t-47 -138zM217 1204q0 41 28.5 68.5t67.5 27.5q41 0 69.5 -28.5t28.5 -67.5t-28.5 -68.5t-69.5 -29.5q-39 0 -67.5 28.5t-28.5 69.5zM612 1204q0 41 28.5 68.5t67.5 27.5 q41 0 70 -28.5t29 -67.5t-29 -68.5t-70 -29.5q-39 0 -67.5 28.5t-28.5 69.5z" />
<glyph unicode="&#xe5;" d="M78 248q0 252 330 284l180 19q68 6 86 14q49 16 49 60v77q0 201 -246 201q-109 0 -185.5 -59.5t-80.5 -138.5h-37l16 194q123 76 283 76q373 0 373 -340v-533q0 -82 100 -82v-32q-92 12 -96 12q23 0 -119 -12v168h-4q-82 -188 -328 -189q-135 0 -225 72q-96 78 -96 209z M201 248q0 -94 58 -147.5t153 -51.5q141 2 226 94t85 242v107q-78 -25 -324 -52q-104 -12 -151 -54t-47 -138zM313 1278q0 84 58.5 141.5t140.5 57.5q84 0 142 -58.5t58 -140.5t-58 -141.5t-142 -59.5q-82 0 -140.5 58.5t-58.5 142.5zM374 1278q0 -57 40 -98t98 -41 q57 0 98 41t41 98t-41 97t-98 40t-97.5 -40t-40.5 -97z" />
<glyph unicode="&#xe6;" horiz-adv-x="1593" d="M59 254q0 156 111 223q74 45 231 66l134 16q94 12 123.5 31.5t29.5 71.5q0 113 -65.5 172t-178.5 59q-139 0 -202 -78q-10 -14 -58 -125h-32q2 25 8 109q8 78 8 86q39 23 76 47q92 43 211 43q242 0 325 -170l4 -4q147 174 340 174q410 0 410 -475h-733q0 -174 102 -303 q109 -137 271 -138q195 0 315 142v-121q-129 -113 -336 -113q-117 0 -233 78q-127 84 -177 213h-4q-74 -291 -352 -291q-145 0 -236.5 82t-91.5 205zM182 258q0 -84 62.5 -141.5t165.5 -57.5q133 0 211 115q67 103 67 244v94q-92 -29 -266 -51q-123 -16 -168 -45 q-72 -45 -72 -158zM807 582h604q2 135 -72 221q-80 90 -215 90q-127 0 -222 -96t-95 -215z" />
<glyph unicode="&#xe7;" horiz-adv-x="909" d="M84 500q0 176 139 319q150 156 363 156q131 0 252 -51l12 -230h-39q-25 199 -240 199q-129 0 -239 -102q-125 -117 -125 -295q0 -172 102 -299q111 -137 285 -138q146 0 283 74l-19 -98q-106 -68 -283 -68q-229 0 -364 160q-127 147 -127 373zM317 -362l27 61 q82 -25 129 -25q119 0 119 66q0 88 -84 88q-45 0 -74 -21l-33 13l90 180h72l-61 -123q45 12 86 12q61 0 104 -33.5t43 -97.5q0 -74 -78 -112q-66 -33 -159 -33q-118 0 -181 25z" />
<glyph unicode="&#xe8;" d="M84 496q0 193 127 336t319 143q410 0 410 -475h-733q0 -174 102 -303q109 -137 271 -138q194 1 315 142v-121q-129 -113 -336 -113q-215 0 -348 160q-127 150 -127 369zM211 1364q0 59 61 59q43 0 74 -30l315 -318h-72l-329 211q-49 31 -49 78zM213 582h604 q2 135 -72 221q-80 90 -215 90q-127 0 -222 -96t-95 -215z" />
<glyph unicode="&#xe9;" d="M84 496q0 193 127 336t319 143q410 0 410 -475h-733q0 -174 102 -303q109 -137 271 -138q194 1 315 142v-121q-129 -113 -336 -113q-215 0 -348 160q-127 150 -127 369zM213 582h604q2 135 -72 221q-80 90 -215 90q-127 0 -222 -96t-95 -215zM362 1075l318 318 q31 31 71 30q61 0 62 -59q0 -47 -49 -78l-330 -211h-72z" />
<glyph unicode="&#xea;" d="M84 496q0 193 127 336t319 143q410 0 410 -475h-733q0 -174 102 -303q109 -137 271 -138q194 1 315 142v-121q-129 -113 -336 -113q-215 0 -348 160q-127 150 -127 369zM204 1075l250 348h115l250 -348h-72l-235 232l-236 -232h-72zM213 582h604q2 135 -72 221 q-80 90 -215 90q-127 0 -222 -96t-95 -215z" />
<glyph unicode="&#xeb;" d="M84 496q0 193 127 336t319 143q410 0 410 -475h-733q0 -174 102 -303q109 -137 271 -138q194 1 315 142v-121q-129 -113 -336 -113q-215 0 -348 160q-127 150 -127 369zM213 582h604q2 135 -72 221q-80 90 -215 90q-127 0 -222 -96t-95 -215zM217 1204q0 41 28.5 68.5 t67.5 27.5q41 0 69.5 -28.5t28.5 -67.5t-28.5 -68.5t-69.5 -29.5q-39 0 -67.5 28.5t-28.5 69.5zM612 1204q0 41 28.5 68.5t67.5 27.5q41 0 70 -28.5t29 -67.5t-29 -68.5t-70 -29.5q-39 0 -67.5 28.5t-28.5 69.5z" />
<glyph unicode="&#xec;" horiz-adv-x="569" d="M-16 1364q0 59 61 59q43 0 74 -30l315 -318h-72l-329 211q-49 31 -49 78zM123 -12v32q100 0 100 89v718q0 63 -100 64v33q57 8 137 37.5t92 44.5q-6 -37 -6 -211v-689q0 -86 100 -86v-32q-106 12 -167 12q-53 0 -156 -12z" />
<glyph unicode="&#xed;" horiz-adv-x="569" d="M123 -12v32q100 0 100 89v718q0 63 -100 64v33q57 8 137 37.5t92 44.5q-6 -37 -6 -211v-689q0 -86 100 -86v-32q-106 12 -167 12q-53 0 -156 -12zM135 1075l318 318q31 31 71 30q61 0 62 -59q0 -47 -49 -78l-330 -211h-72z" />
<glyph unicode="&#xee;" horiz-adv-x="569" d="M-23 1075l250 348h115l250 -348h-72l-235 232l-236 -232h-72zM123 -12v32q100 0 100 89v718q0 63 -100 64v33q57 8 137 37.5t92 44.5q-6 -37 -6 -211v-689q0 -86 100 -86v-32q-106 12 -167 12q-53 0 -156 -12z" />
<glyph unicode="&#xef;" horiz-adv-x="569" d="M-10 1204q0 41 28.5 68.5t67.5 27.5q41 0 69.5 -28.5t28.5 -67.5t-28.5 -68.5t-69.5 -29.5q-39 0 -67.5 28.5t-28.5 69.5zM123 -12v32q100 0 100 89v718q0 63 -100 64v33q57 8 137 37.5t92 44.5q-6 -37 -6 -211v-689q0 -86 100 -86v-32q-106 12 -167 12q-53 0 -156 -12z M385 1204q0 41 28.5 68.5t67.5 27.5q41 0 70 -28.5t29 -67.5t-29 -68.5t-70 -29.5q-39 0 -67.5 28.5t-28.5 69.5z" />
<glyph unicode="&#xf0;" horiz-adv-x="1138" d="M84 500q0 178 127 319q139 156 352 156q147 0 264 -82h7q-121 254 -304 381l-258 -133l-53 47l258 131q-61 51 -225 143l35 33q115 -41 266 -139l268 139l53 -47l-264 -137q217 -170 334 -402q111 -217 111 -448q0 -195 -123 -336q-135 -158 -357 -158q-229 0 -364 160 q-127 147 -127 373zM207 496q0 -184 104 -318q111 -139 283 -139q145 0 237 94q100 104 101 295q0 184 -98 324q-106 152 -271 151q-156 0 -254 -106q-102 -113 -102 -301z" />
<glyph unicode="&#xf1;" horiz-adv-x="1138" d="M111 -12v32q100 1 100 89v718q0 63 -100 64v33q57 8 137 37.5t92 44.5q-6 -61 -6 -185h4q98 154 268 154q332 0 332 -357v-528q0 -70 90 -70v-32q-86 12 -113 12q-37 0 -110 -12q10 143 10 164v493q0 125 -72 186q-57 51 -141 52q-121 0 -192 -66q-76 -72 -76 -207v-504 q0 -86 100 -86v-32q-106 12 -168 12q-53 0 -155 -12zM238 1128q18 90 74.5 147.5t142.5 57.5q49 0 139 -47t140 -45q76 2 110 92h57q-49 -205 -217 -205q-57 0 -147 46.5t-133 46.5q-84 -1 -113 -93h-53z" />
<glyph unicode="&#xf2;" horiz-adv-x="1138" d="M84 500q0 178 127 319q139 156 352 156t352.5 -151.5t139.5 -362.5q0 -195 -123 -336q-135 -158 -357 -158q-229 0 -364 160q-127 148 -127 373zM207 496q0 -184 104 -318q111 -139 283 -139q145 0 237 94q100 104 101 295q0 184 -98 324q-106 152 -271 151 q-156 0 -254 -106q-102 -113 -102 -301zM269 1364q0 59 61 59q43 0 74 -30l315 -318h-72l-329 211q-49 31 -49 78z" />
<glyph unicode="&#xf3;" horiz-adv-x="1138" d="M84 500q0 178 127 319q139 156 352 156t352.5 -151.5t139.5 -362.5q0 -195 -123 -336q-135 -158 -357 -158q-229 0 -364 160q-127 148 -127 373zM207 496q0 -184 104 -318q111 -139 283 -139q145 0 237 94q100 104 101 295q0 184 -98 324q-106 152 -271 151 q-156 0 -254 -106q-102 -113 -102 -301zM420 1075l318 318q31 31 71 30q61 0 62 -59q0 -47 -49 -78l-330 -211h-72z" />
<glyph unicode="&#xf4;" horiz-adv-x="1138" d="M84 500q0 178 127 319q139 156 352 156t352.5 -151.5t139.5 -362.5q0 -195 -123 -336q-135 -158 -357 -158q-229 0 -364 160q-127 148 -127 373zM207 496q0 -184 104 -318q111 -139 283 -139q145 0 237 94q100 104 101 295q0 184 -98 324q-106 152 -271 151 q-156 0 -254 -106q-102 -113 -102 -301zM262 1075l250 348h115l250 -348h-72l-235 232l-236 -232h-72z" />
<glyph unicode="&#xf5;" horiz-adv-x="1138" d="M84 500q0 178 127 319q139 156 352 156t352.5 -151.5t139.5 -362.5q0 -195 -123 -336q-135 -158 -357 -158q-229 0 -364 160q-127 148 -127 373zM207 496q0 -184 104 -318q111 -139 283 -139q145 0 237 94q100 104 101 295q0 184 -98 324q-106 152 -271 151 q-156 0 -254 -106q-102 -113 -102 -301zM238 1128q18 90 74.5 147.5t142.5 57.5q49 0 139 -47t140 -45q76 2 110 92h57q-49 -205 -217 -205q-57 0 -147 46.5t-133 46.5q-84 -1 -113 -93h-53z" />
<glyph unicode="&#xf6;" horiz-adv-x="1138" d="M84 500q0 178 127 319q139 156 352 156t352.5 -151.5t139.5 -362.5q0 -195 -123 -336q-135 -158 -357 -158q-229 0 -364 160q-127 148 -127 373zM207 496q0 -184 104 -318q111 -139 283 -139q145 0 237 94q100 104 101 295q0 184 -98 324q-106 152 -271 151 q-156 0 -254 -106q-102 -113 -102 -301zM275 1204q0 41 28.5 68.5t67.5 27.5q41 0 69.5 -28.5t28.5 -67.5t-28.5 -68.5t-69.5 -29.5q-39 0 -67.5 28.5t-28.5 69.5zM670 1204q0 41 28.5 68.5t67.5 27.5q41 0 70 -28.5t29 -67.5t-29 -68.5t-70 -29.5q-39 0 -67.5 28.5 t-28.5 69.5z" />
<glyph unicode="&#xf7;" horiz-adv-x="1228" d="M96 467v102h1037v-102h-1037zM522 72q0 39 26.5 65.5t65.5 26.5t66 -26.5t27 -65.5t-27 -65.5t-66 -26.5t-65.5 26.5t-26.5 65.5zM522 965q0 39 26.5 65.5t65.5 26.5t66 -26.5t27 -65.5t-27 -66t-66 -27t-65.5 27t-26.5 66z" />
<glyph unicode="&#xf8;" horiz-adv-x="1138" d="M84 500q0 178 127 319q139 156 352 156q104 0 197 -41l59 127h62l-74 -154q115 -66 181.5 -186.5t66.5 -259.5q0 -195 -123 -336q-135 -158 -357 -158q-113 0 -198 39l-66 -139h-61l78 164q-117 63 -181 192q-63 123 -63 277zM207 496q0 -246 164 -377l352 739 q-74 45 -160 45q-156 0 -254 -106q-102 -113 -102 -301zM416 88q78 -49 178 -49q145 0 237 94q100 104 101 295q0 258 -164 395z" />
<glyph unicode="&#xf9;" horiz-adv-x="1138" d="M111 891v33q57 8 137 37.5t92 44.5q-6 -37 -6 -211v-488q0 -248 196 -248q135 0 211 99q74 92 74 243v426q0 63 -104 64v33q59 8 143 39q78 29 90 43q-6 -37 -6 -211v-689q0 -86 90 -86v-32l-104 12q-2 0 -107 -12v151h-4q-82 -172 -297 -172q-137 0 -217 72 q-88 80 -88 235v553q0 63 -100 64zM269 1364q0 59 61 59q43 0 74 -30l315 -318h-72l-329 211q-49 31 -49 78z" />
<glyph unicode="&#xfa;" horiz-adv-x="1138" d="M111 891v33q57 8 137 37.5t92 44.5q-6 -37 -6 -211v-488q0 -248 196 -248q135 0 211 99q74 92 74 243v426q0 63 -104 64v33q59 8 143 39q78 29 90 43q-6 -37 -6 -211v-689q0 -86 90 -86v-32l-104 12q-2 0 -107 -12v151h-4q-82 -172 -297 -172q-137 0 -217 72 q-88 80 -88 235v553q0 63 -100 64zM420 1075l318 318q31 31 71 30q61 0 62 -59q0 -47 -49 -78l-330 -211h-72z" />
<glyph unicode="&#xfb;" horiz-adv-x="1138" d="M111 891v33q57 8 137 37.5t92 44.5q-6 -37 -6 -211v-488q0 -248 196 -248q135 0 211 99q74 92 74 243v426q0 63 -104 64v33q59 8 143 39q78 29 90 43q-6 -37 -6 -211v-689q0 -86 90 -86v-32l-104 12q-2 0 -107 -12v151h-4q-82 -172 -297 -172q-137 0 -217 72 q-88 80 -88 235v553q0 63 -100 64zM262 1075l250 348h115l250 -348h-72l-235 232l-236 -232h-72z" />
<glyph unicode="&#xfc;" horiz-adv-x="1138" d="M111 891v33q57 8 137 37.5t92 44.5q-6 -37 -6 -211v-488q0 -248 196 -248q135 0 211 99q74 92 74 243v426q0 63 -104 64v33q59 8 143 39q78 29 90 43q-6 -37 -6 -211v-689q0 -86 90 -86v-32l-104 12q-2 0 -107 -12v151h-4q-82 -172 -297 -172q-137 0 -217 72 q-88 80 -88 235v553q0 63 -100 64zM275 1204q0 41 28.5 68.5t67.5 27.5q41 0 69.5 -28.5t28.5 -67.5t-28.5 -68.5t-69.5 -29.5q-39 0 -67.5 28.5t-28.5 69.5zM670 1204q0 41 28.5 68.5t67.5 27.5q41 0 70 -28.5t29 -67.5t-29 -68.5t-70 -29.5q-39 0 -67.5 28.5t-28.5 69.5z " />
<glyph unicode="&#xfd;" horiz-adv-x="909" d="M4 926v28q102 -12 156 -12q57 0 192 12v-32q-66 -6 -90 -20.5t-24 -55.5q0 -27 102 -295l158 -412h4l182 611q18 63 18 108q0 63 -104 64v32q98 -12 160 -12q57 0 147 12v-32q-76 0 -112 -115l-320 -975q-68 -207 -209 -207q-63 0 -108 39l-13 164h39q4 -90 84 -90 q86 0 133 141l37 109l-299 794q-53 143 -133 144zM305 1075l318 318q31 31 71 30q61 0 62 -59q0 -47 -49 -78l-330 -211h-72z" />
<glyph unicode="&#xfe;" horiz-adv-x="1138" d="M76 -342q63 14 81.5 35t18.5 80v1544q0 63 -100 63v33q57 8 137 38t92 44q-6 -37 -6 -211v-489h4q102 180 318 180q201 0 323 -160q111 -145 111 -348t-113 -344q-121 -156 -321 -156q-217 0 -318 191h-4v-396q0 -55 21.5 -75.5t78.5 -28.5v-33q-106 12 -168 13 q-53 0 -155 -13v33zM285 500q0 -219 94 -340q86 -111 227 -111q135 0 230.5 108.5t95.5 286.5q0 174 -82 301q-96 147 -258 148q-147 0 -234 -127q-74 -113 -73 -266z" />
<glyph unicode="&#xff;" horiz-adv-x="909" d="M4 926v28q102 -12 156 -12q57 0 192 12v-32q-66 -6 -90 -20.5t-24 -55.5q0 -27 102 -295l158 -412h4l182 611q18 63 18 108q0 63 -104 64v32q98 -12 160 -12q57 0 147 12v-32q-76 0 -112 -115l-320 -975q-68 -207 -209 -207q-63 0 -108 39l-13 164h39q4 -90 84 -90 q86 0 133 141l37 109l-299 794q-53 143 -133 144zM160 1204q0 41 28.5 68.5t67.5 27.5q41 0 69.5 -28.5t28.5 -67.5t-28.5 -68.5t-69.5 -29.5q-39 0 -67.5 28.5t-28.5 69.5zM555 1204q0 41 28.5 68.5t67.5 27.5q41 0 70 -28.5t29 -67.5t-29 -68.5t-70 -29.5 q-39 0 -67.5 28.5t-28.5 69.5z" />
<glyph unicode="&#x152;" horiz-adv-x="2048" d="M106 672q0 268 185.5 463.5t431.5 195.5q207 0 332 -104v71h805q0 -90 20 -274h-33q-49 131 -55 139q-35 53 -135 54h-475v-496h323q53 0 72 29q14 23 31 106h41q-12 -131 -13 -194q0 -51 13 -158h-52q0 70 -18 98q-25 37 -92 37h-305v-557h497q111 0 160 63 q39 47 57 168h46q-12 -51 -21.5 -156.5t-5.5 -156.5h-860v57q-123 -90 -264 -90q-293 0 -489 205t-196 500zM240 713q0 -242 145 -439q158 -215 391 -215q76 0 150 25q84 29 123 78v948q-117 129 -299 129q-229 0 -369.5 -152.5t-140.5 -373.5z" />
<glyph unicode="&#x153;" horiz-adv-x="1820" d="M63 500q0 178 127 319q139 156 353 156q135 0 250 -68q106 -66 168 -174q129 242 387 242q410 0 409 -475h-733q0 -174 102 -303q109 -137 271 -138q195 0 315 142v-121q-129 -113 -336 -113q-272 0 -409 242q-127 -242 -412 -242q-229 0 -365 160q-127 148 -127 373z M186 496q0 -184 105 -318q111 -139 282 -139q145 0 238 94q100 104 100 295q0 184 -98 324q-106 152 -270 151q-156 0 -254 -106q-103 -113 -103 -301zM1030 582h604q2 135 -71 221q-80 90 -215 90q-127 0 -222.5 -96t-95.5 -215z" />
<glyph unicode="&#x178;" horiz-adv-x="1138" d="M12 1278v33q119 -12 181 -13q61 0 184 13v-33q-96 0 -96 -55q0 -31 77 -179l228 -428l213 394q78 143 78 209q0 59 -97 59v33q131 -12 195 -13q53 0 151 13v-33q-55 0 -104 -59q-35 -45 -111 -183l-284 -522v-399q0 -94 96 -95v-32q-102 12 -152 12q-59 0 -174 -12v32 q96 0 97 86v414l-295 559q-105 199 -187 199zM275 1523q0 41 28.5 68.5t67.5 27.5q41 0 69.5 -28.5t28.5 -67.5t-28.5 -68.5t-69.5 -29.5q-39 0 -67.5 28.5t-28.5 69.5zM670 1523q0 41 28.5 68.5t67.5 27.5q41 0 70 -28.5t29 -67.5t-29 -68.5t-70 -29.5q-39 0 -67.5 28.5 t-28.5 69.5z" />
<glyph unicode="&#x2c6;" horiz-adv-x="569" d="M-23 1075l250 348h115l250 -348h-72l-235 232l-236 -232h-72z" />
<glyph unicode="&#x2dc;" horiz-adv-x="569" d="M-47 1128q18 90 74.5 147.5t142.5 57.5q49 0 139 -47t140 -45q76 2 110 92h57q-49 -205 -217 -205q-57 0 -147 46.5t-133 46.5q-84 -1 -113 -93h-53z" />
<glyph unicode="&#x2000;" horiz-adv-x="886" />
<glyph unicode="&#x2001;" horiz-adv-x="1772" />
<glyph unicode="&#x2002;" horiz-adv-x="886" />
<glyph unicode="&#x2003;" horiz-adv-x="1772" />
<glyph unicode="&#x2004;" horiz-adv-x="590" />
<glyph unicode="&#x2005;" horiz-adv-x="443" />
<glyph unicode="&#x2006;" horiz-adv-x="295" />
<glyph unicode="&#x2007;" horiz-adv-x="295" />
<glyph unicode="&#x2008;" horiz-adv-x="221" />
<glyph unicode="&#x2009;" horiz-adv-x="354" />
<glyph unicode="&#x200a;" horiz-adv-x="98" />
<glyph unicode="&#x2010;" horiz-adv-x="684" d="M86 365q33 125 47 198h301q106 0 135 86h29q-20 -65 -55 -198h-287q-63 0 -92 -13q-39 -18 -55 -73h-23z" />
<glyph unicode="&#x2011;" horiz-adv-x="684" d="M86 365q33 125 47 198h301q106 0 135 86h29q-20 -65 -55 -198h-287q-63 0 -92 -13q-39 -18 -55 -73h-23z" />
<glyph unicode="&#x2012;" horiz-adv-x="684" d="M86 365q33 125 47 198h301q106 0 135 86h29q-20 -65 -55 -198h-287q-63 0 -92 -13q-39 -18 -55 -73h-23z" />
<glyph unicode="&#x2013;" d="M0 451v112h1024v-112h-1024z" />
<glyph unicode="&#x2014;" horiz-adv-x="2048" d="M0 451v112h2048v-112h-2048z" />
<glyph unicode="&#x2018;" horiz-adv-x="454" d="M170 950q0 102 45 201q47 106 125 147l25 -22q-72 -72 -72 -207q0 -76 14 -119h-137z" />
<glyph unicode="&#x2019;" horiz-adv-x="454" d="M90 973q72 72 72 207q0 76 -15 118h138q0 -96 -43 -194q-49 -111 -127 -154z" />
<glyph unicode="&#x201a;" horiz-adv-x="454" d="M90 -205q72 72 72 207q-1 76 -15 119h138q0 -96 -43 -195q-49 -111 -127 -153z" />
<glyph unicode="&#x201c;" horiz-adv-x="684" d="M90 950q0 102 45 201q47 106 125 147l25 -22q-72 -72 -72 -207q0 -76 14 -119h-137zM399 950q0 102 45 201q47 106 125 147l25 -22q-72 -72 -72 -207q1 -76 15 -119h-138z" />
<glyph unicode="&#x201d;" horiz-adv-x="684" d="M90 973q72 72 72 207q-1 75 -15 118h138q0 -96 -43 -194q-49 -111 -127 -154zM399 973q72 72 72 207q0 75 -14 118h137q0 -96 -43 -194q-49 -111 -127 -154z" />
<glyph unicode="&#x201e;" horiz-adv-x="684" d="M90 -205q72 72 72 207q-1 76 -15 119h138q0 -96 -43 -195q-49 -111 -127 -153zM399 -205q72 72 72 207q0 76 -14 119h137q0 -96 -43 -195q-49 -111 -127 -153z" />
<glyph unicode="&#x2022;" d="M172 649q0 141 99.5 240.5t240.5 99.5t240.5 -99t99.5 -241q0 -141 -99.5 -240.5t-240.5 -99.5t-240.5 99.5t-99.5 240.5z" />
<glyph unicode="&#x2026;" horiz-adv-x="2048" d="M266 45q0 76 76 76q33 0 55.5 -21.5t22.5 -54.5t-22.5 -55.5t-55.5 -22.5t-54.5 22.5t-21.5 55.5zM948 45q0 76 76 76q33 0 55.5 -21.5t22.5 -54.5t-22.5 -55.5t-55.5 -22.5t-54.5 22.5t-21.5 55.5zM1630 45q0 76 76 76q33 0 55.5 -21.5t22.5 -54.5t-22.5 -55.5 t-55.5 -22.5t-54.5 22.5t-21.5 55.5z" />
<glyph unicode="&#x202f;" horiz-adv-x="354" />
<glyph unicode="&#x2039;" horiz-adv-x="684" d="M154 506q0 82 57 158q80 104 178 200q90 88 109 88q20 0 20 -20q0 -10 -65 -90q-82 -98 -127 -172q-39 -66 -39 -164q0 -90 116 -260q33 -49 89 -111q39 -43 38 -55q0 -20 -22 -21q-25 0 -117 90.5t-178 198.5q-59 76 -59 158z" />
<glyph unicode="&#x203a;" horiz-adv-x="684" d="M154 932q0 20 22 20q25 0 117 -90t178 -198q59 -76 59 -158t-57 -158q-80 -104 -178 -201q-90 -88 -109 -88q-20 0 -20 21q0 10 65 90q82 98 127 172q39 66 39 164q0 90 -116 260q-33 49 -88 111q-39 43 -39 55z" />
<glyph unicode="&#x205f;" horiz-adv-x="443" />
<glyph unicode="&#x2122;" horiz-adv-x="2027" d="M41 1118v180h684v-180h-51q0 147 -105 148h-129v-672q0 -90 103 -90v-33h-320v33q104 0 105 90v672h-129q-106 0 -107 -148h-51zM819 1266v32h223l326 -667l330 667h207v-32q-119 0 -119 -101v-571q0 -90 102 -90v-33h-317v33q102 0 102 90v520h-4l-321 -649h-19 l-317 649h-4v-520q0 -90 108 -90v-33h-266v33q106 0 106 90v575q0 41 -45 69t-92 28z" />
<glyph unicode="&#xe000;" horiz-adv-x="952" d="M0 0v952h952v-952h-952z" />
</font>
</defs>
</svg>
